M48
; DRILL file {KiCad 8.0.1} date 2024-04-18T15:32:03-0400
; FORMAT={-:-/ absolute / inch / decimal}
; #@! TF.CreationDate,2024-04-18T15:32:03-04:00
; #@! TF.GenerationSoftware,Kicad,Pcbnew,8.0.1
; #@! TF.FileFunction,Plated,1,2,PTH
FMAT,2
INCH
; #@! TA.AperFunction,Plated,PTH,ComponentDrill
T1C0.0118
; #@! TA.AperFunction,Plated,PTH,ViaDrill
T2C0.0157
; #@! TA.AperFunction,Plated,PTH,ComponentDrill
T3C0.0394
%
G90
G05
T1
X5.169Y-3.0128
X5.169Y-3.1072
X5.2635Y-3.0128
X5.2635Y-3.1072
T2
X2.58Y-2.935
X3.15Y-3.475
X3.225Y-3.025
X3.34Y-3.32
X3.715Y-3.055
X3.86Y-3.32
X4.205Y-3.085
X4.38Y-3.32
X4.9309Y-3.2891
X4.975Y-3.055
X5.005Y-3.215
X5.015Y-3.08
X5.0203Y-3.0188
X5.1431Y-3.3006
X5.155Y-3.19
X5.2586Y-3.2636
X5.33Y-3.205
X5.385Y-2.925
X5.42Y-2.96
X5.74Y-3.32
X6.26Y-3.32
X6.78Y-3.32
X7.3Y-3.32
X7.74Y-3.14
X7.78Y-3.3
X7.82Y-3.26
T3
X2.7377Y-3.0202
X2.7377Y-3.1202
X2.7377Y-3.2202
X2.7377Y-3.3202
X2.7377Y-3.4202
X7.6377Y-3.0202
X7.6377Y-3.1202
X7.6377Y-3.2202
X7.6377Y-3.3202
X7.6377Y-3.4202
M30
