%TF.GenerationSoftware,KiCad,Pcbnew,8.0.1*%
%TF.CreationDate,2024-04-17T16:05:12-04:00*%
%TF.ProjectId,bombay_beats,626f6d62-6179-45f6-9265-6174732e6b69,rev?*%
%TF.SameCoordinates,Original*%
%TF.FileFunction,Copper,L1,Top*%
%TF.FilePolarity,Positive*%
%FSLAX46Y46*%
G04 Gerber Fmt 4.6, Leading zero omitted, Abs format (unit mm)*
G04 Created by KiCad (PCBNEW 8.0.1) date 2024-04-17 16:05:12*
%MOMM*%
%LPD*%
G01*
G04 APERTURE LIST*
G04 Aperture macros list*
%AMRoundRect*
0 Rectangle with rounded corners*
0 $1 Rounding radius*
0 $2 $3 $4 $5 $6 $7 $8 $9 X,Y pos of 4 corners*
0 Add a 4 corners polygon primitive as box body*
4,1,4,$2,$3,$4,$5,$6,$7,$8,$9,$2,$3,0*
0 Add four circle primitives for the rounded corners*
1,1,$1+$1,$2,$3*
1,1,$1+$1,$4,$5*
1,1,$1+$1,$6,$7*
1,1,$1+$1,$8,$9*
0 Add four rect primitives between the rounded corners*
20,1,$1+$1,$2,$3,$4,$5,0*
20,1,$1+$1,$4,$5,$6,$7,0*
20,1,$1+$1,$6,$7,$8,$9,0*
20,1,$1+$1,$8,$9,$2,$3,0*%
G04 Aperture macros list end*
%TA.AperFunction,SMDPad,CuDef*%
%ADD10RoundRect,0.100000X0.100000X-0.130000X0.100000X0.130000X-0.100000X0.130000X-0.100000X-0.130000X0*%
%TD*%
%TA.AperFunction,SMDPad,CuDef*%
%ADD11RoundRect,0.225000X-0.450000X-0.225000X0.450000X-0.225000X0.450000X0.225000X-0.450000X0.225000X0*%
%TD*%
%TA.AperFunction,ComponentPad*%
%ADD12O,1.700000X1.700000*%
%TD*%
%TA.AperFunction,ComponentPad*%
%ADD13R,1.700000X1.700000*%
%TD*%
%TA.AperFunction,HeatsinkPad*%
%ADD14C,0.600000*%
%TD*%
%TA.AperFunction,HeatsinkPad*%
%ADD15R,3.000000X3.000000*%
%TD*%
%TA.AperFunction,ViaPad*%
%ADD16C,0.035000*%
%TD*%
%TA.AperFunction,ViaPad*%
%ADD17C,1.270000*%
%TD*%
%TA.AperFunction,Conductor*%
%ADD18C,0.254000*%
%TD*%
%TA.AperFunction,Conductor*%
%ADD19C,1.016000*%
%TD*%
%TA.AperFunction,Conductor*%
%ADD20C,0.508000*%
%TD*%
G04 APERTURE END LIST*
D10*
%TO.P,R7,1*%
%TO.N,Net-(R7-Pad1)*%
X181464284Y-77922066D03*
%TO.P,R7,2*%
%TO.N,VCC*%
X181464284Y-77282066D03*
%TD*%
D11*
%TO.P,btn_7,1,1*%
%TO.N,/Button Module6/data*%
X175614284Y-80027066D03*
%TO.P,btn_7,2,2*%
%TO.N,Net-(R7-Pad1)*%
X181464284Y-80027066D03*
%TO.P,btn_7,3,3*%
%TO.N,unconnected-(btn_7-Pad3)*%
X175614284Y-83027066D03*
%TO.P,btn_7,4,4*%
%TO.N,GND*%
X181464284Y-83027066D03*
%TD*%
D10*
%TO.P,R5,1*%
%TO.N,Net-(R5-Pad1)*%
X145132856Y-77922066D03*
%TO.P,R5,2*%
%TO.N,VCC*%
X145132856Y-77282066D03*
%TD*%
D11*
%TO.P,btn_5,4,4*%
%TO.N,GND*%
X145132856Y-83027066D03*
%TO.P,btn_5,3,3*%
%TO.N,unconnected-(btn_5-Pad3)*%
X139282856Y-83027066D03*
%TO.P,btn_5,2,2*%
%TO.N,Net-(R5-Pad1)*%
X145132856Y-80027066D03*
%TO.P,btn_5,1,1*%
%TO.N,/Button Module4/data*%
X139282856Y-80027066D03*
%TD*%
D10*
%TO.P,R8,1*%
%TO.N,Net-(R8-Pad1)*%
X199614296Y-77922066D03*
%TO.P,R8,2*%
%TO.N,VCC*%
X199614296Y-77282066D03*
%TD*%
D11*
%TO.P,btn_8,1,1*%
%TO.N,/Button Module7/data*%
X193780000Y-80027066D03*
%TO.P,btn_8,2,2*%
%TO.N,Net-(R8-Pad1)*%
X199630000Y-80027066D03*
%TO.P,btn_8,3,3*%
%TO.N,unconnected-(btn_8-Pad3)*%
X193780000Y-83027066D03*
%TO.P,btn_8,4,4*%
%TO.N,GND*%
X199630000Y-83027066D03*
%TD*%
%TO.P,btn_4,1,1*%
%TO.N,/Button Module3/data*%
X121117142Y-80027066D03*
%TO.P,btn_4,2,2*%
%TO.N,Net-(R4-Pad1)*%
X126967142Y-80027066D03*
%TO.P,btn_4,3,3*%
%TO.N,unconnected-(btn_4-Pad3)*%
X121117142Y-83027066D03*
%TO.P,btn_4,4,4*%
%TO.N,GND*%
X126967142Y-83027066D03*
%TD*%
D10*
%TO.P,R4,1*%
%TO.N,Net-(R4-Pad1)*%
X126967142Y-77922066D03*
%TO.P,R4,2*%
%TO.N,VCC*%
X126967142Y-77282066D03*
%TD*%
%TO.P,R1,2*%
%TO.N,VCC*%
X72470000Y-77282066D03*
%TO.P,R1,1*%
%TO.N,Net-(R1-Pad1)*%
X72470000Y-77922066D03*
%TD*%
D11*
%TO.P,btn_1,4,4*%
%TO.N,GND*%
X72470000Y-83027066D03*
%TO.P,btn_1,3,3*%
%TO.N,unconnected-(btn_1-Pad3)*%
X66620000Y-83027066D03*
%TO.P,btn_1,2,2*%
%TO.N,Net-(R1-Pad1)*%
X72470000Y-80027066D03*
%TO.P,btn_1,1,1*%
%TO.N,/Button Module/data*%
X66620000Y-80027066D03*
%TD*%
D10*
%TO.P,R2,1*%
%TO.N,Net-(R2-Pad1)*%
X90618574Y-77922066D03*
%TO.P,R2,2*%
%TO.N,VCC*%
X90618574Y-77282066D03*
%TD*%
D11*
%TO.P,btn_2,1,1*%
%TO.N,/Button Module1/data*%
X84785714Y-80027066D03*
%TO.P,btn_2,2,2*%
%TO.N,Net-(R2-Pad1)*%
X90635714Y-80027066D03*
%TO.P,btn_2,3,3*%
%TO.N,unconnected-(btn_2-Pad3)*%
X84785714Y-83027066D03*
%TO.P,btn_2,4,4*%
%TO.N,GND*%
X90635714Y-83027066D03*
%TD*%
%TO.P,btn_3,1,1*%
%TO.N,/Button Module2/data*%
X102951428Y-80027066D03*
%TO.P,btn_3,2,2*%
%TO.N,Net-(R3-Pad1)*%
X108801428Y-80027066D03*
%TO.P,btn_3,3,3*%
%TO.N,unconnected-(btn_3-Pad3)*%
X102951428Y-83027066D03*
%TO.P,btn_3,4,4*%
%TO.N,GND*%
X108801428Y-83027066D03*
%TD*%
D10*
%TO.P,R3,2*%
%TO.N,VCC*%
X108801428Y-77282066D03*
%TO.P,R3,1*%
%TO.N,Net-(R3-Pad1)*%
X108801428Y-77922066D03*
%TD*%
D11*
%TO.P,btn_6,1,1*%
%TO.N,/Button Module5/data*%
X157448570Y-80027066D03*
%TO.P,btn_6,2,2*%
%TO.N,Net-(R6-Pad1)*%
X163298570Y-80027066D03*
%TO.P,btn_6,3,3*%
%TO.N,unconnected-(btn_6-Pad3)*%
X157448570Y-83027066D03*
%TO.P,btn_6,4,4*%
%TO.N,GND*%
X163298570Y-83027066D03*
%TD*%
D10*
%TO.P,R6,1*%
%TO.N,Net-(R6-Pad1)*%
X163298570Y-77922066D03*
%TO.P,R6,2*%
%TO.N,VCC*%
X163298570Y-77282066D03*
%TD*%
D12*
%TO.P,solder_out1,5,Pin_5*%
%TO.N,/DATA_OUT*%
X60245001Y-87630000D03*
%TO.P,solder_out1,4,Pin_4*%
%TO.N,/DATA_CLK*%
X60245001Y-85090000D03*
%TO.P,solder_out1,3,Pin_3*%
%TO.N,/DATA_LOAD*%
X60245001Y-82550000D03*
%TO.P,solder_out1,2,Pin_2*%
%TO.N,VCC*%
X60245001Y-80010000D03*
D13*
%TO.P,solder_out1,1,Pin_1*%
%TO.N,GND*%
X60245001Y-77470000D03*
%TD*%
D12*
%TO.P,solder_in1,5,Pin_5*%
%TO.N,/DATA_IN*%
X206454999Y-87630000D03*
%TO.P,solder_in1,4,Pin_4*%
%TO.N,/DATA_CLK*%
X206454999Y-85090000D03*
%TO.P,solder_in1,3,Pin_3*%
%TO.N,/DATA_LOAD*%
X206454999Y-82550000D03*
%TO.P,solder_in1,2,Pin_2*%
%TO.N,VCC*%
X206454999Y-80010000D03*
D13*
%TO.P,solder_in1,1,Pin_1*%
%TO.N,GND*%
X206454999Y-77470000D03*
%TD*%
D14*
%TO.P,U1,17*%
%TO.N,N/C*%
X134550000Y-81537500D03*
X134550000Y-83937500D03*
D15*
X133350000Y-82737500D03*
D14*
X132150000Y-81537500D03*
X132150000Y-83937500D03*
%TD*%
D16*
%TO.N,/DATA_LOAD*%
X149352000Y-76911200D03*
X156464000Y-76962000D03*
%TO.N,/DATA_CLK*%
X148742400Y-77774800D03*
X155143200Y-77774800D03*
%TO.N,Net-(SW1-B)*%
X127914400Y-87884000D03*
X130352800Y-87833200D03*
%TO.N,/DATA_LOAD*%
X76047600Y-78536800D03*
X82550000Y-78536800D03*
%TO.N,/DATA_CLK*%
X138226800Y-81178400D03*
%TO.N,/DATA_LOAD*%
X68732400Y-86055200D03*
%TO.N,/DATA_OUT*%
X67564000Y-87782400D03*
%TO.N,/DATA_CLK*%
X69596000Y-88036400D03*
%TO.N,/Button Module7/data*%
X165811200Y-82804000D03*
%TO.N,/Button Module6/data*%
X157734000Y-81838800D03*
%TO.N,/Button Module5/data*%
X155549600Y-81940400D03*
%TO.N,/Button Module4/data*%
X139344400Y-81635600D03*
%TO.N,/Button Module3/data*%
X125374400Y-81127600D03*
%TO.N,/Button Module2/data*%
X123698000Y-81229200D03*
%TO.N,/Button Module1/data*%
X128879600Y-83058000D03*
%TO.N,/Button Module/data*%
X128219200Y-83718400D03*
%TO.N,VCC*%
X130454400Y-79146400D03*
D17*
%TO.N,GND*%
X199593200Y-89509600D03*
X181559200Y-89509600D03*
X163271200Y-89509600D03*
X145135600Y-89509600D03*
X127000000Y-89509600D03*
X108813600Y-89509600D03*
X90627200Y-89509600D03*
X72491600Y-89615900D03*
%TO.N,VCC*%
X202692000Y-75438000D03*
X63500000Y-80010000D03*
%TD*%
D18*
%TO.N,/DATA_LOAD*%
X149352000Y-76911200D02*
X156413200Y-76911200D01*
X156413200Y-76911200D02*
X156464000Y-76962000D01*
%TO.N,/DATA_CLK*%
X148742400Y-77774800D02*
X155143200Y-77774800D01*
%TO.N,Net-(SW1-B)*%
X127914400Y-87884000D02*
X130302000Y-87884000D01*
X130302000Y-87884000D02*
X130352800Y-87833200D01*
%TO.N,/DATA_LOAD*%
X82550000Y-78536800D02*
X76047600Y-78536800D01*
%TO.N,/DATA_CLK*%
X69596000Y-88036400D02*
X71396200Y-89836600D01*
X71396200Y-89836600D02*
X71396200Y-89880974D01*
X71396200Y-89880974D02*
X72093126Y-90577900D01*
X72093126Y-90577900D02*
X128979700Y-90577900D01*
X138226800Y-81330800D02*
X138226800Y-81178400D01*
X128979700Y-90577900D02*
X138226800Y-81330800D01*
X61664201Y-86509200D02*
X60245001Y-85090000D01*
X69596000Y-88036400D02*
X68068800Y-86509200D01*
X68068800Y-86509200D02*
X61664201Y-86509200D01*
%TO.N,/DATA_LOAD*%
X68732400Y-86055200D02*
X63750201Y-86055200D01*
X63750201Y-86055200D02*
X60245001Y-82550000D01*
%TO.N,/DATA_OUT*%
X67411600Y-87630000D02*
X60245001Y-87630000D01*
X67564000Y-87782400D02*
X67411600Y-87630000D01*
%TO.N,/Button Module7/data*%
X193780000Y-80027066D02*
X193003000Y-80804066D01*
X193003000Y-80804066D02*
X176040734Y-80804066D01*
X176040734Y-80804066D02*
X174040800Y-82804000D01*
X174040800Y-82804000D02*
X165811200Y-82804000D01*
%TO.N,/Button Module6/data*%
X175614284Y-80027066D02*
X173769350Y-81872000D01*
X157767200Y-81872000D02*
X157734000Y-81838800D01*
X173769350Y-81872000D02*
X157767200Y-81872000D01*
%TO.N,/Button Module5/data*%
X157448570Y-80027066D02*
X155549600Y-81926036D01*
X155549600Y-81926036D02*
X155549600Y-81940400D01*
%TO.N,/Button Module4/data*%
X139282856Y-80027066D02*
X139282856Y-81574056D01*
X139282856Y-81574056D02*
X139344400Y-81635600D01*
%TO.N,/Button Module3/data*%
X121117142Y-80027066D02*
X124273866Y-80027066D01*
X124273866Y-80027066D02*
X125374400Y-81127600D01*
%TO.N,/Button Module2/data*%
X102951428Y-80027066D02*
X104153562Y-81229200D01*
X104153562Y-81229200D02*
X123698000Y-81229200D01*
%TO.N,/Button Module/data*%
X66620000Y-80027066D02*
X68843000Y-82250066D01*
X127652022Y-82250066D02*
X128219200Y-82817244D01*
X68843000Y-82250066D02*
X127652022Y-82250066D01*
X128219200Y-82817244D02*
X128219200Y-83718400D01*
%TO.N,/Button Module1/data*%
X84785714Y-80027066D02*
X86554714Y-81796066D01*
X86554714Y-81796066D02*
X127840074Y-81796066D01*
X127840074Y-81796066D02*
X128879600Y-82835592D01*
X128879600Y-82835592D02*
X128879600Y-83058000D01*
%TO.N,VCC*%
X130454400Y-79146400D02*
X130454400Y-75438000D01*
D19*
X126873000Y-75438000D02*
X130454400Y-75438000D01*
X181457600Y-75438000D02*
X199593200Y-75438000D01*
X199593200Y-75438000D02*
X202692000Y-75438000D01*
D18*
X199614296Y-77282066D02*
X199614296Y-75459096D01*
X199614296Y-75459096D02*
X199593200Y-75438000D01*
%TO.N,Net-(R8-Pad1)*%
X199630000Y-80027066D02*
X199630000Y-77937770D01*
X199630000Y-77937770D02*
X199614296Y-77922066D01*
D19*
%TO.N,VCC*%
X163322000Y-75438000D02*
X181457600Y-75438000D01*
D18*
X181464284Y-77282066D02*
X181464284Y-75444684D01*
X181464284Y-75444684D02*
X181457600Y-75438000D01*
%TO.N,Net-(R7-Pad1)*%
X181464284Y-80027066D02*
X181464284Y-77922066D01*
D19*
%TO.N,VCC*%
X130454400Y-75438000D02*
X145135600Y-75438000D01*
D18*
%TO.N,/Button Module1/data*%
X84785714Y-80027066D02*
X84785714Y-80061314D01*
D20*
%TO.N,GND*%
X199630000Y-89472800D02*
X199593200Y-89509600D01*
X199630000Y-83027066D02*
X199630000Y-89472800D01*
X181464284Y-89313084D02*
X181559200Y-89408000D01*
X181464284Y-83027066D02*
X181464284Y-89313084D01*
X163298570Y-89025030D02*
X163271200Y-89052400D01*
X163298570Y-83027066D02*
X163298570Y-89025030D01*
X145132856Y-89049656D02*
X145135600Y-89052400D01*
X145132856Y-83027066D02*
X145132856Y-89049656D01*
X126967142Y-89222742D02*
X127000000Y-89255600D01*
X126967142Y-83027066D02*
X126967142Y-89222742D01*
X108801428Y-89040228D02*
X108813600Y-89052400D01*
X108801428Y-83027066D02*
X108801428Y-89040228D01*
X90635714Y-88891486D02*
X90627200Y-88900000D01*
X90635714Y-83027066D02*
X90635714Y-88891486D01*
X72470000Y-89132400D02*
X72491600Y-89154000D01*
X72470000Y-83027066D02*
X72470000Y-89132400D01*
X72491600Y-83048666D02*
X72470000Y-83027066D01*
D19*
%TO.N,VCC*%
X145135600Y-75438000D02*
X163322000Y-75438000D01*
D18*
X163298570Y-75461430D02*
X163322000Y-75438000D01*
X163298570Y-77282066D02*
X163298570Y-75461430D01*
%TO.N,Net-(R6-Pad1)*%
X163298570Y-77922066D02*
X163298570Y-80027066D01*
%TO.N,VCC*%
X145132856Y-77282066D02*
X145132856Y-75440744D01*
X145132856Y-75440744D02*
X145135600Y-75438000D01*
%TO.N,Net-(R5-Pad1)*%
X145132856Y-80027066D02*
X145132856Y-77922066D01*
%TO.N,Net-(R1-Pad1)*%
X72470000Y-80027066D02*
X72470000Y-77922066D01*
%TO.N,Net-(R2-Pad1)*%
X90635714Y-80027066D02*
X90635714Y-77939206D01*
X90635714Y-77939206D02*
X90618574Y-77922066D01*
%TO.N,Net-(R3-Pad1)*%
X108801428Y-80027066D02*
X108801428Y-77922066D01*
%TO.N,Net-(R4-Pad1)*%
X126967142Y-80027066D02*
X126967142Y-77922066D01*
D19*
%TO.N,VCC*%
X108839000Y-75438000D02*
X126873000Y-75438000D01*
D18*
X126967142Y-77282066D02*
X126967142Y-75532142D01*
X126967142Y-75532142D02*
X126873000Y-75438000D01*
D19*
X90805000Y-75438000D02*
X108839000Y-75438000D01*
D18*
X108801428Y-75475572D02*
X108839000Y-75438000D01*
X108801428Y-77282066D02*
X108801428Y-75475572D01*
D19*
X72517000Y-75438000D02*
X90805000Y-75438000D01*
D18*
X90618574Y-75624426D02*
X90805000Y-75438000D01*
X90618574Y-77282066D02*
X90618574Y-75624426D01*
D19*
X68072000Y-75438000D02*
X72517000Y-75438000D01*
D18*
X72470000Y-77282066D02*
X72470000Y-75485000D01*
X72470000Y-75485000D02*
X72517000Y-75438000D01*
D19*
X63500000Y-80010000D02*
X68072000Y-75438000D01*
%TD*%
M02*
