%TF.GenerationSoftware,KiCad,Pcbnew,8.0.1*%
%TF.CreationDate,2024-04-30T08:05:45-04:00*%
%TF.ProjectId,bombay_beats,626f6d62-6179-45f6-9265-6174732e6b69,rev?*%
%TF.SameCoordinates,Original*%
%TF.FileFunction,Legend,Top*%
%TF.FilePolarity,Positive*%
%FSLAX46Y46*%
G04 Gerber Fmt 4.6, Leading zero omitted, Abs format (unit mm)*
G04 Created by KiCad (PCBNEW 8.0.1) date 2024-04-30 08:05:45*
%MOMM*%
%LPD*%
G01*
G04 APERTURE LIST*
%ADD10C,0.150000*%
%ADD11C,0.100000*%
%ADD12C,0.120000*%
G04 APERTURE END LIST*
D10*
X12158332Y97800D02*
X12253570Y50180D01*
X12253570Y50180D02*
X12444046Y50180D01*
X12444046Y50180D02*
X12539284Y97800D01*
X12539284Y97800D02*
X12586903Y193038D01*
X12586903Y193038D02*
X12586903Y240657D01*
X12586903Y240657D02*
X12539284Y335895D01*
X12539284Y335895D02*
X12444046Y383514D01*
X12444046Y383514D02*
X12301189Y383514D01*
X12301189Y383514D02*
X12205951Y431133D01*
X12205951Y431133D02*
X12158332Y526371D01*
X12158332Y526371D02*
X12158332Y573990D01*
X12158332Y573990D02*
X12205951Y669228D01*
X12205951Y669228D02*
X12301189Y716847D01*
X12301189Y716847D02*
X12444046Y716847D01*
X12444046Y716847D02*
X12539284Y669228D01*
X13158332Y50180D02*
X13063094Y97800D01*
X13063094Y97800D02*
X13015475Y145419D01*
X13015475Y145419D02*
X12967856Y240657D01*
X12967856Y240657D02*
X12967856Y526371D01*
X12967856Y526371D02*
X13015475Y621609D01*
X13015475Y621609D02*
X13063094Y669228D01*
X13063094Y669228D02*
X13158332Y716847D01*
X13158332Y716847D02*
X13301189Y716847D01*
X13301189Y716847D02*
X13396427Y669228D01*
X13396427Y669228D02*
X13444046Y621609D01*
X13444046Y621609D02*
X13491665Y526371D01*
X13491665Y526371D02*
X13491665Y240657D01*
X13491665Y240657D02*
X13444046Y145419D01*
X13444046Y145419D02*
X13396427Y97800D01*
X13396427Y97800D02*
X13301189Y50180D01*
X13301189Y50180D02*
X13158332Y50180D01*
X14063094Y50180D02*
X13967856Y97800D01*
X13967856Y97800D02*
X13920237Y193038D01*
X13920237Y193038D02*
X13920237Y1050180D01*
X14872618Y50180D02*
X14872618Y1050180D01*
X14872618Y97800D02*
X14777380Y50180D01*
X14777380Y50180D02*
X14586904Y50180D01*
X14586904Y50180D02*
X14491666Y97800D01*
X14491666Y97800D02*
X14444047Y145419D01*
X14444047Y145419D02*
X14396428Y240657D01*
X14396428Y240657D02*
X14396428Y526371D01*
X14396428Y526371D02*
X14444047Y621609D01*
X14444047Y621609D02*
X14491666Y669228D01*
X14491666Y669228D02*
X14586904Y716847D01*
X14586904Y716847D02*
X14777380Y716847D01*
X14777380Y716847D02*
X14872618Y669228D01*
X15729761Y97800D02*
X15634523Y50180D01*
X15634523Y50180D02*
X15444047Y50180D01*
X15444047Y50180D02*
X15348809Y97800D01*
X15348809Y97800D02*
X15301190Y193038D01*
X15301190Y193038D02*
X15301190Y573990D01*
X15301190Y573990D02*
X15348809Y669228D01*
X15348809Y669228D02*
X15444047Y716847D01*
X15444047Y716847D02*
X15634523Y716847D01*
X15634523Y716847D02*
X15729761Y669228D01*
X15729761Y669228D02*
X15777380Y573990D01*
X15777380Y573990D02*
X15777380Y478752D01*
X15777380Y478752D02*
X15301190Y383514D01*
X16205952Y50180D02*
X16205952Y716847D01*
X16205952Y526371D02*
X16253571Y621609D01*
X16253571Y621609D02*
X16301190Y669228D01*
X16301190Y669228D02*
X16396428Y716847D01*
X16396428Y716847D02*
X16491666Y716847D01*
X16586905Y-45057D02*
X17348809Y-45057D01*
X17729762Y50180D02*
X17634524Y97800D01*
X17634524Y97800D02*
X17586905Y145419D01*
X17586905Y145419D02*
X17539286Y240657D01*
X17539286Y240657D02*
X17539286Y526371D01*
X17539286Y526371D02*
X17586905Y621609D01*
X17586905Y621609D02*
X17634524Y669228D01*
X17634524Y669228D02*
X17729762Y716847D01*
X17729762Y716847D02*
X17872619Y716847D01*
X17872619Y716847D02*
X17967857Y669228D01*
X17967857Y669228D02*
X18015476Y621609D01*
X18015476Y621609D02*
X18063095Y526371D01*
X18063095Y526371D02*
X18063095Y240657D01*
X18063095Y240657D02*
X18015476Y145419D01*
X18015476Y145419D02*
X17967857Y97800D01*
X17967857Y97800D02*
X17872619Y50180D01*
X17872619Y50180D02*
X17729762Y50180D01*
X18920238Y716847D02*
X18920238Y50180D01*
X18491667Y716847D02*
X18491667Y193038D01*
X18491667Y193038D02*
X18539286Y97800D01*
X18539286Y97800D02*
X18634524Y50180D01*
X18634524Y50180D02*
X18777381Y50180D01*
X18777381Y50180D02*
X18872619Y97800D01*
X18872619Y97800D02*
X18920238Y145419D01*
X19253572Y716847D02*
X19634524Y716847D01*
X19396429Y1050180D02*
X19396429Y193038D01*
X19396429Y193038D02*
X19444048Y97800D01*
X19444048Y97800D02*
X19539286Y50180D01*
X19539286Y50180D02*
X19634524Y50180D01*
X20491667Y50180D02*
X19920239Y50180D01*
X20205953Y50180D02*
X20205953Y1050180D01*
X20205953Y1050180D02*
X20110715Y907323D01*
X20110715Y907323D02*
X20015477Y812085D01*
X20015477Y812085D02*
X19920239Y764466D01*
X8008333Y97800D02*
X8103571Y50180D01*
X8103571Y50180D02*
X8294047Y50180D01*
X8294047Y50180D02*
X8389285Y97800D01*
X8389285Y97800D02*
X8436904Y193038D01*
X8436904Y193038D02*
X8436904Y240657D01*
X8436904Y240657D02*
X8389285Y335895D01*
X8389285Y335895D02*
X8294047Y383514D01*
X8294047Y383514D02*
X8151190Y383514D01*
X8151190Y383514D02*
X8055952Y431133D01*
X8055952Y431133D02*
X8008333Y526371D01*
X8008333Y526371D02*
X8008333Y573990D01*
X8008333Y573990D02*
X8055952Y669228D01*
X8055952Y669228D02*
X8151190Y716847D01*
X8151190Y716847D02*
X8294047Y716847D01*
X8294047Y716847D02*
X8389285Y669228D01*
X9008333Y50180D02*
X8913095Y97800D01*
X8913095Y97800D02*
X8865476Y145419D01*
X8865476Y145419D02*
X8817857Y240657D01*
X8817857Y240657D02*
X8817857Y526371D01*
X8817857Y526371D02*
X8865476Y621609D01*
X8865476Y621609D02*
X8913095Y669228D01*
X8913095Y669228D02*
X9008333Y716847D01*
X9008333Y716847D02*
X9151190Y716847D01*
X9151190Y716847D02*
X9246428Y669228D01*
X9246428Y669228D02*
X9294047Y621609D01*
X9294047Y621609D02*
X9341666Y526371D01*
X9341666Y526371D02*
X9341666Y240657D01*
X9341666Y240657D02*
X9294047Y145419D01*
X9294047Y145419D02*
X9246428Y97800D01*
X9246428Y97800D02*
X9151190Y50180D01*
X9151190Y50180D02*
X9008333Y50180D01*
X9913095Y50180D02*
X9817857Y97800D01*
X9817857Y97800D02*
X9770238Y193038D01*
X9770238Y193038D02*
X9770238Y1050180D01*
X10722619Y50180D02*
X10722619Y1050180D01*
X10722619Y97800D02*
X10627381Y50180D01*
X10627381Y50180D02*
X10436905Y50180D01*
X10436905Y50180D02*
X10341667Y97800D01*
X10341667Y97800D02*
X10294048Y145419D01*
X10294048Y145419D02*
X10246429Y240657D01*
X10246429Y240657D02*
X10246429Y526371D01*
X10246429Y526371D02*
X10294048Y621609D01*
X10294048Y621609D02*
X10341667Y669228D01*
X10341667Y669228D02*
X10436905Y716847D01*
X10436905Y716847D02*
X10627381Y716847D01*
X10627381Y716847D02*
X10722619Y669228D01*
X11579762Y97800D02*
X11484524Y50180D01*
X11484524Y50180D02*
X11294048Y50180D01*
X11294048Y50180D02*
X11198810Y97800D01*
X11198810Y97800D02*
X11151191Y193038D01*
X11151191Y193038D02*
X11151191Y573990D01*
X11151191Y573990D02*
X11198810Y669228D01*
X11198810Y669228D02*
X11294048Y716847D01*
X11294048Y716847D02*
X11484524Y716847D01*
X11484524Y716847D02*
X11579762Y669228D01*
X11579762Y669228D02*
X11627381Y573990D01*
X11627381Y573990D02*
X11627381Y478752D01*
X11627381Y478752D02*
X11151191Y383514D01*
X12055953Y50180D02*
X12055953Y716847D01*
X12055953Y526371D02*
X12103572Y621609D01*
X12103572Y621609D02*
X12151191Y669228D01*
X12151191Y669228D02*
X12246429Y716847D01*
X12246429Y716847D02*
X12341667Y716847D01*
X12436906Y-45057D02*
X13198810Y-45057D01*
X13436906Y50180D02*
X13436906Y716847D01*
X13436906Y1050180D02*
X13389287Y1002561D01*
X13389287Y1002561D02*
X13436906Y954942D01*
X13436906Y954942D02*
X13484525Y1002561D01*
X13484525Y1002561D02*
X13436906Y1050180D01*
X13436906Y1050180D02*
X13436906Y954942D01*
X13913096Y716847D02*
X13913096Y50180D01*
X13913096Y621609D02*
X13960715Y669228D01*
X13960715Y669228D02*
X14055953Y716847D01*
X14055953Y716847D02*
X14198810Y716847D01*
X14198810Y716847D02*
X14294048Y669228D01*
X14294048Y669228D02*
X14341667Y573990D01*
X14341667Y573990D02*
X14341667Y50180D01*
X15341667Y50180D02*
X14770239Y50180D01*
X15055953Y50180D02*
X15055953Y1050180D01*
X15055953Y1050180D02*
X14960715Y907323D01*
X14960715Y907323D02*
X14865477Y812085D01*
X14865477Y812085D02*
X14770239Y764466D01*
X1686904Y-6723152D02*
X1686904Y-7580295D01*
X1686904Y-7580295D02*
X1639285Y-7675533D01*
X1639285Y-7675533D02*
X1544047Y-7723152D01*
X1544047Y-7723152D02*
X1496428Y-7723152D01*
X1686904Y-6389819D02*
X1639285Y-6437438D01*
X1639285Y-6437438D02*
X1686904Y-6485057D01*
X1686904Y-6485057D02*
X1734523Y-6437438D01*
X1734523Y-6437438D02*
X1686904Y-6389819D01*
X1686904Y-6389819D02*
X1686904Y-6485057D01*
X2115475Y-7342200D02*
X2210713Y-7389819D01*
X2210713Y-7389819D02*
X2401189Y-7389819D01*
X2401189Y-7389819D02*
X2496427Y-7342200D01*
X2496427Y-7342200D02*
X2544046Y-7246961D01*
X2544046Y-7246961D02*
X2544046Y-7199342D01*
X2544046Y-7199342D02*
X2496427Y-7104104D01*
X2496427Y-7104104D02*
X2401189Y-7056485D01*
X2401189Y-7056485D02*
X2258332Y-7056485D01*
X2258332Y-7056485D02*
X2163094Y-7008866D01*
X2163094Y-7008866D02*
X2115475Y-6913628D01*
X2115475Y-6913628D02*
X2115475Y-6866009D01*
X2115475Y-6866009D02*
X2163094Y-6770771D01*
X2163094Y-6770771D02*
X2258332Y-6723152D01*
X2258332Y-6723152D02*
X2401189Y-6723152D01*
X2401189Y-6723152D02*
X2496427Y-6770771D01*
X2829761Y-6723152D02*
X3210713Y-6723152D01*
X2972618Y-6389819D02*
X2972618Y-7246961D01*
X2972618Y-7246961D02*
X3020237Y-7342200D01*
X3020237Y-7342200D02*
X3115475Y-7389819D01*
X3115475Y-7389819D02*
X3210713Y-7389819D01*
X3305952Y-7485057D02*
X4067856Y-7485057D01*
X4448809Y-7389819D02*
X4353571Y-7342200D01*
X4353571Y-7342200D02*
X4305952Y-7294580D01*
X4305952Y-7294580D02*
X4258333Y-7199342D01*
X4258333Y-7199342D02*
X4258333Y-6913628D01*
X4258333Y-6913628D02*
X4305952Y-6818390D01*
X4305952Y-6818390D02*
X4353571Y-6770771D01*
X4353571Y-6770771D02*
X4448809Y-6723152D01*
X4448809Y-6723152D02*
X4591666Y-6723152D01*
X4591666Y-6723152D02*
X4686904Y-6770771D01*
X4686904Y-6770771D02*
X4734523Y-6818390D01*
X4734523Y-6818390D02*
X4782142Y-6913628D01*
X4782142Y-6913628D02*
X4782142Y-7199342D01*
X4782142Y-7199342D02*
X4734523Y-7294580D01*
X4734523Y-7294580D02*
X4686904Y-7342200D01*
X4686904Y-7342200D02*
X4591666Y-7389819D01*
X4591666Y-7389819D02*
X4448809Y-7389819D01*
X5639285Y-6723152D02*
X5639285Y-7389819D01*
X5210714Y-6723152D02*
X5210714Y-7246961D01*
X5210714Y-7246961D02*
X5258333Y-7342200D01*
X5258333Y-7342200D02*
X5353571Y-7389819D01*
X5353571Y-7389819D02*
X5496428Y-7389819D01*
X5496428Y-7389819D02*
X5591666Y-7342200D01*
X5591666Y-7342200D02*
X5639285Y-7294580D01*
X5972619Y-6723152D02*
X6353571Y-6723152D01*
X6115476Y-6389819D02*
X6115476Y-7246961D01*
X6115476Y-7246961D02*
X6163095Y-7342200D01*
X6163095Y-7342200D02*
X6258333Y-7389819D01*
X6258333Y-7389819D02*
X6353571Y-7389819D01*
X7210714Y-7389819D02*
X6639286Y-7389819D01*
X6925000Y-7389819D02*
X6925000Y-6389819D01*
X6925000Y-6389819D02*
X6829762Y-6532676D01*
X6829762Y-6532676D02*
X6734524Y-6627914D01*
X6734524Y-6627914D02*
X6639286Y-6675533D01*
X2186905Y886847D02*
X2186905Y29704D01*
X2186905Y29704D02*
X2139286Y-65533D01*
X2139286Y-65533D02*
X2044048Y-113152D01*
X2044048Y-113152D02*
X1996429Y-113152D01*
X2186905Y1220180D02*
X2139286Y1172561D01*
X2139286Y1172561D02*
X2186905Y1124942D01*
X2186905Y1124942D02*
X2234524Y1172561D01*
X2234524Y1172561D02*
X2186905Y1220180D01*
X2186905Y1220180D02*
X2186905Y1124942D01*
X2615476Y267800D02*
X2710714Y220180D01*
X2710714Y220180D02*
X2901190Y220180D01*
X2901190Y220180D02*
X2996428Y267800D01*
X2996428Y267800D02*
X3044047Y363038D01*
X3044047Y363038D02*
X3044047Y410657D01*
X3044047Y410657D02*
X2996428Y505895D01*
X2996428Y505895D02*
X2901190Y553514D01*
X2901190Y553514D02*
X2758333Y553514D01*
X2758333Y553514D02*
X2663095Y601133D01*
X2663095Y601133D02*
X2615476Y696371D01*
X2615476Y696371D02*
X2615476Y743990D01*
X2615476Y743990D02*
X2663095Y839228D01*
X2663095Y839228D02*
X2758333Y886847D01*
X2758333Y886847D02*
X2901190Y886847D01*
X2901190Y886847D02*
X2996428Y839228D01*
X3329762Y886847D02*
X3710714Y886847D01*
X3472619Y1220180D02*
X3472619Y363038D01*
X3472619Y363038D02*
X3520238Y267800D01*
X3520238Y267800D02*
X3615476Y220180D01*
X3615476Y220180D02*
X3710714Y220180D01*
X3805953Y124942D02*
X4567857Y124942D01*
X4805953Y220180D02*
X4805953Y886847D01*
X4805953Y1220180D02*
X4758334Y1172561D01*
X4758334Y1172561D02*
X4805953Y1124942D01*
X4805953Y1124942D02*
X4853572Y1172561D01*
X4853572Y1172561D02*
X4805953Y1220180D01*
X4805953Y1220180D02*
X4805953Y1124942D01*
X5282143Y886847D02*
X5282143Y220180D01*
X5282143Y791609D02*
X5329762Y839228D01*
X5329762Y839228D02*
X5425000Y886847D01*
X5425000Y886847D02*
X5567857Y886847D01*
X5567857Y886847D02*
X5663095Y839228D01*
X5663095Y839228D02*
X5710714Y743990D01*
X5710714Y743990D02*
X5710714Y220180D01*
X6710714Y220180D02*
X6139286Y220180D01*
X6425000Y220180D02*
X6425000Y1220180D01*
X6425000Y1220180D02*
X6329762Y1077323D01*
X6329762Y1077323D02*
X6234524Y982085D01*
X6234524Y982085D02*
X6139286Y934466D01*
D11*
X80679667Y-84879866D02*
X80822524Y-84927485D01*
X80822524Y-84927485D02*
X81060619Y-84927485D01*
X81060619Y-84927485D02*
X81155857Y-84879866D01*
X81155857Y-84879866D02*
X81203476Y-84832246D01*
X81203476Y-84832246D02*
X81251095Y-84737008D01*
X81251095Y-84737008D02*
X81251095Y-84641770D01*
X81251095Y-84641770D02*
X81203476Y-84546532D01*
X81203476Y-84546532D02*
X81155857Y-84498913D01*
X81155857Y-84498913D02*
X81060619Y-84451294D01*
X81060619Y-84451294D02*
X80870143Y-84403675D01*
X80870143Y-84403675D02*
X80774905Y-84356056D01*
X80774905Y-84356056D02*
X80727286Y-84308437D01*
X80727286Y-84308437D02*
X80679667Y-84213199D01*
X80679667Y-84213199D02*
X80679667Y-84117961D01*
X80679667Y-84117961D02*
X80727286Y-84022723D01*
X80727286Y-84022723D02*
X80774905Y-83975104D01*
X80774905Y-83975104D02*
X80870143Y-83927485D01*
X80870143Y-83927485D02*
X81108238Y-83927485D01*
X81108238Y-83927485D02*
X81251095Y-83975104D01*
X81584429Y-83927485D02*
X81822524Y-84927485D01*
X81822524Y-84927485D02*
X82013000Y-84213199D01*
X82013000Y-84213199D02*
X82203476Y-84927485D01*
X82203476Y-84927485D02*
X82441572Y-83927485D01*
X83346333Y-84927485D02*
X82774905Y-84927485D01*
X83060619Y-84927485D02*
X83060619Y-83927485D01*
X83060619Y-83927485D02*
X82965381Y-84070342D01*
X82965381Y-84070342D02*
X82870143Y-84165580D01*
X82870143Y-84165580D02*
X82774905Y-84213199D01*
D10*
X131730595Y-80628819D02*
X131730595Y-81438342D01*
X131730595Y-81438342D02*
X131778214Y-81533580D01*
X131778214Y-81533580D02*
X131825833Y-81581200D01*
X131825833Y-81581200D02*
X131921071Y-81628819D01*
X131921071Y-81628819D02*
X132111547Y-81628819D01*
X132111547Y-81628819D02*
X132206785Y-81581200D01*
X132206785Y-81581200D02*
X132254404Y-81533580D01*
X132254404Y-81533580D02*
X132302023Y-81438342D01*
X132302023Y-81438342D02*
X132302023Y-80628819D01*
X133302023Y-81628819D02*
X132730595Y-81628819D01*
X133016309Y-81628819D02*
X133016309Y-80628819D01*
X133016309Y-80628819D02*
X132921071Y-80771676D01*
X132921071Y-80771676D02*
X132825833Y-80866914D01*
X132825833Y-80866914D02*
X132730595Y-80914533D01*
X130971667Y-83426200D02*
X131114524Y-83473819D01*
X131114524Y-83473819D02*
X131352619Y-83473819D01*
X131352619Y-83473819D02*
X131447857Y-83426200D01*
X131447857Y-83426200D02*
X131495476Y-83378580D01*
X131495476Y-83378580D02*
X131543095Y-83283342D01*
X131543095Y-83283342D02*
X131543095Y-83188104D01*
X131543095Y-83188104D02*
X131495476Y-83092866D01*
X131495476Y-83092866D02*
X131447857Y-83045247D01*
X131447857Y-83045247D02*
X131352619Y-82997628D01*
X131352619Y-82997628D02*
X131162143Y-82950009D01*
X131162143Y-82950009D02*
X131066905Y-82902390D01*
X131066905Y-82902390D02*
X131019286Y-82854771D01*
X131019286Y-82854771D02*
X130971667Y-82759533D01*
X130971667Y-82759533D02*
X130971667Y-82664295D01*
X130971667Y-82664295D02*
X131019286Y-82569057D01*
X131019286Y-82569057D02*
X131066905Y-82521438D01*
X131066905Y-82521438D02*
X131162143Y-82473819D01*
X131162143Y-82473819D02*
X131400238Y-82473819D01*
X131400238Y-82473819D02*
X131543095Y-82521438D01*
X131876429Y-82473819D02*
X132114524Y-83473819D01*
X132114524Y-83473819D02*
X132305000Y-82759533D01*
X132305000Y-82759533D02*
X132495476Y-83473819D01*
X132495476Y-83473819D02*
X132733572Y-82473819D01*
X133162143Y-83473819D02*
X133352619Y-83473819D01*
X133352619Y-83473819D02*
X133447857Y-83426200D01*
X133447857Y-83426200D02*
X133495476Y-83378580D01*
X133495476Y-83378580D02*
X133590714Y-83235723D01*
X133590714Y-83235723D02*
X133638333Y-83045247D01*
X133638333Y-83045247D02*
X133638333Y-82664295D01*
X133638333Y-82664295D02*
X133590714Y-82569057D01*
X133590714Y-82569057D02*
X133543095Y-82521438D01*
X133543095Y-82521438D02*
X133447857Y-82473819D01*
X133447857Y-82473819D02*
X133257381Y-82473819D01*
X133257381Y-82473819D02*
X133162143Y-82521438D01*
X133162143Y-82521438D02*
X133114524Y-82569057D01*
X133114524Y-82569057D02*
X133066905Y-82664295D01*
X133066905Y-82664295D02*
X133066905Y-82902390D01*
X133066905Y-82902390D02*
X133114524Y-82997628D01*
X133114524Y-82997628D02*
X133162143Y-83045247D01*
X133162143Y-83045247D02*
X133257381Y-83092866D01*
X133257381Y-83092866D02*
X133447857Y-83092866D01*
X133447857Y-83092866D02*
X133543095Y-83045247D01*
X133543095Y-83045247D02*
X133590714Y-82997628D01*
X133590714Y-82997628D02*
X133638333Y-82902390D01*
X84117819Y-77011732D02*
X83641628Y-77345065D01*
X84117819Y-77583160D02*
X83117819Y-77583160D01*
X83117819Y-77583160D02*
X83117819Y-77202208D01*
X83117819Y-77202208D02*
X83165438Y-77106970D01*
X83165438Y-77106970D02*
X83213057Y-77059351D01*
X83213057Y-77059351D02*
X83308295Y-77011732D01*
X83308295Y-77011732D02*
X83451152Y-77011732D01*
X83451152Y-77011732D02*
X83546390Y-77059351D01*
X83546390Y-77059351D02*
X83594009Y-77106970D01*
X83594009Y-77106970D02*
X83641628Y-77202208D01*
X83641628Y-77202208D02*
X83641628Y-77583160D01*
X84117819Y-76059351D02*
X84117819Y-76630779D01*
X84117819Y-76345065D02*
X83117819Y-76345065D01*
X83117819Y-76345065D02*
X83260676Y-76440303D01*
X83260676Y-76440303D02*
X83355914Y-76535541D01*
X83355914Y-76535541D02*
X83403533Y-76630779D01*
D11*
X167579476Y-84927485D02*
X167579476Y-83927485D01*
X167579476Y-84308437D02*
X167674714Y-84260818D01*
X167674714Y-84260818D02*
X167865190Y-84260818D01*
X167865190Y-84260818D02*
X167960428Y-84308437D01*
X167960428Y-84308437D02*
X168008047Y-84356056D01*
X168008047Y-84356056D02*
X168055666Y-84451294D01*
X168055666Y-84451294D02*
X168055666Y-84737008D01*
X168055666Y-84737008D02*
X168008047Y-84832246D01*
X168008047Y-84832246D02*
X167960428Y-84879866D01*
X167960428Y-84879866D02*
X167865190Y-84927485D01*
X167865190Y-84927485D02*
X167674714Y-84927485D01*
X167674714Y-84927485D02*
X167579476Y-84879866D01*
X168341381Y-84260818D02*
X168722333Y-84260818D01*
X168484238Y-83927485D02*
X168484238Y-84784627D01*
X168484238Y-84784627D02*
X168531857Y-84879866D01*
X168531857Y-84879866D02*
X168627095Y-84927485D01*
X168627095Y-84927485D02*
X168722333Y-84927485D01*
X169055667Y-84260818D02*
X169055667Y-84927485D01*
X169055667Y-84356056D02*
X169103286Y-84308437D01*
X169103286Y-84308437D02*
X169198524Y-84260818D01*
X169198524Y-84260818D02*
X169341381Y-84260818D01*
X169341381Y-84260818D02*
X169436619Y-84308437D01*
X169436619Y-84308437D02*
X169484238Y-84403675D01*
X169484238Y-84403675D02*
X169484238Y-84927485D01*
X169722334Y-85022723D02*
X170484238Y-85022723D01*
X170627096Y-83927485D02*
X171293762Y-83927485D01*
X171293762Y-83927485D02*
X170865191Y-84927485D01*
D10*
X130949580Y-81446666D02*
X130997200Y-81494285D01*
X130997200Y-81494285D02*
X131044819Y-81637142D01*
X131044819Y-81637142D02*
X131044819Y-81732380D01*
X131044819Y-81732380D02*
X130997200Y-81875237D01*
X130997200Y-81875237D02*
X130901961Y-81970475D01*
X130901961Y-81970475D02*
X130806723Y-82018094D01*
X130806723Y-82018094D02*
X130616247Y-82065713D01*
X130616247Y-82065713D02*
X130473390Y-82065713D01*
X130473390Y-82065713D02*
X130282914Y-82018094D01*
X130282914Y-82018094D02*
X130187676Y-81970475D01*
X130187676Y-81970475D02*
X130092438Y-81875237D01*
X130092438Y-81875237D02*
X130044819Y-81732380D01*
X130044819Y-81732380D02*
X130044819Y-81637142D01*
X130044819Y-81637142D02*
X130092438Y-81494285D01*
X130092438Y-81494285D02*
X130140057Y-81446666D01*
X131044819Y-80494285D02*
X131044819Y-81065713D01*
X131044819Y-80779999D02*
X130044819Y-80779999D01*
X130044819Y-80779999D02*
X130187676Y-80875237D01*
X130187676Y-80875237D02*
X130282914Y-80970475D01*
X130282914Y-80970475D02*
X130330533Y-81065713D01*
D11*
X154371476Y-84927485D02*
X154371476Y-83927485D01*
X154371476Y-84308437D02*
X154466714Y-84260818D01*
X154466714Y-84260818D02*
X154657190Y-84260818D01*
X154657190Y-84260818D02*
X154752428Y-84308437D01*
X154752428Y-84308437D02*
X154800047Y-84356056D01*
X154800047Y-84356056D02*
X154847666Y-84451294D01*
X154847666Y-84451294D02*
X154847666Y-84737008D01*
X154847666Y-84737008D02*
X154800047Y-84832246D01*
X154800047Y-84832246D02*
X154752428Y-84879866D01*
X154752428Y-84879866D02*
X154657190Y-84927485D01*
X154657190Y-84927485D02*
X154466714Y-84927485D01*
X154466714Y-84927485D02*
X154371476Y-84879866D01*
X155133381Y-84260818D02*
X155514333Y-84260818D01*
X155276238Y-83927485D02*
X155276238Y-84784627D01*
X155276238Y-84784627D02*
X155323857Y-84879866D01*
X155323857Y-84879866D02*
X155419095Y-84927485D01*
X155419095Y-84927485D02*
X155514333Y-84927485D01*
X155847667Y-84260818D02*
X155847667Y-84927485D01*
X155847667Y-84356056D02*
X155895286Y-84308437D01*
X155895286Y-84308437D02*
X155990524Y-84260818D01*
X155990524Y-84260818D02*
X156133381Y-84260818D01*
X156133381Y-84260818D02*
X156228619Y-84308437D01*
X156228619Y-84308437D02*
X156276238Y-84403675D01*
X156276238Y-84403675D02*
X156276238Y-84927485D01*
X156514334Y-85022723D02*
X157276238Y-85022723D01*
X157942905Y-83927485D02*
X157752429Y-83927485D01*
X157752429Y-83927485D02*
X157657191Y-83975104D01*
X157657191Y-83975104D02*
X157609572Y-84022723D01*
X157609572Y-84022723D02*
X157514334Y-84165580D01*
X157514334Y-84165580D02*
X157466715Y-84356056D01*
X157466715Y-84356056D02*
X157466715Y-84737008D01*
X157466715Y-84737008D02*
X157514334Y-84832246D01*
X157514334Y-84832246D02*
X157561953Y-84879866D01*
X157561953Y-84879866D02*
X157657191Y-84927485D01*
X157657191Y-84927485D02*
X157847667Y-84927485D01*
X157847667Y-84927485D02*
X157942905Y-84879866D01*
X157942905Y-84879866D02*
X157990524Y-84832246D01*
X157990524Y-84832246D02*
X158038143Y-84737008D01*
X158038143Y-84737008D02*
X158038143Y-84498913D01*
X158038143Y-84498913D02*
X157990524Y-84403675D01*
X157990524Y-84403675D02*
X157942905Y-84356056D01*
X157942905Y-84356056D02*
X157847667Y-84308437D01*
X157847667Y-84308437D02*
X157657191Y-84308437D01*
X157657191Y-84308437D02*
X157561953Y-84356056D01*
X157561953Y-84356056D02*
X157514334Y-84403675D01*
X157514334Y-84403675D02*
X157466715Y-84498913D01*
D10*
X158285819Y-77011732D02*
X157809628Y-77345065D01*
X158285819Y-77583160D02*
X157285819Y-77583160D01*
X157285819Y-77583160D02*
X157285819Y-77202208D01*
X157285819Y-77202208D02*
X157333438Y-77106970D01*
X157333438Y-77106970D02*
X157381057Y-77059351D01*
X157381057Y-77059351D02*
X157476295Y-77011732D01*
X157476295Y-77011732D02*
X157619152Y-77011732D01*
X157619152Y-77011732D02*
X157714390Y-77059351D01*
X157714390Y-77059351D02*
X157762009Y-77106970D01*
X157762009Y-77106970D02*
X157809628Y-77202208D01*
X157809628Y-77202208D02*
X157809628Y-77583160D01*
X157285819Y-76154589D02*
X157285819Y-76345065D01*
X157285819Y-76345065D02*
X157333438Y-76440303D01*
X157333438Y-76440303D02*
X157381057Y-76487922D01*
X157381057Y-76487922D02*
X157523914Y-76583160D01*
X157523914Y-76583160D02*
X157714390Y-76630779D01*
X157714390Y-76630779D02*
X158095342Y-76630779D01*
X158095342Y-76630779D02*
X158190580Y-76583160D01*
X158190580Y-76583160D02*
X158238200Y-76535541D01*
X158238200Y-76535541D02*
X158285819Y-76440303D01*
X158285819Y-76440303D02*
X158285819Y-76249827D01*
X158285819Y-76249827D02*
X158238200Y-76154589D01*
X158238200Y-76154589D02*
X158190580Y-76106970D01*
X158190580Y-76106970D02*
X158095342Y-76059351D01*
X158095342Y-76059351D02*
X157857247Y-76059351D01*
X157857247Y-76059351D02*
X157762009Y-76106970D01*
X157762009Y-76106970D02*
X157714390Y-76154589D01*
X157714390Y-76154589D02*
X157666771Y-76249827D01*
X157666771Y-76249827D02*
X157666771Y-76440303D01*
X157666771Y-76440303D02*
X157714390Y-76535541D01*
X157714390Y-76535541D02*
X157762009Y-76583160D01*
X157762009Y-76583160D02*
X157857247Y-76630779D01*
D11*
X119827476Y-84927485D02*
X119827476Y-83927485D01*
X119827476Y-84308437D02*
X119922714Y-84260818D01*
X119922714Y-84260818D02*
X120113190Y-84260818D01*
X120113190Y-84260818D02*
X120208428Y-84308437D01*
X120208428Y-84308437D02*
X120256047Y-84356056D01*
X120256047Y-84356056D02*
X120303666Y-84451294D01*
X120303666Y-84451294D02*
X120303666Y-84737008D01*
X120303666Y-84737008D02*
X120256047Y-84832246D01*
X120256047Y-84832246D02*
X120208428Y-84879866D01*
X120208428Y-84879866D02*
X120113190Y-84927485D01*
X120113190Y-84927485D02*
X119922714Y-84927485D01*
X119922714Y-84927485D02*
X119827476Y-84879866D01*
X120589381Y-84260818D02*
X120970333Y-84260818D01*
X120732238Y-83927485D02*
X120732238Y-84784627D01*
X120732238Y-84784627D02*
X120779857Y-84879866D01*
X120779857Y-84879866D02*
X120875095Y-84927485D01*
X120875095Y-84927485D02*
X120970333Y-84927485D01*
X121303667Y-84260818D02*
X121303667Y-84927485D01*
X121303667Y-84356056D02*
X121351286Y-84308437D01*
X121351286Y-84308437D02*
X121446524Y-84260818D01*
X121446524Y-84260818D02*
X121589381Y-84260818D01*
X121589381Y-84260818D02*
X121684619Y-84308437D01*
X121684619Y-84308437D02*
X121732238Y-84403675D01*
X121732238Y-84403675D02*
X121732238Y-84927485D01*
X121970334Y-85022723D02*
X122732238Y-85022723D01*
X123398905Y-84260818D02*
X123398905Y-84927485D01*
X123160810Y-83879866D02*
X122922715Y-84594151D01*
X122922715Y-84594151D02*
X123541762Y-84594151D01*
D10*
X64365819Y-84407047D02*
X65080104Y-84407047D01*
X65080104Y-84407047D02*
X65222961Y-84454666D01*
X65222961Y-84454666D02*
X65318200Y-84549904D01*
X65318200Y-84549904D02*
X65365819Y-84692761D01*
X65365819Y-84692761D02*
X65365819Y-84787999D01*
X65318200Y-83978475D02*
X65365819Y-83835618D01*
X65365819Y-83835618D02*
X65365819Y-83597523D01*
X65365819Y-83597523D02*
X65318200Y-83502285D01*
X65318200Y-83502285D02*
X65270580Y-83454666D01*
X65270580Y-83454666D02*
X65175342Y-83407047D01*
X65175342Y-83407047D02*
X65080104Y-83407047D01*
X65080104Y-83407047D02*
X64984866Y-83454666D01*
X64984866Y-83454666D02*
X64937247Y-83502285D01*
X64937247Y-83502285D02*
X64889628Y-83597523D01*
X64889628Y-83597523D02*
X64842009Y-83787999D01*
X64842009Y-83787999D02*
X64794390Y-83883237D01*
X64794390Y-83883237D02*
X64746771Y-83930856D01*
X64746771Y-83930856D02*
X64651533Y-83978475D01*
X64651533Y-83978475D02*
X64556295Y-83978475D01*
X64556295Y-83978475D02*
X64461057Y-83930856D01*
X64461057Y-83930856D02*
X64413438Y-83883237D01*
X64413438Y-83883237D02*
X64365819Y-83787999D01*
X64365819Y-83787999D02*
X64365819Y-83549904D01*
X64365819Y-83549904D02*
X64413438Y-83407047D01*
X64365819Y-83121332D02*
X64365819Y-82549904D01*
X65365819Y-82835618D02*
X64365819Y-82835618D01*
X64365819Y-82026094D02*
X64365819Y-81835618D01*
X64365819Y-81835618D02*
X64413438Y-81740380D01*
X64413438Y-81740380D02*
X64508676Y-81645142D01*
X64508676Y-81645142D02*
X64699152Y-81597523D01*
X64699152Y-81597523D02*
X65032485Y-81597523D01*
X65032485Y-81597523D02*
X65222961Y-81645142D01*
X65222961Y-81645142D02*
X65318200Y-81740380D01*
X65318200Y-81740380D02*
X65365819Y-81835618D01*
X65365819Y-81835618D02*
X65365819Y-82026094D01*
X65365819Y-82026094D02*
X65318200Y-82121332D01*
X65318200Y-82121332D02*
X65222961Y-82216570D01*
X65222961Y-82216570D02*
X65032485Y-82264189D01*
X65032485Y-82264189D02*
X64699152Y-82264189D01*
X64699152Y-82264189D02*
X64508676Y-82216570D01*
X64508676Y-82216570D02*
X64413438Y-82121332D01*
X64413438Y-82121332D02*
X64365819Y-82026094D01*
X64365819Y-81168951D02*
X65175342Y-81168951D01*
X65175342Y-81168951D02*
X65270580Y-81121332D01*
X65270580Y-81121332D02*
X65318200Y-81073713D01*
X65318200Y-81073713D02*
X65365819Y-80978475D01*
X65365819Y-80978475D02*
X65365819Y-80787999D01*
X65365819Y-80787999D02*
X65318200Y-80692761D01*
X65318200Y-80692761D02*
X65270580Y-80645142D01*
X65270580Y-80645142D02*
X65175342Y-80597523D01*
X65175342Y-80597523D02*
X64365819Y-80597523D01*
X64365819Y-80264189D02*
X64365819Y-79692761D01*
X65365819Y-79978475D02*
X64365819Y-79978475D01*
X65365819Y-78835618D02*
X65365819Y-79407046D01*
X65365819Y-79121332D02*
X64365819Y-79121332D01*
X64365819Y-79121332D02*
X64508676Y-79216570D01*
X64508676Y-79216570D02*
X64603914Y-79311808D01*
X64603914Y-79311808D02*
X64651533Y-79407046D01*
D11*
X93887667Y-84879866D02*
X94030524Y-84927485D01*
X94030524Y-84927485D02*
X94268619Y-84927485D01*
X94268619Y-84927485D02*
X94363857Y-84879866D01*
X94363857Y-84879866D02*
X94411476Y-84832246D01*
X94411476Y-84832246D02*
X94459095Y-84737008D01*
X94459095Y-84737008D02*
X94459095Y-84641770D01*
X94459095Y-84641770D02*
X94411476Y-84546532D01*
X94411476Y-84546532D02*
X94363857Y-84498913D01*
X94363857Y-84498913D02*
X94268619Y-84451294D01*
X94268619Y-84451294D02*
X94078143Y-84403675D01*
X94078143Y-84403675D02*
X93982905Y-84356056D01*
X93982905Y-84356056D02*
X93935286Y-84308437D01*
X93935286Y-84308437D02*
X93887667Y-84213199D01*
X93887667Y-84213199D02*
X93887667Y-84117961D01*
X93887667Y-84117961D02*
X93935286Y-84022723D01*
X93935286Y-84022723D02*
X93982905Y-83975104D01*
X93982905Y-83975104D02*
X94078143Y-83927485D01*
X94078143Y-83927485D02*
X94316238Y-83927485D01*
X94316238Y-83927485D02*
X94459095Y-83975104D01*
X94792429Y-83927485D02*
X95030524Y-84927485D01*
X95030524Y-84927485D02*
X95221000Y-84213199D01*
X95221000Y-84213199D02*
X95411476Y-84927485D01*
X95411476Y-84927485D02*
X95649572Y-83927485D01*
X95982905Y-84022723D02*
X96030524Y-83975104D01*
X96030524Y-83975104D02*
X96125762Y-83927485D01*
X96125762Y-83927485D02*
X96363857Y-83927485D01*
X96363857Y-83927485D02*
X96459095Y-83975104D01*
X96459095Y-83975104D02*
X96506714Y-84022723D01*
X96506714Y-84022723D02*
X96554333Y-84117961D01*
X96554333Y-84117961D02*
X96554333Y-84213199D01*
X96554333Y-84213199D02*
X96506714Y-84356056D01*
X96506714Y-84356056D02*
X95935286Y-84927485D01*
X95935286Y-84927485D02*
X96554333Y-84927485D01*
D10*
X66371333Y-74742580D02*
X66323714Y-74790200D01*
X66323714Y-74790200D02*
X66180857Y-74837819D01*
X66180857Y-74837819D02*
X66085619Y-74837819D01*
X66085619Y-74837819D02*
X65942762Y-74790200D01*
X65942762Y-74790200D02*
X65847524Y-74694961D01*
X65847524Y-74694961D02*
X65799905Y-74599723D01*
X65799905Y-74599723D02*
X65752286Y-74409247D01*
X65752286Y-74409247D02*
X65752286Y-74266390D01*
X65752286Y-74266390D02*
X65799905Y-74075914D01*
X65799905Y-74075914D02*
X65847524Y-73980676D01*
X65847524Y-73980676D02*
X65942762Y-73885438D01*
X65942762Y-73885438D02*
X66085619Y-73837819D01*
X66085619Y-73837819D02*
X66180857Y-73837819D01*
X66180857Y-73837819D02*
X66323714Y-73885438D01*
X66323714Y-73885438D02*
X66371333Y-73933057D01*
X66990381Y-73837819D02*
X67180857Y-73837819D01*
X67180857Y-73837819D02*
X67276095Y-73885438D01*
X67276095Y-73885438D02*
X67371333Y-73980676D01*
X67371333Y-73980676D02*
X67418952Y-74171152D01*
X67418952Y-74171152D02*
X67418952Y-74504485D01*
X67418952Y-74504485D02*
X67371333Y-74694961D01*
X67371333Y-74694961D02*
X67276095Y-74790200D01*
X67276095Y-74790200D02*
X67180857Y-74837819D01*
X67180857Y-74837819D02*
X66990381Y-74837819D01*
X66990381Y-74837819D02*
X66895143Y-74790200D01*
X66895143Y-74790200D02*
X66799905Y-74694961D01*
X66799905Y-74694961D02*
X66752286Y-74504485D01*
X66752286Y-74504485D02*
X66752286Y-74171152D01*
X66752286Y-74171152D02*
X66799905Y-73980676D01*
X66799905Y-73980676D02*
X66895143Y-73885438D01*
X66895143Y-73885438D02*
X66990381Y-73837819D01*
X67847524Y-74837819D02*
X67847524Y-73837819D01*
X67847524Y-73837819D02*
X68418952Y-74837819D01*
X68418952Y-74837819D02*
X68418952Y-73837819D01*
X68895143Y-74837819D02*
X68895143Y-73837819D01*
X68895143Y-73837819D02*
X69466571Y-74837819D01*
X69466571Y-74837819D02*
X69466571Y-73837819D01*
X70133238Y-73837819D02*
X70323714Y-73837819D01*
X70323714Y-73837819D02*
X70418952Y-73885438D01*
X70418952Y-73885438D02*
X70514190Y-73980676D01*
X70514190Y-73980676D02*
X70561809Y-74171152D01*
X70561809Y-74171152D02*
X70561809Y-74504485D01*
X70561809Y-74504485D02*
X70514190Y-74694961D01*
X70514190Y-74694961D02*
X70418952Y-74790200D01*
X70418952Y-74790200D02*
X70323714Y-74837819D01*
X70323714Y-74837819D02*
X70133238Y-74837819D01*
X70133238Y-74837819D02*
X70038000Y-74790200D01*
X70038000Y-74790200D02*
X69942762Y-74694961D01*
X69942762Y-74694961D02*
X69895143Y-74504485D01*
X69895143Y-74504485D02*
X69895143Y-74171152D01*
X69895143Y-74171152D02*
X69942762Y-73980676D01*
X69942762Y-73980676D02*
X70038000Y-73885438D01*
X70038000Y-73885438D02*
X70133238Y-73837819D01*
X70990381Y-73837819D02*
X70990381Y-74647342D01*
X70990381Y-74647342D02*
X71038000Y-74742580D01*
X71038000Y-74742580D02*
X71085619Y-74790200D01*
X71085619Y-74790200D02*
X71180857Y-74837819D01*
X71180857Y-74837819D02*
X71371333Y-74837819D01*
X71371333Y-74837819D02*
X71466571Y-74790200D01*
X71466571Y-74790200D02*
X71514190Y-74742580D01*
X71514190Y-74742580D02*
X71561809Y-74647342D01*
X71561809Y-74647342D02*
X71561809Y-73837819D01*
X71895143Y-73837819D02*
X72466571Y-73837819D01*
X72180857Y-74837819D02*
X72180857Y-73837819D01*
X73323714Y-74837819D02*
X72752286Y-74837819D01*
X73038000Y-74837819D02*
X73038000Y-73837819D01*
X73038000Y-73837819D02*
X72942762Y-73980676D01*
X72942762Y-73980676D02*
X72847524Y-74075914D01*
X72847524Y-74075914D02*
X72752286Y-74123533D01*
D11*
X181263667Y-84879866D02*
X181406524Y-84927485D01*
X181406524Y-84927485D02*
X181644619Y-84927485D01*
X181644619Y-84927485D02*
X181739857Y-84879866D01*
X181739857Y-84879866D02*
X181787476Y-84832246D01*
X181787476Y-84832246D02*
X181835095Y-84737008D01*
X181835095Y-84737008D02*
X181835095Y-84641770D01*
X181835095Y-84641770D02*
X181787476Y-84546532D01*
X181787476Y-84546532D02*
X181739857Y-84498913D01*
X181739857Y-84498913D02*
X181644619Y-84451294D01*
X181644619Y-84451294D02*
X181454143Y-84403675D01*
X181454143Y-84403675D02*
X181358905Y-84356056D01*
X181358905Y-84356056D02*
X181311286Y-84308437D01*
X181311286Y-84308437D02*
X181263667Y-84213199D01*
X181263667Y-84213199D02*
X181263667Y-84117961D01*
X181263667Y-84117961D02*
X181311286Y-84022723D01*
X181311286Y-84022723D02*
X181358905Y-83975104D01*
X181358905Y-83975104D02*
X181454143Y-83927485D01*
X181454143Y-83927485D02*
X181692238Y-83927485D01*
X181692238Y-83927485D02*
X181835095Y-83975104D01*
X182168429Y-83927485D02*
X182406524Y-84927485D01*
X182406524Y-84927485D02*
X182597000Y-84213199D01*
X182597000Y-84213199D02*
X182787476Y-84927485D01*
X182787476Y-84927485D02*
X183025572Y-83927485D01*
X183549381Y-84356056D02*
X183454143Y-84308437D01*
X183454143Y-84308437D02*
X183406524Y-84260818D01*
X183406524Y-84260818D02*
X183358905Y-84165580D01*
X183358905Y-84165580D02*
X183358905Y-84117961D01*
X183358905Y-84117961D02*
X183406524Y-84022723D01*
X183406524Y-84022723D02*
X183454143Y-83975104D01*
X183454143Y-83975104D02*
X183549381Y-83927485D01*
X183549381Y-83927485D02*
X183739857Y-83927485D01*
X183739857Y-83927485D02*
X183835095Y-83975104D01*
X183835095Y-83975104D02*
X183882714Y-84022723D01*
X183882714Y-84022723D02*
X183930333Y-84117961D01*
X183930333Y-84117961D02*
X183930333Y-84165580D01*
X183930333Y-84165580D02*
X183882714Y-84260818D01*
X183882714Y-84260818D02*
X183835095Y-84308437D01*
X183835095Y-84308437D02*
X183739857Y-84356056D01*
X183739857Y-84356056D02*
X183549381Y-84356056D01*
X183549381Y-84356056D02*
X183454143Y-84403675D01*
X183454143Y-84403675D02*
X183406524Y-84451294D01*
X183406524Y-84451294D02*
X183358905Y-84546532D01*
X183358905Y-84546532D02*
X183358905Y-84737008D01*
X183358905Y-84737008D02*
X183406524Y-84832246D01*
X183406524Y-84832246D02*
X183454143Y-84879866D01*
X183454143Y-84879866D02*
X183549381Y-84927485D01*
X183549381Y-84927485D02*
X183739857Y-84927485D01*
X183739857Y-84927485D02*
X183835095Y-84879866D01*
X183835095Y-84879866D02*
X183882714Y-84832246D01*
X183882714Y-84832246D02*
X183930333Y-84737008D01*
X183930333Y-84737008D02*
X183930333Y-84546532D01*
X183930333Y-84546532D02*
X183882714Y-84451294D01*
X183882714Y-84451294D02*
X183835095Y-84403675D01*
X183835095Y-84403675D02*
X183739857Y-84356056D01*
D10*
X199153819Y-83841980D02*
X199868104Y-83841980D01*
X199868104Y-83841980D02*
X200010961Y-83889599D01*
X200010961Y-83889599D02*
X200106200Y-83984837D01*
X200106200Y-83984837D02*
X200153819Y-84127694D01*
X200153819Y-84127694D02*
X200153819Y-84222932D01*
X200106200Y-83413408D02*
X200153819Y-83270551D01*
X200153819Y-83270551D02*
X200153819Y-83032456D01*
X200153819Y-83032456D02*
X200106200Y-82937218D01*
X200106200Y-82937218D02*
X200058580Y-82889599D01*
X200058580Y-82889599D02*
X199963342Y-82841980D01*
X199963342Y-82841980D02*
X199868104Y-82841980D01*
X199868104Y-82841980D02*
X199772866Y-82889599D01*
X199772866Y-82889599D02*
X199725247Y-82937218D01*
X199725247Y-82937218D02*
X199677628Y-83032456D01*
X199677628Y-83032456D02*
X199630009Y-83222932D01*
X199630009Y-83222932D02*
X199582390Y-83318170D01*
X199582390Y-83318170D02*
X199534771Y-83365789D01*
X199534771Y-83365789D02*
X199439533Y-83413408D01*
X199439533Y-83413408D02*
X199344295Y-83413408D01*
X199344295Y-83413408D02*
X199249057Y-83365789D01*
X199249057Y-83365789D02*
X199201438Y-83318170D01*
X199201438Y-83318170D02*
X199153819Y-83222932D01*
X199153819Y-83222932D02*
X199153819Y-82984837D01*
X199153819Y-82984837D02*
X199201438Y-82841980D01*
X199153819Y-82556265D02*
X199153819Y-81984837D01*
X200153819Y-82270551D02*
X199153819Y-82270551D01*
X200153819Y-81651503D02*
X199153819Y-81651503D01*
X200153819Y-81175313D02*
X199153819Y-81175313D01*
X199153819Y-81175313D02*
X200153819Y-80603885D01*
X200153819Y-80603885D02*
X199153819Y-80603885D01*
X200153819Y-79603885D02*
X200153819Y-80175313D01*
X200153819Y-79889599D02*
X199153819Y-79889599D01*
X199153819Y-79889599D02*
X199296676Y-79984837D01*
X199296676Y-79984837D02*
X199391914Y-80080075D01*
X199391914Y-80080075D02*
X199439533Y-80175313D01*
X145077819Y-77011732D02*
X144601628Y-77345065D01*
X145077819Y-77583160D02*
X144077819Y-77583160D01*
X144077819Y-77583160D02*
X144077819Y-77202208D01*
X144077819Y-77202208D02*
X144125438Y-77106970D01*
X144125438Y-77106970D02*
X144173057Y-77059351D01*
X144173057Y-77059351D02*
X144268295Y-77011732D01*
X144268295Y-77011732D02*
X144411152Y-77011732D01*
X144411152Y-77011732D02*
X144506390Y-77059351D01*
X144506390Y-77059351D02*
X144554009Y-77106970D01*
X144554009Y-77106970D02*
X144601628Y-77202208D01*
X144601628Y-77202208D02*
X144601628Y-77583160D01*
X144077819Y-76106970D02*
X144077819Y-76583160D01*
X144077819Y-76583160D02*
X144554009Y-76630779D01*
X144554009Y-76630779D02*
X144506390Y-76583160D01*
X144506390Y-76583160D02*
X144458771Y-76487922D01*
X144458771Y-76487922D02*
X144458771Y-76249827D01*
X144458771Y-76249827D02*
X144506390Y-76154589D01*
X144506390Y-76154589D02*
X144554009Y-76106970D01*
X144554009Y-76106970D02*
X144649247Y-76059351D01*
X144649247Y-76059351D02*
X144887342Y-76059351D01*
X144887342Y-76059351D02*
X144982580Y-76106970D01*
X144982580Y-76106970D02*
X145030200Y-76154589D01*
X145030200Y-76154589D02*
X145077819Y-76249827D01*
X145077819Y-76249827D02*
X145077819Y-76487922D01*
X145077819Y-76487922D02*
X145030200Y-76583160D01*
X145030200Y-76583160D02*
X144982580Y-76630779D01*
D11*
X107095667Y-84879866D02*
X107238524Y-84927485D01*
X107238524Y-84927485D02*
X107476619Y-84927485D01*
X107476619Y-84927485D02*
X107571857Y-84879866D01*
X107571857Y-84879866D02*
X107619476Y-84832246D01*
X107619476Y-84832246D02*
X107667095Y-84737008D01*
X107667095Y-84737008D02*
X107667095Y-84641770D01*
X107667095Y-84641770D02*
X107619476Y-84546532D01*
X107619476Y-84546532D02*
X107571857Y-84498913D01*
X107571857Y-84498913D02*
X107476619Y-84451294D01*
X107476619Y-84451294D02*
X107286143Y-84403675D01*
X107286143Y-84403675D02*
X107190905Y-84356056D01*
X107190905Y-84356056D02*
X107143286Y-84308437D01*
X107143286Y-84308437D02*
X107095667Y-84213199D01*
X107095667Y-84213199D02*
X107095667Y-84117961D01*
X107095667Y-84117961D02*
X107143286Y-84022723D01*
X107143286Y-84022723D02*
X107190905Y-83975104D01*
X107190905Y-83975104D02*
X107286143Y-83927485D01*
X107286143Y-83927485D02*
X107524238Y-83927485D01*
X107524238Y-83927485D02*
X107667095Y-83975104D01*
X108000429Y-83927485D02*
X108238524Y-84927485D01*
X108238524Y-84927485D02*
X108429000Y-84213199D01*
X108429000Y-84213199D02*
X108619476Y-84927485D01*
X108619476Y-84927485D02*
X108857572Y-83927485D01*
X109143286Y-83927485D02*
X109762333Y-83927485D01*
X109762333Y-83927485D02*
X109429000Y-84308437D01*
X109429000Y-84308437D02*
X109571857Y-84308437D01*
X109571857Y-84308437D02*
X109667095Y-84356056D01*
X109667095Y-84356056D02*
X109714714Y-84403675D01*
X109714714Y-84403675D02*
X109762333Y-84498913D01*
X109762333Y-84498913D02*
X109762333Y-84737008D01*
X109762333Y-84737008D02*
X109714714Y-84832246D01*
X109714714Y-84832246D02*
X109667095Y-84879866D01*
X109667095Y-84879866D02*
X109571857Y-84927485D01*
X109571857Y-84927485D02*
X109286143Y-84927485D01*
X109286143Y-84927485D02*
X109190905Y-84879866D01*
X109190905Y-84879866D02*
X109143286Y-84832246D01*
D10*
X184686115Y-77011732D02*
X184209924Y-77345065D01*
X184686115Y-77583160D02*
X183686115Y-77583160D01*
X183686115Y-77583160D02*
X183686115Y-77202208D01*
X183686115Y-77202208D02*
X183733734Y-77106970D01*
X183733734Y-77106970D02*
X183781353Y-77059351D01*
X183781353Y-77059351D02*
X183876591Y-77011732D01*
X183876591Y-77011732D02*
X184019448Y-77011732D01*
X184019448Y-77011732D02*
X184114686Y-77059351D01*
X184114686Y-77059351D02*
X184162305Y-77106970D01*
X184162305Y-77106970D02*
X184209924Y-77202208D01*
X184209924Y-77202208D02*
X184209924Y-77583160D01*
X184114686Y-76440303D02*
X184067067Y-76535541D01*
X184067067Y-76535541D02*
X184019448Y-76583160D01*
X184019448Y-76583160D02*
X183924210Y-76630779D01*
X183924210Y-76630779D02*
X183876591Y-76630779D01*
X183876591Y-76630779D02*
X183781353Y-76583160D01*
X183781353Y-76583160D02*
X183733734Y-76535541D01*
X183733734Y-76535541D02*
X183686115Y-76440303D01*
X183686115Y-76440303D02*
X183686115Y-76249827D01*
X183686115Y-76249827D02*
X183733734Y-76154589D01*
X183733734Y-76154589D02*
X183781353Y-76106970D01*
X183781353Y-76106970D02*
X183876591Y-76059351D01*
X183876591Y-76059351D02*
X183924210Y-76059351D01*
X183924210Y-76059351D02*
X184019448Y-76106970D01*
X184019448Y-76106970D02*
X184067067Y-76154589D01*
X184067067Y-76154589D02*
X184114686Y-76249827D01*
X184114686Y-76249827D02*
X184114686Y-76440303D01*
X184114686Y-76440303D02*
X184162305Y-76535541D01*
X184162305Y-76535541D02*
X184209924Y-76583160D01*
X184209924Y-76583160D02*
X184305162Y-76630779D01*
X184305162Y-76630779D02*
X184495638Y-76630779D01*
X184495638Y-76630779D02*
X184590876Y-76583160D01*
X184590876Y-76583160D02*
X184638496Y-76535541D01*
X184638496Y-76535541D02*
X184686115Y-76440303D01*
X184686115Y-76440303D02*
X184686115Y-76249827D01*
X184686115Y-76249827D02*
X184638496Y-76154589D01*
X184638496Y-76154589D02*
X184590876Y-76106970D01*
X184590876Y-76106970D02*
X184495638Y-76059351D01*
X184495638Y-76059351D02*
X184305162Y-76059351D01*
X184305162Y-76059351D02*
X184209924Y-76106970D01*
X184209924Y-76106970D02*
X184162305Y-76154589D01*
X184162305Y-76154589D02*
X184114686Y-76249827D01*
X110533819Y-77011732D02*
X110057628Y-77345065D01*
X110533819Y-77583160D02*
X109533819Y-77583160D01*
X109533819Y-77583160D02*
X109533819Y-77202208D01*
X109533819Y-77202208D02*
X109581438Y-77106970D01*
X109581438Y-77106970D02*
X109629057Y-77059351D01*
X109629057Y-77059351D02*
X109724295Y-77011732D01*
X109724295Y-77011732D02*
X109867152Y-77011732D01*
X109867152Y-77011732D02*
X109962390Y-77059351D01*
X109962390Y-77059351D02*
X110010009Y-77106970D01*
X110010009Y-77106970D02*
X110057628Y-77202208D01*
X110057628Y-77202208D02*
X110057628Y-77583160D01*
X109533819Y-76678398D02*
X109533819Y-76059351D01*
X109533819Y-76059351D02*
X109914771Y-76392684D01*
X109914771Y-76392684D02*
X109914771Y-76249827D01*
X109914771Y-76249827D02*
X109962390Y-76154589D01*
X109962390Y-76154589D02*
X110010009Y-76106970D01*
X110010009Y-76106970D02*
X110105247Y-76059351D01*
X110105247Y-76059351D02*
X110343342Y-76059351D01*
X110343342Y-76059351D02*
X110438580Y-76106970D01*
X110438580Y-76106970D02*
X110486200Y-76154589D01*
X110486200Y-76154589D02*
X110533819Y-76249827D01*
X110533819Y-76249827D02*
X110533819Y-76535541D01*
X110533819Y-76535541D02*
X110486200Y-76630779D01*
X110486200Y-76630779D02*
X110438580Y-76678398D01*
X171493819Y-77011732D02*
X171017628Y-77345065D01*
X171493819Y-77583160D02*
X170493819Y-77583160D01*
X170493819Y-77583160D02*
X170493819Y-77202208D01*
X170493819Y-77202208D02*
X170541438Y-77106970D01*
X170541438Y-77106970D02*
X170589057Y-77059351D01*
X170589057Y-77059351D02*
X170684295Y-77011732D01*
X170684295Y-77011732D02*
X170827152Y-77011732D01*
X170827152Y-77011732D02*
X170922390Y-77059351D01*
X170922390Y-77059351D02*
X170970009Y-77106970D01*
X170970009Y-77106970D02*
X171017628Y-77202208D01*
X171017628Y-77202208D02*
X171017628Y-77583160D01*
X170493819Y-76678398D02*
X170493819Y-76011732D01*
X170493819Y-76011732D02*
X171493819Y-76440303D01*
X123741819Y-77011732D02*
X123265628Y-77345065D01*
X123741819Y-77583160D02*
X122741819Y-77583160D01*
X122741819Y-77583160D02*
X122741819Y-77202208D01*
X122741819Y-77202208D02*
X122789438Y-77106970D01*
X122789438Y-77106970D02*
X122837057Y-77059351D01*
X122837057Y-77059351D02*
X122932295Y-77011732D01*
X122932295Y-77011732D02*
X123075152Y-77011732D01*
X123075152Y-77011732D02*
X123170390Y-77059351D01*
X123170390Y-77059351D02*
X123218009Y-77106970D01*
X123218009Y-77106970D02*
X123265628Y-77202208D01*
X123265628Y-77202208D02*
X123265628Y-77583160D01*
X123075152Y-76154589D02*
X123741819Y-76154589D01*
X122694200Y-76392684D02*
X123408485Y-76630779D01*
X123408485Y-76630779D02*
X123408485Y-76011732D01*
X191498000Y-74742580D02*
X191450381Y-74790200D01*
X191450381Y-74790200D02*
X191307524Y-74837819D01*
X191307524Y-74837819D02*
X191212286Y-74837819D01*
X191212286Y-74837819D02*
X191069429Y-74790200D01*
X191069429Y-74790200D02*
X190974191Y-74694961D01*
X190974191Y-74694961D02*
X190926572Y-74599723D01*
X190926572Y-74599723D02*
X190878953Y-74409247D01*
X190878953Y-74409247D02*
X190878953Y-74266390D01*
X190878953Y-74266390D02*
X190926572Y-74075914D01*
X190926572Y-74075914D02*
X190974191Y-73980676D01*
X190974191Y-73980676D02*
X191069429Y-73885438D01*
X191069429Y-73885438D02*
X191212286Y-73837819D01*
X191212286Y-73837819D02*
X191307524Y-73837819D01*
X191307524Y-73837819D02*
X191450381Y-73885438D01*
X191450381Y-73885438D02*
X191498000Y-73933057D01*
X192117048Y-73837819D02*
X192307524Y-73837819D01*
X192307524Y-73837819D02*
X192402762Y-73885438D01*
X192402762Y-73885438D02*
X192498000Y-73980676D01*
X192498000Y-73980676D02*
X192545619Y-74171152D01*
X192545619Y-74171152D02*
X192545619Y-74504485D01*
X192545619Y-74504485D02*
X192498000Y-74694961D01*
X192498000Y-74694961D02*
X192402762Y-74790200D01*
X192402762Y-74790200D02*
X192307524Y-74837819D01*
X192307524Y-74837819D02*
X192117048Y-74837819D01*
X192117048Y-74837819D02*
X192021810Y-74790200D01*
X192021810Y-74790200D02*
X191926572Y-74694961D01*
X191926572Y-74694961D02*
X191878953Y-74504485D01*
X191878953Y-74504485D02*
X191878953Y-74171152D01*
X191878953Y-74171152D02*
X191926572Y-73980676D01*
X191926572Y-73980676D02*
X192021810Y-73885438D01*
X192021810Y-73885438D02*
X192117048Y-73837819D01*
X192974191Y-74837819D02*
X192974191Y-73837819D01*
X192974191Y-73837819D02*
X193545619Y-74837819D01*
X193545619Y-74837819D02*
X193545619Y-73837819D01*
X194021810Y-74837819D02*
X194021810Y-73837819D01*
X194021810Y-73837819D02*
X194593238Y-74837819D01*
X194593238Y-74837819D02*
X194593238Y-73837819D01*
X195069429Y-74837819D02*
X195069429Y-73837819D01*
X195545619Y-74837819D02*
X195545619Y-73837819D01*
X195545619Y-73837819D02*
X196117047Y-74837819D01*
X196117047Y-74837819D02*
X196117047Y-73837819D01*
X197117047Y-74837819D02*
X196545619Y-74837819D01*
X196831333Y-74837819D02*
X196831333Y-73837819D01*
X196831333Y-73837819D02*
X196736095Y-73980676D01*
X196736095Y-73980676D02*
X196640857Y-74075914D01*
X196640857Y-74075914D02*
X196545619Y-74123533D01*
X97308679Y-77011732D02*
X96832488Y-77345065D01*
X97308679Y-77583160D02*
X96308679Y-77583160D01*
X96308679Y-77583160D02*
X96308679Y-77202208D01*
X96308679Y-77202208D02*
X96356298Y-77106970D01*
X96356298Y-77106970D02*
X96403917Y-77059351D01*
X96403917Y-77059351D02*
X96499155Y-77011732D01*
X96499155Y-77011732D02*
X96642012Y-77011732D01*
X96642012Y-77011732D02*
X96737250Y-77059351D01*
X96737250Y-77059351D02*
X96784869Y-77106970D01*
X96784869Y-77106970D02*
X96832488Y-77202208D01*
X96832488Y-77202208D02*
X96832488Y-77583160D01*
X96403917Y-76630779D02*
X96356298Y-76583160D01*
X96356298Y-76583160D02*
X96308679Y-76487922D01*
X96308679Y-76487922D02*
X96308679Y-76249827D01*
X96308679Y-76249827D02*
X96356298Y-76154589D01*
X96356298Y-76154589D02*
X96403917Y-76106970D01*
X96403917Y-76106970D02*
X96499155Y-76059351D01*
X96499155Y-76059351D02*
X96594393Y-76059351D01*
X96594393Y-76059351D02*
X96737250Y-76106970D01*
X96737250Y-76106970D02*
X97308679Y-76678398D01*
X97308679Y-76678398D02*
X97308679Y-76059351D01*
D11*
X141163476Y-84927485D02*
X141163476Y-83927485D01*
X141163476Y-84308437D02*
X141258714Y-84260818D01*
X141258714Y-84260818D02*
X141449190Y-84260818D01*
X141449190Y-84260818D02*
X141544428Y-84308437D01*
X141544428Y-84308437D02*
X141592047Y-84356056D01*
X141592047Y-84356056D02*
X141639666Y-84451294D01*
X141639666Y-84451294D02*
X141639666Y-84737008D01*
X141639666Y-84737008D02*
X141592047Y-84832246D01*
X141592047Y-84832246D02*
X141544428Y-84879866D01*
X141544428Y-84879866D02*
X141449190Y-84927485D01*
X141449190Y-84927485D02*
X141258714Y-84927485D01*
X141258714Y-84927485D02*
X141163476Y-84879866D01*
X141925381Y-84260818D02*
X142306333Y-84260818D01*
X142068238Y-83927485D02*
X142068238Y-84784627D01*
X142068238Y-84784627D02*
X142115857Y-84879866D01*
X142115857Y-84879866D02*
X142211095Y-84927485D01*
X142211095Y-84927485D02*
X142306333Y-84927485D01*
X142639667Y-84260818D02*
X142639667Y-84927485D01*
X142639667Y-84356056D02*
X142687286Y-84308437D01*
X142687286Y-84308437D02*
X142782524Y-84260818D01*
X142782524Y-84260818D02*
X142925381Y-84260818D01*
X142925381Y-84260818D02*
X143020619Y-84308437D01*
X143020619Y-84308437D02*
X143068238Y-84403675D01*
X143068238Y-84403675D02*
X143068238Y-84927485D01*
X143306334Y-85022723D02*
X144068238Y-85022723D01*
X144782524Y-83927485D02*
X144306334Y-83927485D01*
X144306334Y-83927485D02*
X144258715Y-84403675D01*
X144258715Y-84403675D02*
X144306334Y-84356056D01*
X144306334Y-84356056D02*
X144401572Y-84308437D01*
X144401572Y-84308437D02*
X144639667Y-84308437D01*
X144639667Y-84308437D02*
X144734905Y-84356056D01*
X144734905Y-84356056D02*
X144782524Y-84403675D01*
X144782524Y-84403675D02*
X144830143Y-84498913D01*
X144830143Y-84498913D02*
X144830143Y-84737008D01*
X144830143Y-84737008D02*
X144782524Y-84832246D01*
X144782524Y-84832246D02*
X144734905Y-84879866D01*
X144734905Y-84879866D02*
X144639667Y-84927485D01*
X144639667Y-84927485D02*
X144401572Y-84927485D01*
X144401572Y-84927485D02*
X144306334Y-84879866D01*
X144306334Y-84879866D02*
X144258715Y-84832246D01*
D12*
%TO.C,solder_out1*%
X17655000Y-3095000D02*
X17655000Y-13315000D01*
X14995000Y-13315000D02*
X17655000Y-13315000D01*
X14995000Y-3095000D02*
X17655000Y-3095000D01*
X14995000Y-3095000D02*
X14995000Y-13315000D01*
X14995000Y-1825000D02*
X14995000Y-495000D01*
X14995000Y-495000D02*
X16325000Y-495000D01*
%TO.C,solder_in1*%
X13005000Y-3095000D02*
X13005000Y-13315000D01*
X10345000Y-13315000D02*
X13005000Y-13315000D01*
X10345000Y-3095000D02*
X13005000Y-3095000D01*
X10345000Y-3095000D02*
X10345000Y-13315000D01*
X10345000Y-1825000D02*
X10345000Y-495000D01*
X10345000Y-495000D02*
X11675000Y-495000D01*
%TO.C,jst_out1*%
X8035000Y-11630000D02*
X8035000Y-9130000D01*
X8035000Y-9130000D02*
X6985000Y-9130000D01*
X1985000Y-13600000D02*
X6865000Y-13600000D01*
X1865000Y-9130000D02*
X1865000Y-8140000D01*
X815000Y-11630000D02*
X815000Y-9130000D01*
X815000Y-9130000D02*
X1865000Y-9130000D01*
%TO.C,jst_in1*%
X8035000Y-4020000D02*
X8035000Y-1520000D01*
X8035000Y-1520000D02*
X6985000Y-1520000D01*
X1985000Y-5990000D02*
X6865000Y-5990000D01*
X1865000Y-1520000D02*
X1865000Y-530000D01*
X815000Y-4020000D02*
X815000Y-1520000D01*
X815000Y-1520000D02*
X1865000Y-1520000D01*
%TO.C,U1*%
X132492500Y-74989000D02*
X130292500Y-74989000D01*
X132492500Y-74989000D02*
X134692500Y-74989000D01*
X132492500Y-80459000D02*
X130292500Y-80459000D01*
X132492500Y-80459000D02*
X134692500Y-80459000D01*
X136732500Y-80239000D02*
X136402500Y-79999000D01*
X136732500Y-79759000D01*
X136732500Y-80239000D01*
G36*
X136732500Y-80239000D02*
G01*
X136402500Y-79999000D01*
X136732500Y-79759000D01*
X136732500Y-80239000D01*
G37*
%TO.C,SW9*%
X128855000Y-86149000D02*
X128855000Y-86939000D01*
X129455000Y-87949000D02*
X135155000Y-87949000D01*
X130705000Y-85099000D02*
X132405000Y-85099000D01*
X130905000Y-87949000D02*
X130905000Y-89239000D01*
X130905000Y-89239000D02*
X131105000Y-89449000D01*
X131105000Y-89449000D02*
X132005000Y-89449000D01*
X132205000Y-89239000D02*
X132005000Y-89449000D01*
X132205000Y-89239000D02*
X132205000Y-87949000D01*
X133705000Y-85099000D02*
X133905000Y-85099000D01*
X135755000Y-86939000D02*
X135755000Y-86149000D01*
%TO.C,JSTOUT1*%
X58246000Y-79348000D02*
X58246000Y-84228000D01*
X60216000Y-78178000D02*
X62716000Y-78178000D01*
X60216000Y-85398000D02*
X62716000Y-85398000D01*
X62716000Y-78178000D02*
X62716000Y-79228000D01*
X62716000Y-79228000D02*
X63706000Y-79228000D01*
X62716000Y-85398000D02*
X62716000Y-84348000D01*
%TO.C,CONNOUT1*%
X68208000Y-75383000D02*
X69538000Y-75383000D01*
X68208000Y-76713000D02*
X68208000Y-75383000D01*
X68208000Y-77983000D02*
X68208000Y-88203000D01*
X68208000Y-77983000D02*
X70868000Y-77983000D01*
X68208000Y-88203000D02*
X70868000Y-88203000D01*
X70868000Y-77983000D02*
X70868000Y-88203000D01*
%TO.C,JSTIN1*%
X201894000Y-78279600D02*
X201894000Y-79329600D01*
X201894000Y-84449600D02*
X200904000Y-84449600D01*
X201894000Y-85499600D02*
X201894000Y-84449600D01*
X204394000Y-78279600D02*
X201894000Y-78279600D01*
X204394000Y-85499600D02*
X201894000Y-85499600D01*
X206364000Y-84329600D02*
X206364000Y-79449600D01*
%TO.C,CONNIN1*%
X192668000Y-75383000D02*
X193998000Y-75383000D01*
X192668000Y-76713000D02*
X192668000Y-75383000D01*
X192668000Y-77983000D02*
X192668000Y-88203000D01*
X192668000Y-77983000D02*
X195328000Y-77983000D01*
X192668000Y-88203000D02*
X195328000Y-88203000D01*
X195328000Y-77983000D02*
X195328000Y-88203000D01*
%TD*%
M02*
