%TF.GenerationSoftware,KiCad,Pcbnew,8.0.1*%
%TF.CreationDate,2024-04-17T16:05:12-04:00*%
%TF.ProjectId,bombay_beats,626f6d62-6179-45f6-9265-6174732e6b69,rev?*%
%TF.SameCoordinates,Original*%
%TF.FileFunction,Legend,Bot*%
%TF.FilePolarity,Positive*%
%FSLAX46Y46*%
G04 Gerber Fmt 4.6, Leading zero omitted, Abs format (unit mm)*
G04 Created by KiCad (PCBNEW 8.0.1) date 2024-04-17 16:05:12*
%MOMM*%
%LPD*%
G01*
G04 APERTURE LIST*
%ADD10C,0.150000*%
%ADD11C,0.120000*%
G04 APERTURE END LIST*
D10*
X173980056Y-81211667D02*
X174027675Y-81354524D01*
X174027675Y-81354524D02*
X174027675Y-81592619D01*
X174027675Y-81592619D02*
X173980056Y-81687857D01*
X173980056Y-81687857D02*
X173932436Y-81735476D01*
X173932436Y-81735476D02*
X173837198Y-81783095D01*
X173837198Y-81783095D02*
X173741960Y-81783095D01*
X173741960Y-81783095D02*
X173646722Y-81735476D01*
X173646722Y-81735476D02*
X173599103Y-81687857D01*
X173599103Y-81687857D02*
X173551484Y-81592619D01*
X173551484Y-81592619D02*
X173503865Y-81402143D01*
X173503865Y-81402143D02*
X173456246Y-81306905D01*
X173456246Y-81306905D02*
X173408627Y-81259286D01*
X173408627Y-81259286D02*
X173313389Y-81211667D01*
X173313389Y-81211667D02*
X173218151Y-81211667D01*
X173218151Y-81211667D02*
X173122913Y-81259286D01*
X173122913Y-81259286D02*
X173075294Y-81306905D01*
X173075294Y-81306905D02*
X173027675Y-81402143D01*
X173027675Y-81402143D02*
X173027675Y-81640238D01*
X173027675Y-81640238D02*
X173075294Y-81783095D01*
X173027675Y-82116429D02*
X174027675Y-82354524D01*
X174027675Y-82354524D02*
X173313389Y-82545000D01*
X173313389Y-82545000D02*
X174027675Y-82735476D01*
X174027675Y-82735476D02*
X173027675Y-82973572D01*
X174027675Y-83878333D02*
X174027675Y-83306905D01*
X174027675Y-83592619D02*
X173027675Y-83592619D01*
X173027675Y-83592619D02*
X173170532Y-83497381D01*
X173170532Y-83497381D02*
X173265770Y-83402143D01*
X173265770Y-83402143D02*
X173313389Y-83306905D01*
X64411668Y-75547200D02*
X64316430Y-75594819D01*
X64316430Y-75594819D02*
X64125954Y-75594819D01*
X64125954Y-75594819D02*
X64030716Y-75547200D01*
X64030716Y-75547200D02*
X63983097Y-75451961D01*
X63983097Y-75451961D02*
X63983097Y-75404342D01*
X63983097Y-75404342D02*
X64030716Y-75309104D01*
X64030716Y-75309104D02*
X64125954Y-75261485D01*
X64125954Y-75261485D02*
X64268811Y-75261485D01*
X64268811Y-75261485D02*
X64364049Y-75213866D01*
X64364049Y-75213866D02*
X64411668Y-75118628D01*
X64411668Y-75118628D02*
X64411668Y-75071009D01*
X64411668Y-75071009D02*
X64364049Y-74975771D01*
X64364049Y-74975771D02*
X64268811Y-74928152D01*
X64268811Y-74928152D02*
X64125954Y-74928152D01*
X64125954Y-74928152D02*
X64030716Y-74975771D01*
X63411668Y-75594819D02*
X63506906Y-75547200D01*
X63506906Y-75547200D02*
X63554525Y-75499580D01*
X63554525Y-75499580D02*
X63602144Y-75404342D01*
X63602144Y-75404342D02*
X63602144Y-75118628D01*
X63602144Y-75118628D02*
X63554525Y-75023390D01*
X63554525Y-75023390D02*
X63506906Y-74975771D01*
X63506906Y-74975771D02*
X63411668Y-74928152D01*
X63411668Y-74928152D02*
X63268811Y-74928152D01*
X63268811Y-74928152D02*
X63173573Y-74975771D01*
X63173573Y-74975771D02*
X63125954Y-75023390D01*
X63125954Y-75023390D02*
X63078335Y-75118628D01*
X63078335Y-75118628D02*
X63078335Y-75404342D01*
X63078335Y-75404342D02*
X63125954Y-75499580D01*
X63125954Y-75499580D02*
X63173573Y-75547200D01*
X63173573Y-75547200D02*
X63268811Y-75594819D01*
X63268811Y-75594819D02*
X63411668Y-75594819D01*
X62506906Y-75594819D02*
X62602144Y-75547200D01*
X62602144Y-75547200D02*
X62649763Y-75451961D01*
X62649763Y-75451961D02*
X62649763Y-74594819D01*
X61697382Y-75594819D02*
X61697382Y-74594819D01*
X61697382Y-75547200D02*
X61792620Y-75594819D01*
X61792620Y-75594819D02*
X61983096Y-75594819D01*
X61983096Y-75594819D02*
X62078334Y-75547200D01*
X62078334Y-75547200D02*
X62125953Y-75499580D01*
X62125953Y-75499580D02*
X62173572Y-75404342D01*
X62173572Y-75404342D02*
X62173572Y-75118628D01*
X62173572Y-75118628D02*
X62125953Y-75023390D01*
X62125953Y-75023390D02*
X62078334Y-74975771D01*
X62078334Y-74975771D02*
X61983096Y-74928152D01*
X61983096Y-74928152D02*
X61792620Y-74928152D01*
X61792620Y-74928152D02*
X61697382Y-74975771D01*
X60840239Y-75547200D02*
X60935477Y-75594819D01*
X60935477Y-75594819D02*
X61125953Y-75594819D01*
X61125953Y-75594819D02*
X61221191Y-75547200D01*
X61221191Y-75547200D02*
X61268810Y-75451961D01*
X61268810Y-75451961D02*
X61268810Y-75071009D01*
X61268810Y-75071009D02*
X61221191Y-74975771D01*
X61221191Y-74975771D02*
X61125953Y-74928152D01*
X61125953Y-74928152D02*
X60935477Y-74928152D01*
X60935477Y-74928152D02*
X60840239Y-74975771D01*
X60840239Y-74975771D02*
X60792620Y-75071009D01*
X60792620Y-75071009D02*
X60792620Y-75166247D01*
X60792620Y-75166247D02*
X61268810Y-75261485D01*
X60364048Y-75594819D02*
X60364048Y-74928152D01*
X60364048Y-75118628D02*
X60316429Y-75023390D01*
X60316429Y-75023390D02*
X60268810Y-74975771D01*
X60268810Y-74975771D02*
X60173572Y-74928152D01*
X60173572Y-74928152D02*
X60078334Y-74928152D01*
X59983096Y-75690057D02*
X59221191Y-75690057D01*
X58840238Y-75594819D02*
X58935476Y-75547200D01*
X58935476Y-75547200D02*
X58983095Y-75499580D01*
X58983095Y-75499580D02*
X59030714Y-75404342D01*
X59030714Y-75404342D02*
X59030714Y-75118628D01*
X59030714Y-75118628D02*
X58983095Y-75023390D01*
X58983095Y-75023390D02*
X58935476Y-74975771D01*
X58935476Y-74975771D02*
X58840238Y-74928152D01*
X58840238Y-74928152D02*
X58697381Y-74928152D01*
X58697381Y-74928152D02*
X58602143Y-74975771D01*
X58602143Y-74975771D02*
X58554524Y-75023390D01*
X58554524Y-75023390D02*
X58506905Y-75118628D01*
X58506905Y-75118628D02*
X58506905Y-75404342D01*
X58506905Y-75404342D02*
X58554524Y-75499580D01*
X58554524Y-75499580D02*
X58602143Y-75547200D01*
X58602143Y-75547200D02*
X58697381Y-75594819D01*
X58697381Y-75594819D02*
X58840238Y-75594819D01*
X57649762Y-74928152D02*
X57649762Y-75594819D01*
X58078333Y-74928152D02*
X58078333Y-75451961D01*
X58078333Y-75451961D02*
X58030714Y-75547200D01*
X58030714Y-75547200D02*
X57935476Y-75594819D01*
X57935476Y-75594819D02*
X57792619Y-75594819D01*
X57792619Y-75594819D02*
X57697381Y-75547200D01*
X57697381Y-75547200D02*
X57649762Y-75499580D01*
X57316428Y-74928152D02*
X56935476Y-74928152D01*
X57173571Y-74594819D02*
X57173571Y-75451961D01*
X57173571Y-75451961D02*
X57125952Y-75547200D01*
X57125952Y-75547200D02*
X57030714Y-75594819D01*
X57030714Y-75594819D02*
X56935476Y-75594819D01*
X56078333Y-75594819D02*
X56649761Y-75594819D01*
X56364047Y-75594819D02*
X56364047Y-74594819D01*
X56364047Y-74594819D02*
X56459285Y-74737676D01*
X56459285Y-74737676D02*
X56554523Y-74832914D01*
X56554523Y-74832914D02*
X56649761Y-74880533D01*
X210121665Y-75547200D02*
X210026427Y-75594819D01*
X210026427Y-75594819D02*
X209835951Y-75594819D01*
X209835951Y-75594819D02*
X209740713Y-75547200D01*
X209740713Y-75547200D02*
X209693094Y-75451961D01*
X209693094Y-75451961D02*
X209693094Y-75404342D01*
X209693094Y-75404342D02*
X209740713Y-75309104D01*
X209740713Y-75309104D02*
X209835951Y-75261485D01*
X209835951Y-75261485D02*
X209978808Y-75261485D01*
X209978808Y-75261485D02*
X210074046Y-75213866D01*
X210074046Y-75213866D02*
X210121665Y-75118628D01*
X210121665Y-75118628D02*
X210121665Y-75071009D01*
X210121665Y-75071009D02*
X210074046Y-74975771D01*
X210074046Y-74975771D02*
X209978808Y-74928152D01*
X209978808Y-74928152D02*
X209835951Y-74928152D01*
X209835951Y-74928152D02*
X209740713Y-74975771D01*
X209121665Y-75594819D02*
X209216903Y-75547200D01*
X209216903Y-75547200D02*
X209264522Y-75499580D01*
X209264522Y-75499580D02*
X209312141Y-75404342D01*
X209312141Y-75404342D02*
X209312141Y-75118628D01*
X209312141Y-75118628D02*
X209264522Y-75023390D01*
X209264522Y-75023390D02*
X209216903Y-74975771D01*
X209216903Y-74975771D02*
X209121665Y-74928152D01*
X209121665Y-74928152D02*
X208978808Y-74928152D01*
X208978808Y-74928152D02*
X208883570Y-74975771D01*
X208883570Y-74975771D02*
X208835951Y-75023390D01*
X208835951Y-75023390D02*
X208788332Y-75118628D01*
X208788332Y-75118628D02*
X208788332Y-75404342D01*
X208788332Y-75404342D02*
X208835951Y-75499580D01*
X208835951Y-75499580D02*
X208883570Y-75547200D01*
X208883570Y-75547200D02*
X208978808Y-75594819D01*
X208978808Y-75594819D02*
X209121665Y-75594819D01*
X208216903Y-75594819D02*
X208312141Y-75547200D01*
X208312141Y-75547200D02*
X208359760Y-75451961D01*
X208359760Y-75451961D02*
X208359760Y-74594819D01*
X207407379Y-75594819D02*
X207407379Y-74594819D01*
X207407379Y-75547200D02*
X207502617Y-75594819D01*
X207502617Y-75594819D02*
X207693093Y-75594819D01*
X207693093Y-75594819D02*
X207788331Y-75547200D01*
X207788331Y-75547200D02*
X207835950Y-75499580D01*
X207835950Y-75499580D02*
X207883569Y-75404342D01*
X207883569Y-75404342D02*
X207883569Y-75118628D01*
X207883569Y-75118628D02*
X207835950Y-75023390D01*
X207835950Y-75023390D02*
X207788331Y-74975771D01*
X207788331Y-74975771D02*
X207693093Y-74928152D01*
X207693093Y-74928152D02*
X207502617Y-74928152D01*
X207502617Y-74928152D02*
X207407379Y-74975771D01*
X206550236Y-75547200D02*
X206645474Y-75594819D01*
X206645474Y-75594819D02*
X206835950Y-75594819D01*
X206835950Y-75594819D02*
X206931188Y-75547200D01*
X206931188Y-75547200D02*
X206978807Y-75451961D01*
X206978807Y-75451961D02*
X206978807Y-75071009D01*
X206978807Y-75071009D02*
X206931188Y-74975771D01*
X206931188Y-74975771D02*
X206835950Y-74928152D01*
X206835950Y-74928152D02*
X206645474Y-74928152D01*
X206645474Y-74928152D02*
X206550236Y-74975771D01*
X206550236Y-74975771D02*
X206502617Y-75071009D01*
X206502617Y-75071009D02*
X206502617Y-75166247D01*
X206502617Y-75166247D02*
X206978807Y-75261485D01*
X206074045Y-75594819D02*
X206074045Y-74928152D01*
X206074045Y-75118628D02*
X206026426Y-75023390D01*
X206026426Y-75023390D02*
X205978807Y-74975771D01*
X205978807Y-74975771D02*
X205883569Y-74928152D01*
X205883569Y-74928152D02*
X205788331Y-74928152D01*
X205693093Y-75690057D02*
X204931188Y-75690057D01*
X204693092Y-75594819D02*
X204693092Y-74928152D01*
X204693092Y-74594819D02*
X204740711Y-74642438D01*
X204740711Y-74642438D02*
X204693092Y-74690057D01*
X204693092Y-74690057D02*
X204645473Y-74642438D01*
X204645473Y-74642438D02*
X204693092Y-74594819D01*
X204693092Y-74594819D02*
X204693092Y-74690057D01*
X204216902Y-74928152D02*
X204216902Y-75594819D01*
X204216902Y-75023390D02*
X204169283Y-74975771D01*
X204169283Y-74975771D02*
X204074045Y-74928152D01*
X204074045Y-74928152D02*
X203931188Y-74928152D01*
X203931188Y-74928152D02*
X203835950Y-74975771D01*
X203835950Y-74975771D02*
X203788331Y-75071009D01*
X203788331Y-75071009D02*
X203788331Y-75594819D01*
X202788331Y-75594819D02*
X203359759Y-75594819D01*
X203074045Y-75594819D02*
X203074045Y-74594819D01*
X203074045Y-74594819D02*
X203169283Y-74737676D01*
X203169283Y-74737676D02*
X203264521Y-74832914D01*
X203264521Y-74832914D02*
X203359759Y-74880533D01*
X134111904Y-78742319D02*
X134111904Y-79551842D01*
X134111904Y-79551842D02*
X134064285Y-79647080D01*
X134064285Y-79647080D02*
X134016666Y-79694700D01*
X134016666Y-79694700D02*
X133921428Y-79742319D01*
X133921428Y-79742319D02*
X133730952Y-79742319D01*
X133730952Y-79742319D02*
X133635714Y-79694700D01*
X133635714Y-79694700D02*
X133588095Y-79647080D01*
X133588095Y-79647080D02*
X133540476Y-79551842D01*
X133540476Y-79551842D02*
X133540476Y-78742319D01*
X132540476Y-79742319D02*
X133111904Y-79742319D01*
X132826190Y-79742319D02*
X132826190Y-78742319D01*
X132826190Y-78742319D02*
X132921428Y-78885176D01*
X132921428Y-78885176D02*
X133016666Y-78980414D01*
X133016666Y-78980414D02*
X133111904Y-79028033D01*
X76713153Y-79806904D02*
X77570296Y-79806904D01*
X77570296Y-79806904D02*
X77665534Y-79759285D01*
X77665534Y-79759285D02*
X77713153Y-79664047D01*
X77713153Y-79664047D02*
X77713153Y-79616428D01*
X76379820Y-79806904D02*
X76427439Y-79759285D01*
X76427439Y-79759285D02*
X76475058Y-79806904D01*
X76475058Y-79806904D02*
X76427439Y-79854523D01*
X76427439Y-79854523D02*
X76379820Y-79806904D01*
X76379820Y-79806904D02*
X76475058Y-79806904D01*
X77332201Y-80235475D02*
X77379820Y-80330713D01*
X77379820Y-80330713D02*
X77379820Y-80521189D01*
X77379820Y-80521189D02*
X77332201Y-80616427D01*
X77332201Y-80616427D02*
X77236962Y-80664046D01*
X77236962Y-80664046D02*
X77189343Y-80664046D01*
X77189343Y-80664046D02*
X77094105Y-80616427D01*
X77094105Y-80616427D02*
X77046486Y-80521189D01*
X77046486Y-80521189D02*
X77046486Y-80378332D01*
X77046486Y-80378332D02*
X76998867Y-80283094D01*
X76998867Y-80283094D02*
X76903629Y-80235475D01*
X76903629Y-80235475D02*
X76856010Y-80235475D01*
X76856010Y-80235475D02*
X76760772Y-80283094D01*
X76760772Y-80283094D02*
X76713153Y-80378332D01*
X76713153Y-80378332D02*
X76713153Y-80521189D01*
X76713153Y-80521189D02*
X76760772Y-80616427D01*
X76713153Y-80949761D02*
X76713153Y-81330713D01*
X76379820Y-81092618D02*
X77236962Y-81092618D01*
X77236962Y-81092618D02*
X77332201Y-81140237D01*
X77332201Y-81140237D02*
X77379820Y-81235475D01*
X77379820Y-81235475D02*
X77379820Y-81330713D01*
X77475058Y-81425952D02*
X77475058Y-82187856D01*
X77379820Y-82568809D02*
X77332201Y-82473571D01*
X77332201Y-82473571D02*
X77284581Y-82425952D01*
X77284581Y-82425952D02*
X77189343Y-82378333D01*
X77189343Y-82378333D02*
X76903629Y-82378333D01*
X76903629Y-82378333D02*
X76808391Y-82425952D01*
X76808391Y-82425952D02*
X76760772Y-82473571D01*
X76760772Y-82473571D02*
X76713153Y-82568809D01*
X76713153Y-82568809D02*
X76713153Y-82711666D01*
X76713153Y-82711666D02*
X76760772Y-82806904D01*
X76760772Y-82806904D02*
X76808391Y-82854523D01*
X76808391Y-82854523D02*
X76903629Y-82902142D01*
X76903629Y-82902142D02*
X77189343Y-82902142D01*
X77189343Y-82902142D02*
X77284581Y-82854523D01*
X77284581Y-82854523D02*
X77332201Y-82806904D01*
X77332201Y-82806904D02*
X77379820Y-82711666D01*
X77379820Y-82711666D02*
X77379820Y-82568809D01*
X76713153Y-83759285D02*
X77379820Y-83759285D01*
X76713153Y-83330714D02*
X77236962Y-83330714D01*
X77236962Y-83330714D02*
X77332201Y-83378333D01*
X77332201Y-83378333D02*
X77379820Y-83473571D01*
X77379820Y-83473571D02*
X77379820Y-83616428D01*
X77379820Y-83616428D02*
X77332201Y-83711666D01*
X77332201Y-83711666D02*
X77284581Y-83759285D01*
X76713153Y-84092619D02*
X76713153Y-84473571D01*
X76379820Y-84235476D02*
X77236962Y-84235476D01*
X77236962Y-84235476D02*
X77332201Y-84283095D01*
X77332201Y-84283095D02*
X77379820Y-84378333D01*
X77379820Y-84378333D02*
X77379820Y-84473571D01*
X77379820Y-85330714D02*
X77379820Y-84759286D01*
X77379820Y-85045000D02*
X76379820Y-85045000D01*
X76379820Y-85045000D02*
X76522677Y-84949762D01*
X76522677Y-84949762D02*
X76617915Y-84854524D01*
X76617915Y-84854524D02*
X76665534Y-84759286D01*
X189563151Y-80306905D02*
X190420294Y-80306905D01*
X190420294Y-80306905D02*
X190515532Y-80259286D01*
X190515532Y-80259286D02*
X190563151Y-80164048D01*
X190563151Y-80164048D02*
X190563151Y-80116429D01*
X189229818Y-80306905D02*
X189277437Y-80259286D01*
X189277437Y-80259286D02*
X189325056Y-80306905D01*
X189325056Y-80306905D02*
X189277437Y-80354524D01*
X189277437Y-80354524D02*
X189229818Y-80306905D01*
X189229818Y-80306905D02*
X189325056Y-80306905D01*
X190182199Y-80735476D02*
X190229818Y-80830714D01*
X190229818Y-80830714D02*
X190229818Y-81021190D01*
X190229818Y-81021190D02*
X190182199Y-81116428D01*
X190182199Y-81116428D02*
X190086960Y-81164047D01*
X190086960Y-81164047D02*
X190039341Y-81164047D01*
X190039341Y-81164047D02*
X189944103Y-81116428D01*
X189944103Y-81116428D02*
X189896484Y-81021190D01*
X189896484Y-81021190D02*
X189896484Y-80878333D01*
X189896484Y-80878333D02*
X189848865Y-80783095D01*
X189848865Y-80783095D02*
X189753627Y-80735476D01*
X189753627Y-80735476D02*
X189706008Y-80735476D01*
X189706008Y-80735476D02*
X189610770Y-80783095D01*
X189610770Y-80783095D02*
X189563151Y-80878333D01*
X189563151Y-80878333D02*
X189563151Y-81021190D01*
X189563151Y-81021190D02*
X189610770Y-81116428D01*
X189563151Y-81449762D02*
X189563151Y-81830714D01*
X189229818Y-81592619D02*
X190086960Y-81592619D01*
X190086960Y-81592619D02*
X190182199Y-81640238D01*
X190182199Y-81640238D02*
X190229818Y-81735476D01*
X190229818Y-81735476D02*
X190229818Y-81830714D01*
X190325056Y-81925953D02*
X190325056Y-82687857D01*
X190229818Y-82925953D02*
X189563151Y-82925953D01*
X189229818Y-82925953D02*
X189277437Y-82878334D01*
X189277437Y-82878334D02*
X189325056Y-82925953D01*
X189325056Y-82925953D02*
X189277437Y-82973572D01*
X189277437Y-82973572D02*
X189229818Y-82925953D01*
X189229818Y-82925953D02*
X189325056Y-82925953D01*
X189563151Y-83402143D02*
X190229818Y-83402143D01*
X189658389Y-83402143D02*
X189610770Y-83449762D01*
X189610770Y-83449762D02*
X189563151Y-83545000D01*
X189563151Y-83545000D02*
X189563151Y-83687857D01*
X189563151Y-83687857D02*
X189610770Y-83783095D01*
X189610770Y-83783095D02*
X189706008Y-83830714D01*
X189706008Y-83830714D02*
X190229818Y-83830714D01*
X190229818Y-84830714D02*
X190229818Y-84259286D01*
X190229818Y-84545000D02*
X189229818Y-84545000D01*
X189229818Y-84545000D02*
X189372675Y-84449762D01*
X189372675Y-84449762D02*
X189467913Y-84354524D01*
X189467913Y-84354524D02*
X189515532Y-84259286D01*
D11*
%TO.C,SW1*%
X170442856Y-79095000D02*
X169652856Y-79095000D01*
X171492856Y-80945000D02*
X171492856Y-81145000D01*
X168642856Y-82645000D02*
X167352856Y-82645000D01*
X167142856Y-82845000D02*
X167352856Y-82645000D01*
X167142856Y-82845000D02*
X167142856Y-83745000D01*
X167142856Y-83745000D02*
X167352856Y-83945000D01*
X167352856Y-83945000D02*
X168642856Y-83945000D01*
X171492856Y-82445000D02*
X171492856Y-84145000D01*
X168642856Y-79695000D02*
X168642856Y-85395000D01*
X169652856Y-85995000D02*
X170442856Y-85995000D01*
%TO.C,solder_out1*%
X58915001Y-88960000D02*
X58915001Y-78740000D01*
X58915001Y-88960000D02*
X61575001Y-88960000D01*
X58915001Y-78740000D02*
X61575001Y-78740000D01*
X61575001Y-88960000D02*
X61575001Y-78740000D01*
X61575001Y-76140000D02*
X61575001Y-77470000D01*
X60245001Y-76140000D02*
X61575001Y-76140000D01*
%TO.C,solder_in1*%
X205124999Y-88960000D02*
X205124999Y-78740000D01*
X205124999Y-88960000D02*
X207784999Y-88960000D01*
X205124999Y-78740000D02*
X207784999Y-78740000D01*
X207784999Y-88960000D02*
X207784999Y-78740000D01*
X207784999Y-76140000D02*
X207784999Y-77470000D01*
X206454999Y-76140000D02*
X207784999Y-76140000D01*
%TO.C,U1*%
X135550000Y-80002500D02*
X133350000Y-80002500D01*
X131150000Y-80002500D02*
X133350000Y-80002500D01*
X135550000Y-85472500D02*
X133350000Y-85472500D01*
X131150000Y-85472500D02*
X133350000Y-85472500D01*
X137590000Y-80702500D02*
X137260000Y-80462500D01*
X137590000Y-80222500D01*
X137590000Y-80702500D01*
G36*
X137590000Y-80702500D02*
G01*
X137260000Y-80462500D01*
X137590000Y-80222500D01*
X137590000Y-80702500D01*
G37*
%TO.C,jst_out1*%
X74730001Y-78935000D02*
X72230001Y-78935000D01*
X74730001Y-79985000D02*
X74730001Y-78935000D01*
X70260001Y-80105000D02*
X70260001Y-84985000D01*
X75720001Y-85105000D02*
X74730001Y-85105000D01*
X74730001Y-86155000D02*
X72230001Y-86155000D01*
X74730001Y-85105000D02*
X74730001Y-86155000D01*
%TO.C,jst_in1*%
X191969999Y-86155000D02*
X194469999Y-86155000D01*
X191969999Y-85105000D02*
X191969999Y-86155000D01*
X196439999Y-84985000D02*
X196439999Y-80105000D01*
X190979999Y-79985000D02*
X191969999Y-79985000D01*
X191969999Y-78935000D02*
X194469999Y-78935000D01*
X191969999Y-79985000D02*
X191969999Y-78935000D01*
%TD*%
M02*
