%TF.GenerationSoftware,KiCad,Pcbnew,8.0.1*%
%TF.CreationDate,2024-04-17T16:05:12-04:00*%
%TF.ProjectId,bombay_beats,626f6d62-6179-45f6-9265-6174732e6b69,rev?*%
%TF.SameCoordinates,Original*%
%TF.FileFunction,Soldermask,Bot*%
%TF.FilePolarity,Negative*%
%FSLAX46Y46*%
G04 Gerber Fmt 4.6, Leading zero omitted, Abs format (unit mm)*
G04 Created by KiCad (PCBNEW 8.0.1) date 2024-04-17 16:05:12*
%MOMM*%
%LPD*%
G01*
G04 APERTURE LIST*
G04 Aperture macros list*
%AMRoundRect*
0 Rectangle with rounded corners*
0 $1 Rounding radius*
0 $2 $3 $4 $5 $6 $7 $8 $9 X,Y pos of 4 corners*
0 Add a 4 corners polygon primitive as box body*
4,1,4,$2,$3,$4,$5,$6,$7,$8,$9,$2,$3,0*
0 Add four circle primitives for the rounded corners*
1,1,$1+$1,$2,$3*
1,1,$1+$1,$4,$5*
1,1,$1+$1,$6,$7*
1,1,$1+$1,$8,$9*
0 Add four rect primitives between the rounded corners*
20,1,$1+$1,$2,$3,$4,$5,0*
20,1,$1+$1,$4,$5,$6,$7,0*
20,1,$1+$1,$6,$7,$8,$9,0*
20,1,$1+$1,$8,$9,$2,$3,0*%
G04 Aperture macros list end*
%ADD10R,1.500000X0.700000*%
%ADD11R,0.800000X1.000000*%
%ADD12C,0.900000*%
%ADD13O,1.700000X1.700000*%
%ADD14R,1.700000X1.700000*%
%ADD15RoundRect,0.100000X0.675000X0.100000X-0.675000X0.100000X-0.675000X-0.100000X0.675000X-0.100000X0*%
%ADD16R,3.000000X3.000000*%
%ADD17RoundRect,0.250000X0.650000X-0.350000X0.650000X0.350000X-0.650000X0.350000X-0.650000X-0.350000X0*%
%ADD18RoundRect,0.150000X0.625000X-0.150000X0.625000X0.150000X-0.625000X0.150000X-0.625000X-0.150000X0*%
%ADD19RoundRect,0.250000X-0.650000X0.350000X-0.650000X-0.350000X0.650000X-0.350000X0.650000X0.350000X0*%
%ADD20RoundRect,0.150000X-0.625000X0.150000X-0.625000X-0.150000X0.625000X-0.150000X0.625000X0.150000X0*%
G04 APERTURE END LIST*
D10*
%TO.C,SW1*%
X171802856Y-80295000D03*
X171802856Y-81795000D03*
X171802856Y-84795000D03*
D11*
X168942856Y-78895000D03*
X171152856Y-78895000D03*
D12*
X170042856Y-81045000D03*
X170042856Y-84045000D03*
D11*
X168942856Y-86195000D03*
X171152856Y-86195000D03*
%TD*%
D13*
%TO.C,solder_out1*%
X60245001Y-87630000D03*
X60245001Y-85090000D03*
X60245001Y-82550000D03*
X60245001Y-80010000D03*
D14*
X60245001Y-77470000D03*
%TD*%
D13*
%TO.C,solder_in1*%
X206454999Y-87630000D03*
X206454999Y-85090000D03*
X206454999Y-82550000D03*
X206454999Y-80010000D03*
D14*
X206454999Y-77470000D03*
%TD*%
D15*
%TO.C,U1*%
X136225000Y-80462500D03*
X136225000Y-81112500D03*
X136225000Y-81762500D03*
X136225000Y-82412500D03*
X136225000Y-83062500D03*
X136225000Y-83712500D03*
X136225000Y-84362500D03*
X136225000Y-85012500D03*
X130475000Y-85012500D03*
X130475000Y-84362500D03*
X130475000Y-83712500D03*
X130475000Y-83062500D03*
X130475000Y-82412500D03*
X130475000Y-81762500D03*
X130475000Y-81112500D03*
X130475000Y-80462500D03*
D16*
X133350000Y-82737500D03*
%TD*%
D17*
%TO.C,jst_out1*%
X71070001Y-79245000D03*
X71070001Y-85845000D03*
D18*
X74945001Y-80545000D03*
X74945001Y-81545000D03*
X74945001Y-82545000D03*
X74945001Y-83545000D03*
X74945001Y-84545000D03*
%TD*%
D19*
%TO.C,jst_in1*%
X195629999Y-85845000D03*
X195629999Y-79245000D03*
D20*
X191754999Y-84545000D03*
X191754999Y-83545000D03*
X191754999Y-82545000D03*
X191754999Y-81545000D03*
X191754999Y-80545000D03*
%TD*%
M02*
