M48
; DRILL file {KiCad 8.0.1} date 2024-04-17T16:05:05-0400
; FORMAT={-:-/ absolute / inch / decimal}
; #@! TF.CreationDate,2024-04-17T16:05:05-04:00
; #@! TF.GenerationSoftware,Kicad,Pcbnew,8.0.1
; #@! TF.FileFunction,Plated,1,2,PTH
FMAT,2
INCH
; #@! TA.AperFunction,Plated,PTH,ComponentDrill
T1C0.0118
; #@! TA.AperFunction,Plated,PTH,ViaDrill
T2C0.0150
; #@! TA.AperFunction,Plated,PTH,ViaDrill
T3C0.0300
; #@! TA.AperFunction,Plated,PTH,ComponentDrill
T4C0.0394
%
G90
G05
T1
X5.2028Y-3.2101
X5.2028Y-3.3046
X5.2972Y-3.2101
X5.2972Y-3.3046
T2
X2.66Y-3.456
X2.706Y-3.388
X2.74Y-3.466
X2.994Y-3.092
X3.25Y-3.092
X4.87Y-3.198
X4.936Y-3.194
X5.036Y-3.46
X5.048Y-3.296
X5.074Y-3.27
X5.132Y-3.458
X5.136Y-3.116
X5.442Y-3.196
X5.486Y-3.214
X5.856Y-3.062
X5.88Y-3.028
X6.108Y-3.062
X6.124Y-3.226
X6.16Y-3.03
X6.21Y-3.222
X6.528Y-3.26
T3
X2.5Y-3.15
X2.854Y-3.5282
X3.568Y-3.524
X4.284Y-3.524
X5.0Y-3.524
X5.714Y-3.524
X6.428Y-3.524
X7.148Y-3.524
X7.858Y-3.524
X7.98Y-2.97
T4
X2.3719Y-3.05
X2.3719Y-3.15
X2.3719Y-3.25
X2.3719Y-3.35
X2.3719Y-3.45
X8.1281Y-3.05
X8.1281Y-3.15
X8.1281Y-3.25
X8.1281Y-3.35
X8.1281Y-3.45
M30
