%TF.GenerationSoftware,KiCad,Pcbnew,8.0.1*%
%TF.CreationDate,2024-04-30T08:05:45-04:00*%
%TF.ProjectId,bombay_beats,626f6d62-6179-45f6-9265-6174732e6b69,rev?*%
%TF.SameCoordinates,Original*%
%TF.FileFunction,Copper,L1,Top*%
%TF.FilePolarity,Positive*%
%FSLAX46Y46*%
G04 Gerber Fmt 4.6, Leading zero omitted, Abs format (unit mm)*
G04 Created by KiCad (PCBNEW 8.0.1) date 2024-04-30 08:05:45*
%MOMM*%
%LPD*%
G01*
G04 APERTURE LIST*
G04 Aperture macros list*
%AMRoundRect*
0 Rectangle with rounded corners*
0 $1 Rounding radius*
0 $2 $3 $4 $5 $6 $7 $8 $9 X,Y pos of 4 corners*
0 Add a 4 corners polygon primitive as box body*
4,1,4,$2,$3,$4,$5,$6,$7,$8,$9,$2,$3,0*
0 Add four circle primitives for the rounded corners*
1,1,$1+$1,$2,$3*
1,1,$1+$1,$4,$5*
1,1,$1+$1,$6,$7*
1,1,$1+$1,$8,$9*
0 Add four rect primitives between the rounded corners*
20,1,$1+$1,$2,$3,$4,$5,0*
20,1,$1+$1,$4,$5,$6,$7,0*
20,1,$1+$1,$6,$7,$8,$9,0*
20,1,$1+$1,$8,$9,$2,$3,0*%
G04 Aperture macros list end*
%TA.AperFunction,ComponentPad*%
%ADD10O,1.700000X1.700000*%
%TD*%
%TA.AperFunction,ComponentPad*%
%ADD11R,1.700000X1.700000*%
%TD*%
%TA.AperFunction,SMDPad,CuDef*%
%ADD12RoundRect,0.250000X-0.350000X-0.650000X0.350000X-0.650000X0.350000X0.650000X-0.350000X0.650000X0*%
%TD*%
%TA.AperFunction,SMDPad,CuDef*%
%ADD13RoundRect,0.150000X-0.150000X-0.625000X0.150000X-0.625000X0.150000X0.625000X-0.150000X0.625000X0*%
%TD*%
%TA.AperFunction,SMDPad,CuDef*%
%ADD14RoundRect,0.225000X-0.450000X-0.225000X0.450000X-0.225000X0.450000X0.225000X-0.450000X0.225000X0*%
%TD*%
%TA.AperFunction,SMDPad,CuDef*%
%ADD15RoundRect,0.100000X0.675000X0.100000X-0.675000X0.100000X-0.675000X-0.100000X0.675000X-0.100000X0*%
%TD*%
%TA.AperFunction,HeatsinkPad*%
%ADD16C,0.600000*%
%TD*%
%TA.AperFunction,HeatsinkPad*%
%ADD17R,3.000000X3.000000*%
%TD*%
%TA.AperFunction,SMDPad,CuDef*%
%ADD18R,1.000000X0.800000*%
%TD*%
%TA.AperFunction,SMDPad,CuDef*%
%ADD19R,0.700000X1.500000*%
%TD*%
%TA.AperFunction,SMDPad,CuDef*%
%ADD20RoundRect,0.100000X0.100000X-0.130000X0.100000X0.130000X-0.100000X0.130000X-0.100000X-0.130000X0*%
%TD*%
%TA.AperFunction,SMDPad,CuDef*%
%ADD21RoundRect,0.100000X-0.100000X0.130000X-0.100000X-0.130000X0.100000X-0.130000X0.100000X0.130000X0*%
%TD*%
%TA.AperFunction,SMDPad,CuDef*%
%ADD22RoundRect,0.150000X-0.625000X0.150000X-0.625000X-0.150000X0.625000X-0.150000X0.625000X0.150000X0*%
%TD*%
%TA.AperFunction,SMDPad,CuDef*%
%ADD23RoundRect,0.250000X-0.650000X0.350000X-0.650000X-0.350000X0.650000X-0.350000X0.650000X0.350000X0*%
%TD*%
%TA.AperFunction,SMDPad,CuDef*%
%ADD24RoundRect,0.150000X0.625000X-0.150000X0.625000X0.150000X-0.625000X0.150000X-0.625000X-0.150000X0*%
%TD*%
%TA.AperFunction,SMDPad,CuDef*%
%ADD25RoundRect,0.250000X0.650000X-0.350000X0.650000X0.350000X-0.650000X0.350000X-0.650000X-0.350000X0*%
%TD*%
%TA.AperFunction,ViaPad*%
%ADD26C,0.800000*%
%TD*%
%TA.AperFunction,Conductor*%
%ADD27C,0.508000*%
%TD*%
%TA.AperFunction,Conductor*%
%ADD28C,0.254000*%
%TD*%
G04 APERTURE END LIST*
D10*
%TO.P,solder_out1,5,Pin_5*%
%TO.N,/DATA_OUT*%
X16325000Y-11985000D03*
%TO.P,solder_out1,4,Pin_4*%
%TO.N,/DATA_CLK*%
X16325000Y-9445000D03*
%TO.P,solder_out1,3,Pin_3*%
%TO.N,/DATA_LOAD*%
X16325000Y-6905000D03*
%TO.P,solder_out1,2,Pin_2*%
%TO.N,VCC*%
X16325000Y-4365000D03*
D11*
%TO.P,solder_out1,1,Pin_1*%
%TO.N,GND*%
X16325000Y-1825000D03*
%TD*%
D10*
%TO.P,solder_in1,5,Pin_5*%
%TO.N,/DATA_IN*%
X11675000Y-11985000D03*
%TO.P,solder_in1,4,Pin_4*%
%TO.N,/DATA_CLK*%
X11675000Y-9445000D03*
%TO.P,solder_in1,3,Pin_3*%
%TO.N,/DATA_LOAD*%
X11675000Y-6905000D03*
%TO.P,solder_in1,2,Pin_2*%
%TO.N,VCC*%
X11675000Y-4365000D03*
D11*
%TO.P,solder_in1,1,Pin_1*%
%TO.N,GND*%
X11675000Y-1825000D03*
%TD*%
D12*
%TO.P,jst_out1,MP*%
%TO.N,N/C*%
X7725000Y-12790000D03*
X1125000Y-12790000D03*
D13*
%TO.P,jst_out1,5,Pin_5*%
%TO.N,/DATA_OUT*%
X6425000Y-8915000D03*
%TO.P,jst_out1,4,Pin_4*%
%TO.N,/DATA_CLK*%
X5425000Y-8915000D03*
%TO.P,jst_out1,3,Pin_3*%
%TO.N,/DATA_LOAD*%
X4425000Y-8915000D03*
%TO.P,jst_out1,2,Pin_2*%
%TO.N,VCC*%
X3425000Y-8915000D03*
%TO.P,jst_out1,1,Pin_1*%
%TO.N,GND*%
X2425000Y-8915000D03*
%TD*%
D12*
%TO.P,jst_in1,MP*%
%TO.N,N/C*%
X7725000Y-5180000D03*
X1125000Y-5180000D03*
D13*
%TO.P,jst_in1,5,Pin_5*%
%TO.N,/DATA_IN*%
X6425000Y-1305000D03*
%TO.P,jst_in1,4,Pin_4*%
%TO.N,/DATA_CLK*%
X5425000Y-1305000D03*
%TO.P,jst_in1,3,Pin_3*%
%TO.N,/DATA_LOAD*%
X4425000Y-1305000D03*
%TO.P,jst_in1,2,Pin_2*%
%TO.N,VCC*%
X3425000Y-1305000D03*
%TO.P,jst_in1,1,Pin_1*%
%TO.N,GND*%
X2425000Y-1305000D03*
%TD*%
D14*
%TO.P,SW1,1,1*%
%TO.N,/Button Module/data*%
X78863000Y-79270066D03*
%TO.P,SW1,2,2*%
%TO.N,Net-(R1-Pad1)*%
X84713000Y-79270066D03*
%TO.P,SW1,3,3*%
%TO.N,unconnected-(SW1-Pad3)*%
X78863000Y-82270066D03*
%TO.P,SW1,4,4*%
%TO.N,GND*%
X84713000Y-82270066D03*
%TD*%
D15*
%TO.P,U1,1,~{PL}*%
%TO.N,/DATA_LOAD*%
X135367500Y-79999000D03*
%TO.P,U1,2,CP*%
%TO.N,/DATA_CLK*%
X135367500Y-79349000D03*
%TO.P,U1,3,D4*%
%TO.N,/Button Module4/data*%
X135367500Y-78699000D03*
%TO.P,U1,4,D5*%
%TO.N,/Button Module5/data*%
X135367500Y-78049000D03*
%TO.P,U1,5,D6*%
%TO.N,/Button Module6/data*%
X135367500Y-77399000D03*
%TO.P,U1,6,D7*%
%TO.N,/Button Module7/data*%
X135367500Y-76749000D03*
%TO.P,U1,7,~{Q7}*%
%TO.N,unconnected-(U1-~{Q7}-Pad7)*%
X135367500Y-76099000D03*
%TO.P,U1,8,GND*%
%TO.N,GND*%
X135367500Y-75449000D03*
%TO.P,U1,9,Q7*%
%TO.N,/DATA_OUT*%
X129617500Y-75449000D03*
%TO.P,U1,10,DS*%
%TO.N,Net-(SW9-B)*%
X129617500Y-76099000D03*
%TO.P,U1,11,D0*%
%TO.N,/Button Module/data*%
X129617500Y-76749000D03*
%TO.P,U1,12,D1*%
%TO.N,/Button Module1/data*%
X129617500Y-77399000D03*
%TO.P,U1,13,D2*%
%TO.N,/Button Module2/data*%
X129617500Y-78049000D03*
%TO.P,U1,14,D3*%
%TO.N,/Button Module3/data*%
X129617500Y-78699000D03*
%TO.P,U1,15,~{CE}*%
%TO.N,GND*%
X129617500Y-79349000D03*
%TO.P,U1,16,VCC*%
%TO.N,VCC*%
X129617500Y-79999000D03*
D16*
%TO.P,U1,17*%
%TO.N,N/C*%
X133692500Y-78924000D03*
X133692500Y-76524000D03*
D17*
X132492500Y-77724000D03*
D16*
X131292500Y-78924000D03*
X131292500Y-76524000D03*
%TD*%
D18*
%TO.P,SW9,*%
%TO.N,*%
X128655000Y-85439000D03*
X128655000Y-87649000D03*
X135955000Y-85439000D03*
X135955000Y-87649000D03*
D19*
%TO.P,SW9,1,A*%
%TO.N,GND*%
X130055000Y-84789000D03*
%TO.P,SW9,2,B*%
%TO.N,Net-(SW9-B)*%
X133055000Y-84789000D03*
%TO.P,SW9,3,C*%
%TO.N,/DATA_IN*%
X134555000Y-84789000D03*
%TD*%
D20*
%TO.P,R1,1*%
%TO.N,Net-(R1-Pad1)*%
X84713000Y-77165066D03*
%TO.P,R1,2*%
%TO.N,VCC*%
X84713000Y-76525066D03*
%TD*%
D14*
%TO.P,btn_7,1,1*%
%TO.N,/Button Module6/data*%
X166239000Y-79270066D03*
%TO.P,btn_7,2,2*%
%TO.N,Net-(R7-Pad1)*%
X172089000Y-79270066D03*
%TO.P,btn_7,3,3*%
%TO.N,unconnected-(btn_7-Pad3)*%
X166239000Y-82270066D03*
%TO.P,btn_7,4,4*%
%TO.N,GND*%
X172089000Y-82270066D03*
%TD*%
D21*
%TO.P,C1,1*%
%TO.N,VCC*%
X129540000Y-80960000D03*
%TO.P,C1,2*%
%TO.N,GND*%
X129540000Y-81600000D03*
%TD*%
D14*
%TO.P,btn_6,1,1*%
%TO.N,/Button Module5/data*%
X153031000Y-79270066D03*
%TO.P,btn_6,2,2*%
%TO.N,Net-(R6-Pad1)*%
X158881000Y-79270066D03*
%TO.P,btn_6,3,3*%
%TO.N,unconnected-(btn_6-Pad3)*%
X153031000Y-82270066D03*
%TO.P,btn_6,4,4*%
%TO.N,GND*%
X158881000Y-82270066D03*
%TD*%
D20*
%TO.P,R6,1*%
%TO.N,Net-(R6-Pad1)*%
X158881000Y-77165066D03*
%TO.P,R6,2*%
%TO.N,VCC*%
X158881000Y-76525066D03*
%TD*%
D14*
%TO.P,btn_4,1,1*%
%TO.N,/Button Module3/data*%
X118487000Y-79270066D03*
%TO.P,btn_4,2,2*%
%TO.N,Net-(R4-Pad1)*%
X124337000Y-79270066D03*
%TO.P,btn_4,3,3*%
%TO.N,unconnected-(btn_4-Pad3)*%
X118487000Y-82270066D03*
%TO.P,btn_4,4,4*%
%TO.N,GND*%
X124337000Y-82270066D03*
%TD*%
D22*
%TO.P,JSTOUT1,1,Pin_1*%
%TO.N,GND*%
X62931000Y-79788000D03*
%TO.P,JSTOUT1,2,Pin_2*%
%TO.N,VCC*%
X62931000Y-80788000D03*
%TO.P,JSTOUT1,3,Pin_3*%
%TO.N,/DATA_LOAD*%
X62931000Y-81788000D03*
%TO.P,JSTOUT1,4,Pin_4*%
%TO.N,/DATA_CLK*%
X62931000Y-82788000D03*
%TO.P,JSTOUT1,5,Pin_5*%
%TO.N,/DATA_OUT*%
X62931000Y-83788000D03*
D23*
%TO.P,JSTOUT1,MP*%
%TO.N,N/C*%
X59056000Y-78488000D03*
X59056000Y-85088000D03*
%TD*%
D14*
%TO.P,SW2,1,1*%
%TO.N,/Button Module1/data*%
X92071000Y-79270066D03*
%TO.P,SW2,2,2*%
%TO.N,Net-(R2-Pad1)*%
X97921000Y-79270066D03*
%TO.P,SW2,3,3*%
%TO.N,unconnected-(SW2-Pad3)*%
X92071000Y-82270066D03*
%TO.P,SW2,4,4*%
%TO.N,GND*%
X97921000Y-82270066D03*
%TD*%
D11*
%TO.P,CONNOUT1,1,Pin_1*%
%TO.N,GND*%
X69538000Y-76713000D03*
D10*
%TO.P,CONNOUT1,2,Pin_2*%
%TO.N,VCC*%
X69538000Y-79253000D03*
%TO.P,CONNOUT1,3,Pin_3*%
%TO.N,/DATA_LOAD*%
X69538000Y-81793000D03*
%TO.P,CONNOUT1,4,Pin_4*%
%TO.N,/DATA_CLK*%
X69538000Y-84333000D03*
%TO.P,CONNOUT1,5,Pin_5*%
%TO.N,/DATA_OUT*%
X69538000Y-86873000D03*
%TD*%
D14*
%TO.P,SW8,1,1*%
%TO.N,/Button Module7/data*%
X179447000Y-79270066D03*
%TO.P,SW8,2,2*%
%TO.N,Net-(R8-Pad1)*%
X185297000Y-79270066D03*
%TO.P,SW8,3,3*%
%TO.N,unconnected-(SW8-Pad3)*%
X179447000Y-82270066D03*
%TO.P,SW8,4,4*%
%TO.N,GND*%
X185297000Y-82270066D03*
%TD*%
D24*
%TO.P,JSTIN1,1,Pin_1*%
%TO.N,GND*%
X201679000Y-83889600D03*
%TO.P,JSTIN1,2,Pin_2*%
%TO.N,VCC*%
X201679000Y-82889600D03*
%TO.P,JSTIN1,3,Pin_3*%
%TO.N,/DATA_LOAD*%
X201679000Y-81889600D03*
%TO.P,JSTIN1,4,Pin_4*%
%TO.N,/DATA_CLK*%
X201679000Y-80889600D03*
%TO.P,JSTIN1,5,Pin_5*%
%TO.N,/DATA_IN*%
X201679000Y-79889600D03*
D25*
%TO.P,JSTIN1,MP*%
%TO.N,N/C*%
X205554000Y-85189600D03*
X205554000Y-78589600D03*
%TD*%
D20*
%TO.P,R5,1*%
%TO.N,Net-(R5-Pad1)*%
X145673000Y-77165066D03*
%TO.P,R5,2*%
%TO.N,VCC*%
X145673000Y-76525066D03*
%TD*%
D14*
%TO.P,SW3,1,1*%
%TO.N,/Button Module2/data*%
X105279000Y-79270066D03*
%TO.P,SW3,2,2*%
%TO.N,Net-(R3-Pad1)*%
X111129000Y-79270066D03*
%TO.P,SW3,3,3*%
%TO.N,unconnected-(SW3-Pad3)*%
X105279000Y-82270066D03*
%TO.P,SW3,4,4*%
%TO.N,GND*%
X111129000Y-82270066D03*
%TD*%
D20*
%TO.P,R8,1*%
%TO.N,Net-(R8-Pad1)*%
X185281296Y-77165066D03*
%TO.P,R8,2*%
%TO.N,VCC*%
X185281296Y-76525066D03*
%TD*%
%TO.P,R3,1*%
%TO.N,Net-(R3-Pad1)*%
X111129000Y-77165066D03*
%TO.P,R3,2*%
%TO.N,VCC*%
X111129000Y-76525066D03*
%TD*%
%TO.P,R7,1*%
%TO.N,Net-(R7-Pad1)*%
X172089000Y-77165066D03*
%TO.P,R7,2*%
%TO.N,VCC*%
X172089000Y-76525066D03*
%TD*%
%TO.P,R4,1*%
%TO.N,Net-(R4-Pad1)*%
X124337000Y-77165066D03*
%TO.P,R4,2*%
%TO.N,VCC*%
X124337000Y-76525066D03*
%TD*%
D11*
%TO.P,CONNIN1,1,Pin_1*%
%TO.N,GND*%
X193998000Y-76713000D03*
D10*
%TO.P,CONNIN1,2,Pin_2*%
%TO.N,VCC*%
X193998000Y-79253000D03*
%TO.P,CONNIN1,3,Pin_3*%
%TO.N,/DATA_LOAD*%
X193998000Y-81793000D03*
%TO.P,CONNIN1,4,Pin_4*%
%TO.N,/DATA_CLK*%
X193998000Y-84333000D03*
%TO.P,CONNIN1,5,Pin_5*%
%TO.N,/DATA_IN*%
X193998000Y-86873000D03*
%TD*%
D20*
%TO.P,R2,1*%
%TO.N,Net-(R2-Pad1)*%
X97903860Y-77165066D03*
%TO.P,R2,2*%
%TO.N,VCC*%
X97903860Y-76525066D03*
%TD*%
D14*
%TO.P,btn_5,1,1*%
%TO.N,/Button Module4/data*%
X139823000Y-79270066D03*
%TO.P,btn_5,2,2*%
%TO.N,Net-(R5-Pad1)*%
X145673000Y-79270066D03*
%TO.P,btn_5,3,3*%
%TO.N,unconnected-(btn_5-Pad3)*%
X139823000Y-82270066D03*
%TO.P,btn_5,4,4*%
%TO.N,GND*%
X145673000Y-82270066D03*
%TD*%
D26*
%TO.N,VCC*%
X196596000Y-79756000D03*
X198628000Y-82804000D03*
%TO.N,GND*%
X130633963Y-83835000D03*
X197612000Y-83820000D03*
X127127000Y-81661000D03*
X185420000Y-84328000D03*
X145796000Y-84328000D03*
X130937000Y-81026000D03*
X172212000Y-84328000D03*
X159004000Y-84328000D03*
X137668000Y-75184000D03*
X84836000Y-84328000D03*
X98044000Y-84328000D03*
X111252000Y-84328000D03*
X125245949Y-83542051D03*
%TO.N,/Button Module1/data*%
X94361000Y-77597000D03*
X126365000Y-77597000D03*
%TO.N,/Button Module2/data*%
X106807000Y-78359000D03*
X127381000Y-78232000D03*
%TO.N,/Button Module/data*%
X127514794Y-76678000D03*
X81915000Y-76835000D03*
%TO.N,Net-(SW9-B)*%
X136779000Y-74295000D03*
X133569173Y-82896173D03*
%TO.N,/DATA_LOAD*%
X80010000Y-88265000D03*
X135382000Y-81407000D03*
%TO.N,/DATA_OUT*%
X65532000Y-74549000D03*
%TD*%
D27*
%TO.N,VCC*%
X172212000Y-75184000D02*
X185420000Y-75184000D01*
X206908000Y-85838134D02*
X203465134Y-89281000D01*
D28*
X129013000Y-81299000D02*
X125857000Y-84455000D01*
X172089000Y-75307000D02*
X172212000Y-75184000D01*
D27*
X194501000Y-79756000D02*
X193998000Y-79253000D01*
D28*
X146486934Y-76525066D02*
X147828000Y-75184000D01*
X129013000Y-80603500D02*
X129013000Y-81299000D01*
X111129000Y-76525066D02*
X111129000Y-75307000D01*
D27*
X69538000Y-79253000D02*
X73607000Y-75184000D01*
D28*
X97903860Y-76525066D02*
X97903860Y-75324140D01*
X129617500Y-79999000D02*
X129013000Y-80603500D01*
D27*
X66790658Y-89281000D02*
X61595000Y-84085342D01*
D28*
X129540000Y-80076500D02*
X129617500Y-79999000D01*
D27*
X111125000Y-75057000D02*
X124087000Y-75057000D01*
X198713600Y-82889600D02*
X198628000Y-82804000D01*
X196596000Y-79756000D02*
X194501000Y-79756000D01*
X147828000Y-75184000D02*
X159004000Y-75184000D01*
X98171000Y-75057000D02*
X111125000Y-75057000D01*
X117358000Y-81290000D02*
X121715448Y-81290000D01*
D28*
X124337000Y-76525066D02*
X124337000Y-75307000D01*
D27*
X196596000Y-79756000D02*
X199009000Y-77343000D01*
D28*
X84713000Y-76525066D02*
X84713000Y-75307000D01*
D27*
X189929000Y-75184000D02*
X193998000Y-79253000D01*
D28*
X185281296Y-75322704D02*
X185420000Y-75184000D01*
X129540000Y-80960000D02*
X129540000Y-80076500D01*
D27*
X124293000Y-76481066D02*
X124337000Y-76481066D01*
X62931000Y-80788000D02*
X68003000Y-80788000D01*
X121715448Y-81290000D02*
X124880448Y-84455000D01*
X68003000Y-80788000D02*
X69538000Y-79253000D01*
X98044000Y-75184000D02*
X98171000Y-75057000D01*
D28*
X172089000Y-76525066D02*
X172089000Y-75307000D01*
D27*
X62156001Y-80788000D02*
X62931000Y-80788000D01*
D28*
X185281296Y-76525066D02*
X185281296Y-75322704D01*
D27*
X206908000Y-83341074D02*
X206908000Y-85838134D01*
X203465134Y-89281000D02*
X66790658Y-89281000D01*
X111125000Y-75057000D02*
X117358000Y-81290000D01*
D28*
X158881000Y-75307000D02*
X159004000Y-75184000D01*
D27*
X73607000Y-75184000D02*
X84836000Y-75184000D01*
X124087000Y-75057000D02*
X124337000Y-75307000D01*
X84836000Y-75184000D02*
X98044000Y-75184000D01*
X61595000Y-84085342D02*
X61595000Y-81349001D01*
D28*
X158881000Y-76525066D02*
X158881000Y-75307000D01*
D27*
X124880448Y-84455000D02*
X125857000Y-84455000D01*
D28*
X84713000Y-75307000D02*
X84836000Y-75184000D01*
D27*
X199009000Y-77343000D02*
X200909926Y-77343000D01*
X185420000Y-75184000D02*
X189929000Y-75184000D01*
X201679000Y-82889600D02*
X198713600Y-82889600D01*
X61595000Y-81349001D02*
X62156001Y-80788000D01*
X159004000Y-75184000D02*
X172212000Y-75184000D01*
D28*
X145673000Y-76525066D02*
X146486934Y-76525066D01*
X97903860Y-75324140D02*
X98044000Y-75184000D01*
D27*
X200909926Y-77343000D02*
X206908000Y-83341074D01*
%TO.N,GND*%
X97921000Y-82270066D02*
X97921000Y-84205000D01*
D28*
X129540000Y-81600000D02*
X130363000Y-81600000D01*
D27*
X124337000Y-82270066D02*
X125245949Y-83179015D01*
D28*
X129617500Y-79349000D02*
X128842501Y-79349000D01*
X135367500Y-75449000D02*
X137403000Y-75449000D01*
D27*
X97921000Y-84205000D02*
X98044000Y-84328000D01*
X125245949Y-83179015D02*
X125245949Y-83542051D01*
X197681600Y-83889600D02*
X197612000Y-83820000D01*
D28*
X128842501Y-79349000D02*
X127127000Y-81064501D01*
D27*
X185297000Y-82270066D02*
X185297000Y-84205000D01*
X84713000Y-84205000D02*
X84836000Y-84328000D01*
X84713000Y-82270066D02*
X84713000Y-84205000D01*
X201679000Y-83889600D02*
X197681600Y-83889600D01*
X130055000Y-84789000D02*
X130055000Y-84413963D01*
X185297000Y-84205000D02*
X185420000Y-84328000D01*
X145673000Y-82270066D02*
X145673000Y-84205000D01*
D28*
X137403000Y-75449000D02*
X137668000Y-75184000D01*
D27*
X172089000Y-82270066D02*
X172089000Y-84205000D01*
X158881000Y-82270066D02*
X158881000Y-84205000D01*
X62931000Y-79788000D02*
X66463000Y-79788000D01*
X158881000Y-84205000D02*
X159004000Y-84328000D01*
X111129000Y-82270066D02*
X111129000Y-84205000D01*
D28*
X127127000Y-81064501D02*
X127127000Y-81661000D01*
D27*
X111129000Y-84205000D02*
X111252000Y-84328000D01*
X130055000Y-84413963D02*
X130633963Y-83835000D01*
X66463000Y-79788000D02*
X69538000Y-76713000D01*
X172089000Y-84205000D02*
X172212000Y-84328000D01*
D28*
X130363000Y-81600000D02*
X130937000Y-81026000D01*
D27*
X145673000Y-84205000D02*
X145796000Y-84328000D01*
%TO.N,Net-(R1-Pad1)*%
X84713000Y-79270066D02*
X84713000Y-77209066D01*
%TO.N,Net-(R2-Pad1)*%
X97921000Y-77226206D02*
X97903860Y-77209066D01*
X97921000Y-79270066D02*
X97921000Y-77226206D01*
%TO.N,Net-(R3-Pad1)*%
X111129000Y-79270066D02*
X111129000Y-77209066D01*
%TO.N,Net-(R4-Pad1)*%
X124337000Y-79270066D02*
X124337000Y-77209066D01*
%TO.N,Net-(R5-Pad1)*%
X145673000Y-79270066D02*
X145673000Y-77209066D01*
%TO.N,Net-(R6-Pad1)*%
X158881000Y-79270066D02*
X158881000Y-77209066D01*
%TO.N,Net-(R7-Pad1)*%
X172089000Y-79270066D02*
X172089000Y-77209066D01*
%TO.N,Net-(R8-Pad1)*%
X185297000Y-79270066D02*
X185297000Y-77224770D01*
X185297000Y-77224770D02*
X185281296Y-77209066D01*
D28*
%TO.N,/Button Module1/data*%
X126365000Y-77597000D02*
X126507000Y-77455000D01*
X92071000Y-79270066D02*
X93744066Y-77597000D01*
X93744066Y-77597000D02*
X94361000Y-77597000D01*
X126507000Y-77455000D02*
X129561500Y-77455000D01*
X129561500Y-77455000D02*
X129617500Y-77399000D01*
%TO.N,/Button Module2/data*%
X127564000Y-78049000D02*
X129617500Y-78049000D01*
X105895934Y-79270066D02*
X106807000Y-78359000D01*
X127381000Y-78232000D02*
X127564000Y-78049000D01*
X105279000Y-79270066D02*
X105895934Y-79270066D01*
%TO.N,/Button Module3/data*%
X128692000Y-78699000D02*
X129617500Y-78699000D01*
X127343934Y-80047066D02*
X128692000Y-78699000D01*
X118487000Y-79270066D02*
X119264000Y-80047066D01*
X119264000Y-80047066D02*
X127343934Y-80047066D01*
%TO.N,/Button Module4/data*%
X139823000Y-79270066D02*
X139251934Y-78699000D01*
X139251934Y-78699000D02*
X135367500Y-78699000D01*
%TO.N,/Button Module5/data*%
X140063814Y-78049000D02*
X135367500Y-78049000D01*
X143059814Y-81045000D02*
X140063814Y-78049000D01*
X151256066Y-81045000D02*
X143059814Y-81045000D01*
X153031000Y-79270066D02*
X151256066Y-81045000D01*
%TO.N,/Button Module6/data*%
X150338120Y-80501066D02*
X143157932Y-80501066D01*
X152346120Y-78493066D02*
X150338120Y-80501066D01*
X165008000Y-80501066D02*
X155723880Y-80501066D01*
X155723880Y-80501066D02*
X153715880Y-78493066D01*
X166239000Y-79270066D02*
X165008000Y-80501066D01*
X140055866Y-77399000D02*
X135367500Y-77399000D01*
X143157932Y-80501066D02*
X140055866Y-77399000D01*
X153715880Y-78493066D02*
X152346120Y-78493066D01*
%TO.N,/Button Module7/data*%
X152727134Y-77470000D02*
X150150068Y-80047066D01*
X178216000Y-80501066D02*
X168931880Y-80501066D01*
X179447000Y-79270066D02*
X178216000Y-80501066D01*
X156247066Y-80047066D02*
X153670000Y-77470000D01*
X143345984Y-80047066D02*
X140047918Y-76749000D01*
X166916814Y-78486000D02*
X161126946Y-78486000D01*
X168931880Y-80501066D02*
X166916814Y-78486000D01*
X153670000Y-77470000D02*
X152727134Y-77470000D01*
X140047918Y-76749000D02*
X135367500Y-76749000D01*
X161126946Y-78486000D02*
X159565880Y-80047066D01*
X159565880Y-80047066D02*
X156247066Y-80047066D01*
X150150068Y-80047066D02*
X143345984Y-80047066D01*
%TO.N,/Button Module/data*%
X129617500Y-76749000D02*
X127585794Y-76749000D01*
X81298066Y-76835000D02*
X81915000Y-76835000D01*
X127585794Y-76749000D02*
X127514794Y-76678000D01*
X78863000Y-79270066D02*
X81298066Y-76835000D01*
%TO.N,Net-(SW9-B)*%
X132267500Y-74295000D02*
X136779000Y-74295000D01*
X130463500Y-76099000D02*
X132267500Y-74295000D01*
X133055000Y-84789000D02*
X133055000Y-83410346D01*
X133055000Y-83410346D02*
X133569173Y-82896173D01*
X129617500Y-76099000D02*
X130463500Y-76099000D01*
D27*
%TO.N,/DATA_IN*%
X139764658Y-86873000D02*
X193998000Y-86873000D01*
X203616000Y-81050338D02*
X203616000Y-85436000D01*
X134555000Y-84789000D02*
X134555000Y-84110550D01*
X201679000Y-79889600D02*
X202455262Y-79889600D01*
X134555000Y-84110550D02*
X135134550Y-83531000D01*
X203616000Y-85436000D02*
X202179000Y-86873000D01*
X135134550Y-83531000D02*
X136422658Y-83531000D01*
X202455262Y-79889600D02*
X203616000Y-81050338D01*
X136422658Y-83531000D02*
X139764658Y-86873000D01*
X202179000Y-86873000D02*
X193998000Y-86873000D01*
D28*
%TO.N,/DATA_LOAD*%
X124333000Y-88265000D02*
X81788000Y-88265000D01*
X81788000Y-88265000D02*
X81661000Y-88265000D01*
X128397000Y-84438998D02*
X128159002Y-84438998D01*
X135367500Y-81392500D02*
X135382000Y-81407000D01*
X135367500Y-79999000D02*
X135367500Y-81392500D01*
D27*
X194094600Y-81889600D02*
X193998000Y-81793000D01*
D28*
X129777998Y-83058000D02*
X128397000Y-84438998D01*
D27*
X201679000Y-81889600D02*
X194094600Y-81889600D01*
D28*
X132308500Y-83058000D02*
X129777998Y-83058000D01*
D27*
X69533000Y-81788000D02*
X69538000Y-81793000D01*
D28*
X135367500Y-79999000D02*
X132308500Y-83058000D01*
X81661000Y-88265000D02*
X80010000Y-88265000D01*
X128159002Y-84438998D02*
X124333000Y-88265000D01*
D27*
X62931000Y-81788000D02*
X69533000Y-81788000D01*
D28*
%TO.N,/DATA_CLK*%
X127970950Y-83984998D02*
X124960948Y-86995000D01*
X138049000Y-81255501D02*
X138049000Y-82804000D01*
X128022158Y-83984998D02*
X127970950Y-83984998D01*
X72200000Y-86995000D02*
X69538000Y-84333000D01*
X138049000Y-82804000D02*
X139249000Y-84004000D01*
X193114000Y-85217000D02*
X193998000Y-84333000D01*
D27*
X202453999Y-80889600D02*
X202908000Y-81343601D01*
X67993000Y-82788000D02*
X69538000Y-84333000D01*
X202908000Y-81343601D02*
X202908000Y-84620000D01*
X202908000Y-84620000D02*
X202345000Y-85183000D01*
D28*
X135367500Y-79349000D02*
X134384948Y-79349000D01*
D27*
X62931000Y-82788000D02*
X67993000Y-82788000D01*
X201679000Y-80889600D02*
X202453999Y-80889600D01*
X194848000Y-85183000D02*
X193998000Y-84333000D01*
D28*
X136142499Y-79349000D02*
X138049000Y-81255501D01*
X139816658Y-84004000D02*
X141029658Y-85217000D01*
X135367500Y-79349000D02*
X136142499Y-79349000D01*
D27*
X202345000Y-85183000D02*
X194848000Y-85183000D01*
D28*
X139249000Y-84004000D02*
X139816658Y-84004000D01*
X124960948Y-86995000D02*
X72200000Y-86995000D01*
X129953156Y-82054000D02*
X128022158Y-83984998D01*
X131679948Y-82054000D02*
X129953156Y-82054000D01*
X141029658Y-85217000D02*
X193114000Y-85217000D01*
X134384948Y-79349000D02*
X131679948Y-82054000D01*
%TO.N,/DATA_OUT*%
X128644500Y-74476000D02*
X65605000Y-74476000D01*
X129617500Y-75449000D02*
X128644500Y-74476000D01*
D27*
X62931000Y-83788000D02*
X66453000Y-83788000D01*
X66453000Y-83788000D02*
X69538000Y-86873000D01*
D28*
X65605000Y-74476000D02*
X65532000Y-74549000D01*
%TD*%
M02*
