%TF.GenerationSoftware,KiCad,Pcbnew,8.0.1*%
%TF.CreationDate,2024-04-18T15:32:06-04:00*%
%TF.ProjectId,bombay_beats,626f6d62-6179-45f6-9265-6174732e6b69,rev?*%
%TF.SameCoordinates,Original*%
%TF.FileFunction,Legend,Top*%
%TF.FilePolarity,Positive*%
%FSLAX46Y46*%
G04 Gerber Fmt 4.6, Leading zero omitted, Abs format (unit mm)*
G04 Created by KiCad (PCBNEW 8.0.1) date 2024-04-18 15:32:06*
%MOMM*%
%LPD*%
G01*
G04 APERTURE LIST*
%ADD10C,0.150000*%
%ADD11C,0.100000*%
%ADD12C,0.120000*%
G04 APERTURE END LIST*
D10*
X130971667Y-83426200D02*
X131114524Y-83473819D01*
X131114524Y-83473819D02*
X131352619Y-83473819D01*
X131352619Y-83473819D02*
X131447857Y-83426200D01*
X131447857Y-83426200D02*
X131495476Y-83378580D01*
X131495476Y-83378580D02*
X131543095Y-83283342D01*
X131543095Y-83283342D02*
X131543095Y-83188104D01*
X131543095Y-83188104D02*
X131495476Y-83092866D01*
X131495476Y-83092866D02*
X131447857Y-83045247D01*
X131447857Y-83045247D02*
X131352619Y-82997628D01*
X131352619Y-82997628D02*
X131162143Y-82950009D01*
X131162143Y-82950009D02*
X131066905Y-82902390D01*
X131066905Y-82902390D02*
X131019286Y-82854771D01*
X131019286Y-82854771D02*
X130971667Y-82759533D01*
X130971667Y-82759533D02*
X130971667Y-82664295D01*
X130971667Y-82664295D02*
X131019286Y-82569057D01*
X131019286Y-82569057D02*
X131066905Y-82521438D01*
X131066905Y-82521438D02*
X131162143Y-82473819D01*
X131162143Y-82473819D02*
X131400238Y-82473819D01*
X131400238Y-82473819D02*
X131543095Y-82521438D01*
X131876429Y-82473819D02*
X132114524Y-83473819D01*
X132114524Y-83473819D02*
X132305000Y-82759533D01*
X132305000Y-82759533D02*
X132495476Y-83473819D01*
X132495476Y-83473819D02*
X132733572Y-82473819D01*
X133638333Y-83473819D02*
X133066905Y-83473819D01*
X133352619Y-83473819D02*
X133352619Y-82473819D01*
X133352619Y-82473819D02*
X133257381Y-82616676D01*
X133257381Y-82616676D02*
X133162143Y-82711914D01*
X133162143Y-82711914D02*
X133066905Y-82759533D01*
X131730595Y-80628819D02*
X131730595Y-81438342D01*
X131730595Y-81438342D02*
X131778214Y-81533580D01*
X131778214Y-81533580D02*
X131825833Y-81581200D01*
X131825833Y-81581200D02*
X131921071Y-81628819D01*
X131921071Y-81628819D02*
X132111547Y-81628819D01*
X132111547Y-81628819D02*
X132206785Y-81581200D01*
X132206785Y-81581200D02*
X132254404Y-81533580D01*
X132254404Y-81533580D02*
X132302023Y-81438342D01*
X132302023Y-81438342D02*
X132302023Y-80628819D01*
X133302023Y-81628819D02*
X132730595Y-81628819D01*
X133016309Y-81628819D02*
X133016309Y-80628819D01*
X133016309Y-80628819D02*
X132921071Y-80771676D01*
X132921071Y-80771676D02*
X132825833Y-80866914D01*
X132825833Y-80866914D02*
X132730595Y-80914533D01*
D11*
X80203476Y-84927485D02*
X80203476Y-83927485D01*
X80203476Y-84308437D02*
X80298714Y-84260818D01*
X80298714Y-84260818D02*
X80489190Y-84260818D01*
X80489190Y-84260818D02*
X80584428Y-84308437D01*
X80584428Y-84308437D02*
X80632047Y-84356056D01*
X80632047Y-84356056D02*
X80679666Y-84451294D01*
X80679666Y-84451294D02*
X80679666Y-84737008D01*
X80679666Y-84737008D02*
X80632047Y-84832246D01*
X80632047Y-84832246D02*
X80584428Y-84879866D01*
X80584428Y-84879866D02*
X80489190Y-84927485D01*
X80489190Y-84927485D02*
X80298714Y-84927485D01*
X80298714Y-84927485D02*
X80203476Y-84879866D01*
X80965381Y-84260818D02*
X81346333Y-84260818D01*
X81108238Y-83927485D02*
X81108238Y-84784627D01*
X81108238Y-84784627D02*
X81155857Y-84879866D01*
X81155857Y-84879866D02*
X81251095Y-84927485D01*
X81251095Y-84927485D02*
X81346333Y-84927485D01*
X81679667Y-84260818D02*
X81679667Y-84927485D01*
X81679667Y-84356056D02*
X81727286Y-84308437D01*
X81727286Y-84308437D02*
X81822524Y-84260818D01*
X81822524Y-84260818D02*
X81965381Y-84260818D01*
X81965381Y-84260818D02*
X82060619Y-84308437D01*
X82060619Y-84308437D02*
X82108238Y-84403675D01*
X82108238Y-84403675D02*
X82108238Y-84927485D01*
X82346334Y-85022723D02*
X83108238Y-85022723D01*
X83870143Y-84927485D02*
X83298715Y-84927485D01*
X83584429Y-84927485D02*
X83584429Y-83927485D01*
X83584429Y-83927485D02*
X83489191Y-84070342D01*
X83489191Y-84070342D02*
X83393953Y-84165580D01*
X83393953Y-84165580D02*
X83298715Y-84213199D01*
D10*
X84117819Y-77011732D02*
X83641628Y-77345065D01*
X84117819Y-77583160D02*
X83117819Y-77583160D01*
X83117819Y-77583160D02*
X83117819Y-77202208D01*
X83117819Y-77202208D02*
X83165438Y-77106970D01*
X83165438Y-77106970D02*
X83213057Y-77059351D01*
X83213057Y-77059351D02*
X83308295Y-77011732D01*
X83308295Y-77011732D02*
X83451152Y-77011732D01*
X83451152Y-77011732D02*
X83546390Y-77059351D01*
X83546390Y-77059351D02*
X83594009Y-77106970D01*
X83594009Y-77106970D02*
X83641628Y-77202208D01*
X83641628Y-77202208D02*
X83641628Y-77583160D01*
X84117819Y-76059351D02*
X84117819Y-76630779D01*
X84117819Y-76345065D02*
X83117819Y-76345065D01*
X83117819Y-76345065D02*
X83260676Y-76440303D01*
X83260676Y-76440303D02*
X83355914Y-76535541D01*
X83355914Y-76535541D02*
X83403533Y-76630779D01*
D11*
X167579476Y-84927485D02*
X167579476Y-83927485D01*
X167579476Y-84308437D02*
X167674714Y-84260818D01*
X167674714Y-84260818D02*
X167865190Y-84260818D01*
X167865190Y-84260818D02*
X167960428Y-84308437D01*
X167960428Y-84308437D02*
X168008047Y-84356056D01*
X168008047Y-84356056D02*
X168055666Y-84451294D01*
X168055666Y-84451294D02*
X168055666Y-84737008D01*
X168055666Y-84737008D02*
X168008047Y-84832246D01*
X168008047Y-84832246D02*
X167960428Y-84879866D01*
X167960428Y-84879866D02*
X167865190Y-84927485D01*
X167865190Y-84927485D02*
X167674714Y-84927485D01*
X167674714Y-84927485D02*
X167579476Y-84879866D01*
X168341381Y-84260818D02*
X168722333Y-84260818D01*
X168484238Y-83927485D02*
X168484238Y-84784627D01*
X168484238Y-84784627D02*
X168531857Y-84879866D01*
X168531857Y-84879866D02*
X168627095Y-84927485D01*
X168627095Y-84927485D02*
X168722333Y-84927485D01*
X169055667Y-84260818D02*
X169055667Y-84927485D01*
X169055667Y-84356056D02*
X169103286Y-84308437D01*
X169103286Y-84308437D02*
X169198524Y-84260818D01*
X169198524Y-84260818D02*
X169341381Y-84260818D01*
X169341381Y-84260818D02*
X169436619Y-84308437D01*
X169436619Y-84308437D02*
X169484238Y-84403675D01*
X169484238Y-84403675D02*
X169484238Y-84927485D01*
X169722334Y-85022723D02*
X170484238Y-85022723D01*
X170627096Y-83927485D02*
X171293762Y-83927485D01*
X171293762Y-83927485D02*
X170865191Y-84927485D01*
D10*
X130949580Y-81446666D02*
X130997200Y-81494285D01*
X130997200Y-81494285D02*
X131044819Y-81637142D01*
X131044819Y-81637142D02*
X131044819Y-81732380D01*
X131044819Y-81732380D02*
X130997200Y-81875237D01*
X130997200Y-81875237D02*
X130901961Y-81970475D01*
X130901961Y-81970475D02*
X130806723Y-82018094D01*
X130806723Y-82018094D02*
X130616247Y-82065713D01*
X130616247Y-82065713D02*
X130473390Y-82065713D01*
X130473390Y-82065713D02*
X130282914Y-82018094D01*
X130282914Y-82018094D02*
X130187676Y-81970475D01*
X130187676Y-81970475D02*
X130092438Y-81875237D01*
X130092438Y-81875237D02*
X130044819Y-81732380D01*
X130044819Y-81732380D02*
X130044819Y-81637142D01*
X130044819Y-81637142D02*
X130092438Y-81494285D01*
X130092438Y-81494285D02*
X130140057Y-81446666D01*
X131044819Y-80494285D02*
X131044819Y-81065713D01*
X131044819Y-80779999D02*
X130044819Y-80779999D01*
X130044819Y-80779999D02*
X130187676Y-80875237D01*
X130187676Y-80875237D02*
X130282914Y-80970475D01*
X130282914Y-80970475D02*
X130330533Y-81065713D01*
D11*
X154371476Y-84927485D02*
X154371476Y-83927485D01*
X154371476Y-84308437D02*
X154466714Y-84260818D01*
X154466714Y-84260818D02*
X154657190Y-84260818D01*
X154657190Y-84260818D02*
X154752428Y-84308437D01*
X154752428Y-84308437D02*
X154800047Y-84356056D01*
X154800047Y-84356056D02*
X154847666Y-84451294D01*
X154847666Y-84451294D02*
X154847666Y-84737008D01*
X154847666Y-84737008D02*
X154800047Y-84832246D01*
X154800047Y-84832246D02*
X154752428Y-84879866D01*
X154752428Y-84879866D02*
X154657190Y-84927485D01*
X154657190Y-84927485D02*
X154466714Y-84927485D01*
X154466714Y-84927485D02*
X154371476Y-84879866D01*
X155133381Y-84260818D02*
X155514333Y-84260818D01*
X155276238Y-83927485D02*
X155276238Y-84784627D01*
X155276238Y-84784627D02*
X155323857Y-84879866D01*
X155323857Y-84879866D02*
X155419095Y-84927485D01*
X155419095Y-84927485D02*
X155514333Y-84927485D01*
X155847667Y-84260818D02*
X155847667Y-84927485D01*
X155847667Y-84356056D02*
X155895286Y-84308437D01*
X155895286Y-84308437D02*
X155990524Y-84260818D01*
X155990524Y-84260818D02*
X156133381Y-84260818D01*
X156133381Y-84260818D02*
X156228619Y-84308437D01*
X156228619Y-84308437D02*
X156276238Y-84403675D01*
X156276238Y-84403675D02*
X156276238Y-84927485D01*
X156514334Y-85022723D02*
X157276238Y-85022723D01*
X157942905Y-83927485D02*
X157752429Y-83927485D01*
X157752429Y-83927485D02*
X157657191Y-83975104D01*
X157657191Y-83975104D02*
X157609572Y-84022723D01*
X157609572Y-84022723D02*
X157514334Y-84165580D01*
X157514334Y-84165580D02*
X157466715Y-84356056D01*
X157466715Y-84356056D02*
X157466715Y-84737008D01*
X157466715Y-84737008D02*
X157514334Y-84832246D01*
X157514334Y-84832246D02*
X157561953Y-84879866D01*
X157561953Y-84879866D02*
X157657191Y-84927485D01*
X157657191Y-84927485D02*
X157847667Y-84927485D01*
X157847667Y-84927485D02*
X157942905Y-84879866D01*
X157942905Y-84879866D02*
X157990524Y-84832246D01*
X157990524Y-84832246D02*
X158038143Y-84737008D01*
X158038143Y-84737008D02*
X158038143Y-84498913D01*
X158038143Y-84498913D02*
X157990524Y-84403675D01*
X157990524Y-84403675D02*
X157942905Y-84356056D01*
X157942905Y-84356056D02*
X157847667Y-84308437D01*
X157847667Y-84308437D02*
X157657191Y-84308437D01*
X157657191Y-84308437D02*
X157561953Y-84356056D01*
X157561953Y-84356056D02*
X157514334Y-84403675D01*
X157514334Y-84403675D02*
X157466715Y-84498913D01*
D10*
X158285819Y-77011732D02*
X157809628Y-77345065D01*
X158285819Y-77583160D02*
X157285819Y-77583160D01*
X157285819Y-77583160D02*
X157285819Y-77202208D01*
X157285819Y-77202208D02*
X157333438Y-77106970D01*
X157333438Y-77106970D02*
X157381057Y-77059351D01*
X157381057Y-77059351D02*
X157476295Y-77011732D01*
X157476295Y-77011732D02*
X157619152Y-77011732D01*
X157619152Y-77011732D02*
X157714390Y-77059351D01*
X157714390Y-77059351D02*
X157762009Y-77106970D01*
X157762009Y-77106970D02*
X157809628Y-77202208D01*
X157809628Y-77202208D02*
X157809628Y-77583160D01*
X157285819Y-76154589D02*
X157285819Y-76345065D01*
X157285819Y-76345065D02*
X157333438Y-76440303D01*
X157333438Y-76440303D02*
X157381057Y-76487922D01*
X157381057Y-76487922D02*
X157523914Y-76583160D01*
X157523914Y-76583160D02*
X157714390Y-76630779D01*
X157714390Y-76630779D02*
X158095342Y-76630779D01*
X158095342Y-76630779D02*
X158190580Y-76583160D01*
X158190580Y-76583160D02*
X158238200Y-76535541D01*
X158238200Y-76535541D02*
X158285819Y-76440303D01*
X158285819Y-76440303D02*
X158285819Y-76249827D01*
X158285819Y-76249827D02*
X158238200Y-76154589D01*
X158238200Y-76154589D02*
X158190580Y-76106970D01*
X158190580Y-76106970D02*
X158095342Y-76059351D01*
X158095342Y-76059351D02*
X157857247Y-76059351D01*
X157857247Y-76059351D02*
X157762009Y-76106970D01*
X157762009Y-76106970D02*
X157714390Y-76154589D01*
X157714390Y-76154589D02*
X157666771Y-76249827D01*
X157666771Y-76249827D02*
X157666771Y-76440303D01*
X157666771Y-76440303D02*
X157714390Y-76535541D01*
X157714390Y-76535541D02*
X157762009Y-76583160D01*
X157762009Y-76583160D02*
X157857247Y-76630779D01*
D11*
X119827476Y-84927485D02*
X119827476Y-83927485D01*
X119827476Y-84308437D02*
X119922714Y-84260818D01*
X119922714Y-84260818D02*
X120113190Y-84260818D01*
X120113190Y-84260818D02*
X120208428Y-84308437D01*
X120208428Y-84308437D02*
X120256047Y-84356056D01*
X120256047Y-84356056D02*
X120303666Y-84451294D01*
X120303666Y-84451294D02*
X120303666Y-84737008D01*
X120303666Y-84737008D02*
X120256047Y-84832246D01*
X120256047Y-84832246D02*
X120208428Y-84879866D01*
X120208428Y-84879866D02*
X120113190Y-84927485D01*
X120113190Y-84927485D02*
X119922714Y-84927485D01*
X119922714Y-84927485D02*
X119827476Y-84879866D01*
X120589381Y-84260818D02*
X120970333Y-84260818D01*
X120732238Y-83927485D02*
X120732238Y-84784627D01*
X120732238Y-84784627D02*
X120779857Y-84879866D01*
X120779857Y-84879866D02*
X120875095Y-84927485D01*
X120875095Y-84927485D02*
X120970333Y-84927485D01*
X121303667Y-84260818D02*
X121303667Y-84927485D01*
X121303667Y-84356056D02*
X121351286Y-84308437D01*
X121351286Y-84308437D02*
X121446524Y-84260818D01*
X121446524Y-84260818D02*
X121589381Y-84260818D01*
X121589381Y-84260818D02*
X121684619Y-84308437D01*
X121684619Y-84308437D02*
X121732238Y-84403675D01*
X121732238Y-84403675D02*
X121732238Y-84927485D01*
X121970334Y-85022723D02*
X122732238Y-85022723D01*
X123398905Y-84260818D02*
X123398905Y-84927485D01*
X123160810Y-83879866D02*
X122922715Y-84594151D01*
X122922715Y-84594151D02*
X123541762Y-84594151D01*
D10*
X64699152Y-84526095D02*
X65556295Y-84526095D01*
X65556295Y-84526095D02*
X65651533Y-84573714D01*
X65651533Y-84573714D02*
X65699152Y-84668952D01*
X65699152Y-84668952D02*
X65699152Y-84716571D01*
X64365819Y-84526095D02*
X64413438Y-84573714D01*
X64413438Y-84573714D02*
X64461057Y-84526095D01*
X64461057Y-84526095D02*
X64413438Y-84478476D01*
X64413438Y-84478476D02*
X64365819Y-84526095D01*
X64365819Y-84526095D02*
X64461057Y-84526095D01*
X65318200Y-84097524D02*
X65365819Y-84002286D01*
X65365819Y-84002286D02*
X65365819Y-83811810D01*
X65365819Y-83811810D02*
X65318200Y-83716572D01*
X65318200Y-83716572D02*
X65222961Y-83668953D01*
X65222961Y-83668953D02*
X65175342Y-83668953D01*
X65175342Y-83668953D02*
X65080104Y-83716572D01*
X65080104Y-83716572D02*
X65032485Y-83811810D01*
X65032485Y-83811810D02*
X65032485Y-83954667D01*
X65032485Y-83954667D02*
X64984866Y-84049905D01*
X64984866Y-84049905D02*
X64889628Y-84097524D01*
X64889628Y-84097524D02*
X64842009Y-84097524D01*
X64842009Y-84097524D02*
X64746771Y-84049905D01*
X64746771Y-84049905D02*
X64699152Y-83954667D01*
X64699152Y-83954667D02*
X64699152Y-83811810D01*
X64699152Y-83811810D02*
X64746771Y-83716572D01*
X64699152Y-83383238D02*
X64699152Y-83002286D01*
X64365819Y-83240381D02*
X65222961Y-83240381D01*
X65222961Y-83240381D02*
X65318200Y-83192762D01*
X65318200Y-83192762D02*
X65365819Y-83097524D01*
X65365819Y-83097524D02*
X65365819Y-83002286D01*
X65461057Y-82907048D02*
X65461057Y-82145143D01*
X65365819Y-81764190D02*
X65318200Y-81859428D01*
X65318200Y-81859428D02*
X65270580Y-81907047D01*
X65270580Y-81907047D02*
X65175342Y-81954666D01*
X65175342Y-81954666D02*
X64889628Y-81954666D01*
X64889628Y-81954666D02*
X64794390Y-81907047D01*
X64794390Y-81907047D02*
X64746771Y-81859428D01*
X64746771Y-81859428D02*
X64699152Y-81764190D01*
X64699152Y-81764190D02*
X64699152Y-81621333D01*
X64699152Y-81621333D02*
X64746771Y-81526095D01*
X64746771Y-81526095D02*
X64794390Y-81478476D01*
X64794390Y-81478476D02*
X64889628Y-81430857D01*
X64889628Y-81430857D02*
X65175342Y-81430857D01*
X65175342Y-81430857D02*
X65270580Y-81478476D01*
X65270580Y-81478476D02*
X65318200Y-81526095D01*
X65318200Y-81526095D02*
X65365819Y-81621333D01*
X65365819Y-81621333D02*
X65365819Y-81764190D01*
X64699152Y-80573714D02*
X65365819Y-80573714D01*
X64699152Y-81002285D02*
X65222961Y-81002285D01*
X65222961Y-81002285D02*
X65318200Y-80954666D01*
X65318200Y-80954666D02*
X65365819Y-80859428D01*
X65365819Y-80859428D02*
X65365819Y-80716571D01*
X65365819Y-80716571D02*
X65318200Y-80621333D01*
X65318200Y-80621333D02*
X65270580Y-80573714D01*
X64699152Y-80240380D02*
X64699152Y-79859428D01*
X64365819Y-80097523D02*
X65222961Y-80097523D01*
X65222961Y-80097523D02*
X65318200Y-80049904D01*
X65318200Y-80049904D02*
X65365819Y-79954666D01*
X65365819Y-79954666D02*
X65365819Y-79859428D01*
X65365819Y-79002285D02*
X65365819Y-79573713D01*
X65365819Y-79287999D02*
X64365819Y-79287999D01*
X64365819Y-79287999D02*
X64508676Y-79383237D01*
X64508676Y-79383237D02*
X64603914Y-79478475D01*
X64603914Y-79478475D02*
X64651533Y-79573713D01*
D11*
X93411476Y-84927485D02*
X93411476Y-83927485D01*
X93411476Y-84308437D02*
X93506714Y-84260818D01*
X93506714Y-84260818D02*
X93697190Y-84260818D01*
X93697190Y-84260818D02*
X93792428Y-84308437D01*
X93792428Y-84308437D02*
X93840047Y-84356056D01*
X93840047Y-84356056D02*
X93887666Y-84451294D01*
X93887666Y-84451294D02*
X93887666Y-84737008D01*
X93887666Y-84737008D02*
X93840047Y-84832246D01*
X93840047Y-84832246D02*
X93792428Y-84879866D01*
X93792428Y-84879866D02*
X93697190Y-84927485D01*
X93697190Y-84927485D02*
X93506714Y-84927485D01*
X93506714Y-84927485D02*
X93411476Y-84879866D01*
X94173381Y-84260818D02*
X94554333Y-84260818D01*
X94316238Y-83927485D02*
X94316238Y-84784627D01*
X94316238Y-84784627D02*
X94363857Y-84879866D01*
X94363857Y-84879866D02*
X94459095Y-84927485D01*
X94459095Y-84927485D02*
X94554333Y-84927485D01*
X94887667Y-84260818D02*
X94887667Y-84927485D01*
X94887667Y-84356056D02*
X94935286Y-84308437D01*
X94935286Y-84308437D02*
X95030524Y-84260818D01*
X95030524Y-84260818D02*
X95173381Y-84260818D01*
X95173381Y-84260818D02*
X95268619Y-84308437D01*
X95268619Y-84308437D02*
X95316238Y-84403675D01*
X95316238Y-84403675D02*
X95316238Y-84927485D01*
X95554334Y-85022723D02*
X96316238Y-85022723D01*
X96506715Y-84022723D02*
X96554334Y-83975104D01*
X96554334Y-83975104D02*
X96649572Y-83927485D01*
X96649572Y-83927485D02*
X96887667Y-83927485D01*
X96887667Y-83927485D02*
X96982905Y-83975104D01*
X96982905Y-83975104D02*
X97030524Y-84022723D01*
X97030524Y-84022723D02*
X97078143Y-84117961D01*
X97078143Y-84117961D02*
X97078143Y-84213199D01*
X97078143Y-84213199D02*
X97030524Y-84356056D01*
X97030524Y-84356056D02*
X96459096Y-84927485D01*
X96459096Y-84927485D02*
X97078143Y-84927485D01*
D10*
X65371332Y-74790200D02*
X65466570Y-74837819D01*
X65466570Y-74837819D02*
X65657046Y-74837819D01*
X65657046Y-74837819D02*
X65752284Y-74790200D01*
X65752284Y-74790200D02*
X65799903Y-74694961D01*
X65799903Y-74694961D02*
X65799903Y-74647342D01*
X65799903Y-74647342D02*
X65752284Y-74552104D01*
X65752284Y-74552104D02*
X65657046Y-74504485D01*
X65657046Y-74504485D02*
X65514189Y-74504485D01*
X65514189Y-74504485D02*
X65418951Y-74456866D01*
X65418951Y-74456866D02*
X65371332Y-74361628D01*
X65371332Y-74361628D02*
X65371332Y-74314009D01*
X65371332Y-74314009D02*
X65418951Y-74218771D01*
X65418951Y-74218771D02*
X65514189Y-74171152D01*
X65514189Y-74171152D02*
X65657046Y-74171152D01*
X65657046Y-74171152D02*
X65752284Y-74218771D01*
X66371332Y-74837819D02*
X66276094Y-74790200D01*
X66276094Y-74790200D02*
X66228475Y-74742580D01*
X66228475Y-74742580D02*
X66180856Y-74647342D01*
X66180856Y-74647342D02*
X66180856Y-74361628D01*
X66180856Y-74361628D02*
X66228475Y-74266390D01*
X66228475Y-74266390D02*
X66276094Y-74218771D01*
X66276094Y-74218771D02*
X66371332Y-74171152D01*
X66371332Y-74171152D02*
X66514189Y-74171152D01*
X66514189Y-74171152D02*
X66609427Y-74218771D01*
X66609427Y-74218771D02*
X66657046Y-74266390D01*
X66657046Y-74266390D02*
X66704665Y-74361628D01*
X66704665Y-74361628D02*
X66704665Y-74647342D01*
X66704665Y-74647342D02*
X66657046Y-74742580D01*
X66657046Y-74742580D02*
X66609427Y-74790200D01*
X66609427Y-74790200D02*
X66514189Y-74837819D01*
X66514189Y-74837819D02*
X66371332Y-74837819D01*
X67276094Y-74837819D02*
X67180856Y-74790200D01*
X67180856Y-74790200D02*
X67133237Y-74694961D01*
X67133237Y-74694961D02*
X67133237Y-73837819D01*
X68085618Y-74837819D02*
X68085618Y-73837819D01*
X68085618Y-74790200D02*
X67990380Y-74837819D01*
X67990380Y-74837819D02*
X67799904Y-74837819D01*
X67799904Y-74837819D02*
X67704666Y-74790200D01*
X67704666Y-74790200D02*
X67657047Y-74742580D01*
X67657047Y-74742580D02*
X67609428Y-74647342D01*
X67609428Y-74647342D02*
X67609428Y-74361628D01*
X67609428Y-74361628D02*
X67657047Y-74266390D01*
X67657047Y-74266390D02*
X67704666Y-74218771D01*
X67704666Y-74218771D02*
X67799904Y-74171152D01*
X67799904Y-74171152D02*
X67990380Y-74171152D01*
X67990380Y-74171152D02*
X68085618Y-74218771D01*
X68942761Y-74790200D02*
X68847523Y-74837819D01*
X68847523Y-74837819D02*
X68657047Y-74837819D01*
X68657047Y-74837819D02*
X68561809Y-74790200D01*
X68561809Y-74790200D02*
X68514190Y-74694961D01*
X68514190Y-74694961D02*
X68514190Y-74314009D01*
X68514190Y-74314009D02*
X68561809Y-74218771D01*
X68561809Y-74218771D02*
X68657047Y-74171152D01*
X68657047Y-74171152D02*
X68847523Y-74171152D01*
X68847523Y-74171152D02*
X68942761Y-74218771D01*
X68942761Y-74218771D02*
X68990380Y-74314009D01*
X68990380Y-74314009D02*
X68990380Y-74409247D01*
X68990380Y-74409247D02*
X68514190Y-74504485D01*
X69418952Y-74837819D02*
X69418952Y-74171152D01*
X69418952Y-74361628D02*
X69466571Y-74266390D01*
X69466571Y-74266390D02*
X69514190Y-74218771D01*
X69514190Y-74218771D02*
X69609428Y-74171152D01*
X69609428Y-74171152D02*
X69704666Y-74171152D01*
X69799905Y-74933057D02*
X70561809Y-74933057D01*
X70942762Y-74837819D02*
X70847524Y-74790200D01*
X70847524Y-74790200D02*
X70799905Y-74742580D01*
X70799905Y-74742580D02*
X70752286Y-74647342D01*
X70752286Y-74647342D02*
X70752286Y-74361628D01*
X70752286Y-74361628D02*
X70799905Y-74266390D01*
X70799905Y-74266390D02*
X70847524Y-74218771D01*
X70847524Y-74218771D02*
X70942762Y-74171152D01*
X70942762Y-74171152D02*
X71085619Y-74171152D01*
X71085619Y-74171152D02*
X71180857Y-74218771D01*
X71180857Y-74218771D02*
X71228476Y-74266390D01*
X71228476Y-74266390D02*
X71276095Y-74361628D01*
X71276095Y-74361628D02*
X71276095Y-74647342D01*
X71276095Y-74647342D02*
X71228476Y-74742580D01*
X71228476Y-74742580D02*
X71180857Y-74790200D01*
X71180857Y-74790200D02*
X71085619Y-74837819D01*
X71085619Y-74837819D02*
X70942762Y-74837819D01*
X72133238Y-74171152D02*
X72133238Y-74837819D01*
X71704667Y-74171152D02*
X71704667Y-74694961D01*
X71704667Y-74694961D02*
X71752286Y-74790200D01*
X71752286Y-74790200D02*
X71847524Y-74837819D01*
X71847524Y-74837819D02*
X71990381Y-74837819D01*
X71990381Y-74837819D02*
X72085619Y-74790200D01*
X72085619Y-74790200D02*
X72133238Y-74742580D01*
X72466572Y-74171152D02*
X72847524Y-74171152D01*
X72609429Y-73837819D02*
X72609429Y-74694961D01*
X72609429Y-74694961D02*
X72657048Y-74790200D01*
X72657048Y-74790200D02*
X72752286Y-74837819D01*
X72752286Y-74837819D02*
X72847524Y-74837819D01*
X73704667Y-74837819D02*
X73133239Y-74837819D01*
X73418953Y-74837819D02*
X73418953Y-73837819D01*
X73418953Y-73837819D02*
X73323715Y-73980676D01*
X73323715Y-73980676D02*
X73228477Y-74075914D01*
X73228477Y-74075914D02*
X73133239Y-74123533D01*
D11*
X180787476Y-84927485D02*
X180787476Y-83927485D01*
X180787476Y-84308437D02*
X180882714Y-84260818D01*
X180882714Y-84260818D02*
X181073190Y-84260818D01*
X181073190Y-84260818D02*
X181168428Y-84308437D01*
X181168428Y-84308437D02*
X181216047Y-84356056D01*
X181216047Y-84356056D02*
X181263666Y-84451294D01*
X181263666Y-84451294D02*
X181263666Y-84737008D01*
X181263666Y-84737008D02*
X181216047Y-84832246D01*
X181216047Y-84832246D02*
X181168428Y-84879866D01*
X181168428Y-84879866D02*
X181073190Y-84927485D01*
X181073190Y-84927485D02*
X180882714Y-84927485D01*
X180882714Y-84927485D02*
X180787476Y-84879866D01*
X181549381Y-84260818D02*
X181930333Y-84260818D01*
X181692238Y-83927485D02*
X181692238Y-84784627D01*
X181692238Y-84784627D02*
X181739857Y-84879866D01*
X181739857Y-84879866D02*
X181835095Y-84927485D01*
X181835095Y-84927485D02*
X181930333Y-84927485D01*
X182263667Y-84260818D02*
X182263667Y-84927485D01*
X182263667Y-84356056D02*
X182311286Y-84308437D01*
X182311286Y-84308437D02*
X182406524Y-84260818D01*
X182406524Y-84260818D02*
X182549381Y-84260818D01*
X182549381Y-84260818D02*
X182644619Y-84308437D01*
X182644619Y-84308437D02*
X182692238Y-84403675D01*
X182692238Y-84403675D02*
X182692238Y-84927485D01*
X182930334Y-85022723D02*
X183692238Y-85022723D01*
X184073191Y-84356056D02*
X183977953Y-84308437D01*
X183977953Y-84308437D02*
X183930334Y-84260818D01*
X183930334Y-84260818D02*
X183882715Y-84165580D01*
X183882715Y-84165580D02*
X183882715Y-84117961D01*
X183882715Y-84117961D02*
X183930334Y-84022723D01*
X183930334Y-84022723D02*
X183977953Y-83975104D01*
X183977953Y-83975104D02*
X184073191Y-83927485D01*
X184073191Y-83927485D02*
X184263667Y-83927485D01*
X184263667Y-83927485D02*
X184358905Y-83975104D01*
X184358905Y-83975104D02*
X184406524Y-84022723D01*
X184406524Y-84022723D02*
X184454143Y-84117961D01*
X184454143Y-84117961D02*
X184454143Y-84165580D01*
X184454143Y-84165580D02*
X184406524Y-84260818D01*
X184406524Y-84260818D02*
X184358905Y-84308437D01*
X184358905Y-84308437D02*
X184263667Y-84356056D01*
X184263667Y-84356056D02*
X184073191Y-84356056D01*
X184073191Y-84356056D02*
X183977953Y-84403675D01*
X183977953Y-84403675D02*
X183930334Y-84451294D01*
X183930334Y-84451294D02*
X183882715Y-84546532D01*
X183882715Y-84546532D02*
X183882715Y-84737008D01*
X183882715Y-84737008D02*
X183930334Y-84832246D01*
X183930334Y-84832246D02*
X183977953Y-84879866D01*
X183977953Y-84879866D02*
X184073191Y-84927485D01*
X184073191Y-84927485D02*
X184263667Y-84927485D01*
X184263667Y-84927485D02*
X184358905Y-84879866D01*
X184358905Y-84879866D02*
X184406524Y-84832246D01*
X184406524Y-84832246D02*
X184454143Y-84737008D01*
X184454143Y-84737008D02*
X184454143Y-84546532D01*
X184454143Y-84546532D02*
X184406524Y-84451294D01*
X184406524Y-84451294D02*
X184358905Y-84403675D01*
X184358905Y-84403675D02*
X184263667Y-84356056D01*
D10*
X199487152Y-84127694D02*
X200344295Y-84127694D01*
X200344295Y-84127694D02*
X200439533Y-84175313D01*
X200439533Y-84175313D02*
X200487152Y-84270551D01*
X200487152Y-84270551D02*
X200487152Y-84318170D01*
X199153819Y-84127694D02*
X199201438Y-84175313D01*
X199201438Y-84175313D02*
X199249057Y-84127694D01*
X199249057Y-84127694D02*
X199201438Y-84080075D01*
X199201438Y-84080075D02*
X199153819Y-84127694D01*
X199153819Y-84127694D02*
X199249057Y-84127694D01*
X200106200Y-83699123D02*
X200153819Y-83603885D01*
X200153819Y-83603885D02*
X200153819Y-83413409D01*
X200153819Y-83413409D02*
X200106200Y-83318171D01*
X200106200Y-83318171D02*
X200010961Y-83270552D01*
X200010961Y-83270552D02*
X199963342Y-83270552D01*
X199963342Y-83270552D02*
X199868104Y-83318171D01*
X199868104Y-83318171D02*
X199820485Y-83413409D01*
X199820485Y-83413409D02*
X199820485Y-83556266D01*
X199820485Y-83556266D02*
X199772866Y-83651504D01*
X199772866Y-83651504D02*
X199677628Y-83699123D01*
X199677628Y-83699123D02*
X199630009Y-83699123D01*
X199630009Y-83699123D02*
X199534771Y-83651504D01*
X199534771Y-83651504D02*
X199487152Y-83556266D01*
X199487152Y-83556266D02*
X199487152Y-83413409D01*
X199487152Y-83413409D02*
X199534771Y-83318171D01*
X199487152Y-82984837D02*
X199487152Y-82603885D01*
X199153819Y-82841980D02*
X200010961Y-82841980D01*
X200010961Y-82841980D02*
X200106200Y-82794361D01*
X200106200Y-82794361D02*
X200153819Y-82699123D01*
X200153819Y-82699123D02*
X200153819Y-82603885D01*
X200249057Y-82508647D02*
X200249057Y-81746742D01*
X200153819Y-81508646D02*
X199487152Y-81508646D01*
X199153819Y-81508646D02*
X199201438Y-81556265D01*
X199201438Y-81556265D02*
X199249057Y-81508646D01*
X199249057Y-81508646D02*
X199201438Y-81461027D01*
X199201438Y-81461027D02*
X199153819Y-81508646D01*
X199153819Y-81508646D02*
X199249057Y-81508646D01*
X199487152Y-81032456D02*
X200153819Y-81032456D01*
X199582390Y-81032456D02*
X199534771Y-80984837D01*
X199534771Y-80984837D02*
X199487152Y-80889599D01*
X199487152Y-80889599D02*
X199487152Y-80746742D01*
X199487152Y-80746742D02*
X199534771Y-80651504D01*
X199534771Y-80651504D02*
X199630009Y-80603885D01*
X199630009Y-80603885D02*
X200153819Y-80603885D01*
X200153819Y-79603885D02*
X200153819Y-80175313D01*
X200153819Y-79889599D02*
X199153819Y-79889599D01*
X199153819Y-79889599D02*
X199296676Y-79984837D01*
X199296676Y-79984837D02*
X199391914Y-80080075D01*
X199391914Y-80080075D02*
X199439533Y-80175313D01*
X145077819Y-77011732D02*
X144601628Y-77345065D01*
X145077819Y-77583160D02*
X144077819Y-77583160D01*
X144077819Y-77583160D02*
X144077819Y-77202208D01*
X144077819Y-77202208D02*
X144125438Y-77106970D01*
X144125438Y-77106970D02*
X144173057Y-77059351D01*
X144173057Y-77059351D02*
X144268295Y-77011732D01*
X144268295Y-77011732D02*
X144411152Y-77011732D01*
X144411152Y-77011732D02*
X144506390Y-77059351D01*
X144506390Y-77059351D02*
X144554009Y-77106970D01*
X144554009Y-77106970D02*
X144601628Y-77202208D01*
X144601628Y-77202208D02*
X144601628Y-77583160D01*
X144077819Y-76106970D02*
X144077819Y-76583160D01*
X144077819Y-76583160D02*
X144554009Y-76630779D01*
X144554009Y-76630779D02*
X144506390Y-76583160D01*
X144506390Y-76583160D02*
X144458771Y-76487922D01*
X144458771Y-76487922D02*
X144458771Y-76249827D01*
X144458771Y-76249827D02*
X144506390Y-76154589D01*
X144506390Y-76154589D02*
X144554009Y-76106970D01*
X144554009Y-76106970D02*
X144649247Y-76059351D01*
X144649247Y-76059351D02*
X144887342Y-76059351D01*
X144887342Y-76059351D02*
X144982580Y-76106970D01*
X144982580Y-76106970D02*
X145030200Y-76154589D01*
X145030200Y-76154589D02*
X145077819Y-76249827D01*
X145077819Y-76249827D02*
X145077819Y-76487922D01*
X145077819Y-76487922D02*
X145030200Y-76583160D01*
X145030200Y-76583160D02*
X144982580Y-76630779D01*
D11*
X106619476Y-84927485D02*
X106619476Y-83927485D01*
X106619476Y-84308437D02*
X106714714Y-84260818D01*
X106714714Y-84260818D02*
X106905190Y-84260818D01*
X106905190Y-84260818D02*
X107000428Y-84308437D01*
X107000428Y-84308437D02*
X107048047Y-84356056D01*
X107048047Y-84356056D02*
X107095666Y-84451294D01*
X107095666Y-84451294D02*
X107095666Y-84737008D01*
X107095666Y-84737008D02*
X107048047Y-84832246D01*
X107048047Y-84832246D02*
X107000428Y-84879866D01*
X107000428Y-84879866D02*
X106905190Y-84927485D01*
X106905190Y-84927485D02*
X106714714Y-84927485D01*
X106714714Y-84927485D02*
X106619476Y-84879866D01*
X107381381Y-84260818D02*
X107762333Y-84260818D01*
X107524238Y-83927485D02*
X107524238Y-84784627D01*
X107524238Y-84784627D02*
X107571857Y-84879866D01*
X107571857Y-84879866D02*
X107667095Y-84927485D01*
X107667095Y-84927485D02*
X107762333Y-84927485D01*
X108095667Y-84260818D02*
X108095667Y-84927485D01*
X108095667Y-84356056D02*
X108143286Y-84308437D01*
X108143286Y-84308437D02*
X108238524Y-84260818D01*
X108238524Y-84260818D02*
X108381381Y-84260818D01*
X108381381Y-84260818D02*
X108476619Y-84308437D01*
X108476619Y-84308437D02*
X108524238Y-84403675D01*
X108524238Y-84403675D02*
X108524238Y-84927485D01*
X108762334Y-85022723D02*
X109524238Y-85022723D01*
X109667096Y-83927485D02*
X110286143Y-83927485D01*
X110286143Y-83927485D02*
X109952810Y-84308437D01*
X109952810Y-84308437D02*
X110095667Y-84308437D01*
X110095667Y-84308437D02*
X110190905Y-84356056D01*
X110190905Y-84356056D02*
X110238524Y-84403675D01*
X110238524Y-84403675D02*
X110286143Y-84498913D01*
X110286143Y-84498913D02*
X110286143Y-84737008D01*
X110286143Y-84737008D02*
X110238524Y-84832246D01*
X110238524Y-84832246D02*
X110190905Y-84879866D01*
X110190905Y-84879866D02*
X110095667Y-84927485D01*
X110095667Y-84927485D02*
X109809953Y-84927485D01*
X109809953Y-84927485D02*
X109714715Y-84879866D01*
X109714715Y-84879866D02*
X109667096Y-84832246D01*
D10*
X184686115Y-77011732D02*
X184209924Y-77345065D01*
X184686115Y-77583160D02*
X183686115Y-77583160D01*
X183686115Y-77583160D02*
X183686115Y-77202208D01*
X183686115Y-77202208D02*
X183733734Y-77106970D01*
X183733734Y-77106970D02*
X183781353Y-77059351D01*
X183781353Y-77059351D02*
X183876591Y-77011732D01*
X183876591Y-77011732D02*
X184019448Y-77011732D01*
X184019448Y-77011732D02*
X184114686Y-77059351D01*
X184114686Y-77059351D02*
X184162305Y-77106970D01*
X184162305Y-77106970D02*
X184209924Y-77202208D01*
X184209924Y-77202208D02*
X184209924Y-77583160D01*
X184114686Y-76440303D02*
X184067067Y-76535541D01*
X184067067Y-76535541D02*
X184019448Y-76583160D01*
X184019448Y-76583160D02*
X183924210Y-76630779D01*
X183924210Y-76630779D02*
X183876591Y-76630779D01*
X183876591Y-76630779D02*
X183781353Y-76583160D01*
X183781353Y-76583160D02*
X183733734Y-76535541D01*
X183733734Y-76535541D02*
X183686115Y-76440303D01*
X183686115Y-76440303D02*
X183686115Y-76249827D01*
X183686115Y-76249827D02*
X183733734Y-76154589D01*
X183733734Y-76154589D02*
X183781353Y-76106970D01*
X183781353Y-76106970D02*
X183876591Y-76059351D01*
X183876591Y-76059351D02*
X183924210Y-76059351D01*
X183924210Y-76059351D02*
X184019448Y-76106970D01*
X184019448Y-76106970D02*
X184067067Y-76154589D01*
X184067067Y-76154589D02*
X184114686Y-76249827D01*
X184114686Y-76249827D02*
X184114686Y-76440303D01*
X184114686Y-76440303D02*
X184162305Y-76535541D01*
X184162305Y-76535541D02*
X184209924Y-76583160D01*
X184209924Y-76583160D02*
X184305162Y-76630779D01*
X184305162Y-76630779D02*
X184495638Y-76630779D01*
X184495638Y-76630779D02*
X184590876Y-76583160D01*
X184590876Y-76583160D02*
X184638496Y-76535541D01*
X184638496Y-76535541D02*
X184686115Y-76440303D01*
X184686115Y-76440303D02*
X184686115Y-76249827D01*
X184686115Y-76249827D02*
X184638496Y-76154589D01*
X184638496Y-76154589D02*
X184590876Y-76106970D01*
X184590876Y-76106970D02*
X184495638Y-76059351D01*
X184495638Y-76059351D02*
X184305162Y-76059351D01*
X184305162Y-76059351D02*
X184209924Y-76106970D01*
X184209924Y-76106970D02*
X184162305Y-76154589D01*
X184162305Y-76154589D02*
X184114686Y-76249827D01*
X110533819Y-77011732D02*
X110057628Y-77345065D01*
X110533819Y-77583160D02*
X109533819Y-77583160D01*
X109533819Y-77583160D02*
X109533819Y-77202208D01*
X109533819Y-77202208D02*
X109581438Y-77106970D01*
X109581438Y-77106970D02*
X109629057Y-77059351D01*
X109629057Y-77059351D02*
X109724295Y-77011732D01*
X109724295Y-77011732D02*
X109867152Y-77011732D01*
X109867152Y-77011732D02*
X109962390Y-77059351D01*
X109962390Y-77059351D02*
X110010009Y-77106970D01*
X110010009Y-77106970D02*
X110057628Y-77202208D01*
X110057628Y-77202208D02*
X110057628Y-77583160D01*
X109533819Y-76678398D02*
X109533819Y-76059351D01*
X109533819Y-76059351D02*
X109914771Y-76392684D01*
X109914771Y-76392684D02*
X109914771Y-76249827D01*
X109914771Y-76249827D02*
X109962390Y-76154589D01*
X109962390Y-76154589D02*
X110010009Y-76106970D01*
X110010009Y-76106970D02*
X110105247Y-76059351D01*
X110105247Y-76059351D02*
X110343342Y-76059351D01*
X110343342Y-76059351D02*
X110438580Y-76106970D01*
X110438580Y-76106970D02*
X110486200Y-76154589D01*
X110486200Y-76154589D02*
X110533819Y-76249827D01*
X110533819Y-76249827D02*
X110533819Y-76535541D01*
X110533819Y-76535541D02*
X110486200Y-76630779D01*
X110486200Y-76630779D02*
X110438580Y-76678398D01*
X171493819Y-77011732D02*
X171017628Y-77345065D01*
X171493819Y-77583160D02*
X170493819Y-77583160D01*
X170493819Y-77583160D02*
X170493819Y-77202208D01*
X170493819Y-77202208D02*
X170541438Y-77106970D01*
X170541438Y-77106970D02*
X170589057Y-77059351D01*
X170589057Y-77059351D02*
X170684295Y-77011732D01*
X170684295Y-77011732D02*
X170827152Y-77011732D01*
X170827152Y-77011732D02*
X170922390Y-77059351D01*
X170922390Y-77059351D02*
X170970009Y-77106970D01*
X170970009Y-77106970D02*
X171017628Y-77202208D01*
X171017628Y-77202208D02*
X171017628Y-77583160D01*
X170493819Y-76678398D02*
X170493819Y-76011732D01*
X170493819Y-76011732D02*
X171493819Y-76440303D01*
X123741819Y-77011732D02*
X123265628Y-77345065D01*
X123741819Y-77583160D02*
X122741819Y-77583160D01*
X122741819Y-77583160D02*
X122741819Y-77202208D01*
X122741819Y-77202208D02*
X122789438Y-77106970D01*
X122789438Y-77106970D02*
X122837057Y-77059351D01*
X122837057Y-77059351D02*
X122932295Y-77011732D01*
X122932295Y-77011732D02*
X123075152Y-77011732D01*
X123075152Y-77011732D02*
X123170390Y-77059351D01*
X123170390Y-77059351D02*
X123218009Y-77106970D01*
X123218009Y-77106970D02*
X123265628Y-77202208D01*
X123265628Y-77202208D02*
X123265628Y-77583160D01*
X123075152Y-76154589D02*
X123741819Y-76154589D01*
X122694200Y-76392684D02*
X123408485Y-76630779D01*
X123408485Y-76630779D02*
X123408485Y-76011732D01*
X190331333Y-74790200D02*
X190426571Y-74837819D01*
X190426571Y-74837819D02*
X190617047Y-74837819D01*
X190617047Y-74837819D02*
X190712285Y-74790200D01*
X190712285Y-74790200D02*
X190759904Y-74694961D01*
X190759904Y-74694961D02*
X190759904Y-74647342D01*
X190759904Y-74647342D02*
X190712285Y-74552104D01*
X190712285Y-74552104D02*
X190617047Y-74504485D01*
X190617047Y-74504485D02*
X190474190Y-74504485D01*
X190474190Y-74504485D02*
X190378952Y-74456866D01*
X190378952Y-74456866D02*
X190331333Y-74361628D01*
X190331333Y-74361628D02*
X190331333Y-74314009D01*
X190331333Y-74314009D02*
X190378952Y-74218771D01*
X190378952Y-74218771D02*
X190474190Y-74171152D01*
X190474190Y-74171152D02*
X190617047Y-74171152D01*
X190617047Y-74171152D02*
X190712285Y-74218771D01*
X191331333Y-74837819D02*
X191236095Y-74790200D01*
X191236095Y-74790200D02*
X191188476Y-74742580D01*
X191188476Y-74742580D02*
X191140857Y-74647342D01*
X191140857Y-74647342D02*
X191140857Y-74361628D01*
X191140857Y-74361628D02*
X191188476Y-74266390D01*
X191188476Y-74266390D02*
X191236095Y-74218771D01*
X191236095Y-74218771D02*
X191331333Y-74171152D01*
X191331333Y-74171152D02*
X191474190Y-74171152D01*
X191474190Y-74171152D02*
X191569428Y-74218771D01*
X191569428Y-74218771D02*
X191617047Y-74266390D01*
X191617047Y-74266390D02*
X191664666Y-74361628D01*
X191664666Y-74361628D02*
X191664666Y-74647342D01*
X191664666Y-74647342D02*
X191617047Y-74742580D01*
X191617047Y-74742580D02*
X191569428Y-74790200D01*
X191569428Y-74790200D02*
X191474190Y-74837819D01*
X191474190Y-74837819D02*
X191331333Y-74837819D01*
X192236095Y-74837819D02*
X192140857Y-74790200D01*
X192140857Y-74790200D02*
X192093238Y-74694961D01*
X192093238Y-74694961D02*
X192093238Y-73837819D01*
X193045619Y-74837819D02*
X193045619Y-73837819D01*
X193045619Y-74790200D02*
X192950381Y-74837819D01*
X192950381Y-74837819D02*
X192759905Y-74837819D01*
X192759905Y-74837819D02*
X192664667Y-74790200D01*
X192664667Y-74790200D02*
X192617048Y-74742580D01*
X192617048Y-74742580D02*
X192569429Y-74647342D01*
X192569429Y-74647342D02*
X192569429Y-74361628D01*
X192569429Y-74361628D02*
X192617048Y-74266390D01*
X192617048Y-74266390D02*
X192664667Y-74218771D01*
X192664667Y-74218771D02*
X192759905Y-74171152D01*
X192759905Y-74171152D02*
X192950381Y-74171152D01*
X192950381Y-74171152D02*
X193045619Y-74218771D01*
X193902762Y-74790200D02*
X193807524Y-74837819D01*
X193807524Y-74837819D02*
X193617048Y-74837819D01*
X193617048Y-74837819D02*
X193521810Y-74790200D01*
X193521810Y-74790200D02*
X193474191Y-74694961D01*
X193474191Y-74694961D02*
X193474191Y-74314009D01*
X193474191Y-74314009D02*
X193521810Y-74218771D01*
X193521810Y-74218771D02*
X193617048Y-74171152D01*
X193617048Y-74171152D02*
X193807524Y-74171152D01*
X193807524Y-74171152D02*
X193902762Y-74218771D01*
X193902762Y-74218771D02*
X193950381Y-74314009D01*
X193950381Y-74314009D02*
X193950381Y-74409247D01*
X193950381Y-74409247D02*
X193474191Y-74504485D01*
X194378953Y-74837819D02*
X194378953Y-74171152D01*
X194378953Y-74361628D02*
X194426572Y-74266390D01*
X194426572Y-74266390D02*
X194474191Y-74218771D01*
X194474191Y-74218771D02*
X194569429Y-74171152D01*
X194569429Y-74171152D02*
X194664667Y-74171152D01*
X194759906Y-74933057D02*
X195521810Y-74933057D01*
X195759906Y-74837819D02*
X195759906Y-74171152D01*
X195759906Y-73837819D02*
X195712287Y-73885438D01*
X195712287Y-73885438D02*
X195759906Y-73933057D01*
X195759906Y-73933057D02*
X195807525Y-73885438D01*
X195807525Y-73885438D02*
X195759906Y-73837819D01*
X195759906Y-73837819D02*
X195759906Y-73933057D01*
X196236096Y-74171152D02*
X196236096Y-74837819D01*
X196236096Y-74266390D02*
X196283715Y-74218771D01*
X196283715Y-74218771D02*
X196378953Y-74171152D01*
X196378953Y-74171152D02*
X196521810Y-74171152D01*
X196521810Y-74171152D02*
X196617048Y-74218771D01*
X196617048Y-74218771D02*
X196664667Y-74314009D01*
X196664667Y-74314009D02*
X196664667Y-74837819D01*
X197664667Y-74837819D02*
X197093239Y-74837819D01*
X197378953Y-74837819D02*
X197378953Y-73837819D01*
X197378953Y-73837819D02*
X197283715Y-73980676D01*
X197283715Y-73980676D02*
X197188477Y-74075914D01*
X197188477Y-74075914D02*
X197093239Y-74123533D01*
X97308679Y-77011732D02*
X96832488Y-77345065D01*
X97308679Y-77583160D02*
X96308679Y-77583160D01*
X96308679Y-77583160D02*
X96308679Y-77202208D01*
X96308679Y-77202208D02*
X96356298Y-77106970D01*
X96356298Y-77106970D02*
X96403917Y-77059351D01*
X96403917Y-77059351D02*
X96499155Y-77011732D01*
X96499155Y-77011732D02*
X96642012Y-77011732D01*
X96642012Y-77011732D02*
X96737250Y-77059351D01*
X96737250Y-77059351D02*
X96784869Y-77106970D01*
X96784869Y-77106970D02*
X96832488Y-77202208D01*
X96832488Y-77202208D02*
X96832488Y-77583160D01*
X96403917Y-76630779D02*
X96356298Y-76583160D01*
X96356298Y-76583160D02*
X96308679Y-76487922D01*
X96308679Y-76487922D02*
X96308679Y-76249827D01*
X96308679Y-76249827D02*
X96356298Y-76154589D01*
X96356298Y-76154589D02*
X96403917Y-76106970D01*
X96403917Y-76106970D02*
X96499155Y-76059351D01*
X96499155Y-76059351D02*
X96594393Y-76059351D01*
X96594393Y-76059351D02*
X96737250Y-76106970D01*
X96737250Y-76106970D02*
X97308679Y-76678398D01*
X97308679Y-76678398D02*
X97308679Y-76059351D01*
D11*
X141163476Y-84927485D02*
X141163476Y-83927485D01*
X141163476Y-84308437D02*
X141258714Y-84260818D01*
X141258714Y-84260818D02*
X141449190Y-84260818D01*
X141449190Y-84260818D02*
X141544428Y-84308437D01*
X141544428Y-84308437D02*
X141592047Y-84356056D01*
X141592047Y-84356056D02*
X141639666Y-84451294D01*
X141639666Y-84451294D02*
X141639666Y-84737008D01*
X141639666Y-84737008D02*
X141592047Y-84832246D01*
X141592047Y-84832246D02*
X141544428Y-84879866D01*
X141544428Y-84879866D02*
X141449190Y-84927485D01*
X141449190Y-84927485D02*
X141258714Y-84927485D01*
X141258714Y-84927485D02*
X141163476Y-84879866D01*
X141925381Y-84260818D02*
X142306333Y-84260818D01*
X142068238Y-83927485D02*
X142068238Y-84784627D01*
X142068238Y-84784627D02*
X142115857Y-84879866D01*
X142115857Y-84879866D02*
X142211095Y-84927485D01*
X142211095Y-84927485D02*
X142306333Y-84927485D01*
X142639667Y-84260818D02*
X142639667Y-84927485D01*
X142639667Y-84356056D02*
X142687286Y-84308437D01*
X142687286Y-84308437D02*
X142782524Y-84260818D01*
X142782524Y-84260818D02*
X142925381Y-84260818D01*
X142925381Y-84260818D02*
X143020619Y-84308437D01*
X143020619Y-84308437D02*
X143068238Y-84403675D01*
X143068238Y-84403675D02*
X143068238Y-84927485D01*
X143306334Y-85022723D02*
X144068238Y-85022723D01*
X144782524Y-83927485D02*
X144306334Y-83927485D01*
X144306334Y-83927485D02*
X144258715Y-84403675D01*
X144258715Y-84403675D02*
X144306334Y-84356056D01*
X144306334Y-84356056D02*
X144401572Y-84308437D01*
X144401572Y-84308437D02*
X144639667Y-84308437D01*
X144639667Y-84308437D02*
X144734905Y-84356056D01*
X144734905Y-84356056D02*
X144782524Y-84403675D01*
X144782524Y-84403675D02*
X144830143Y-84498913D01*
X144830143Y-84498913D02*
X144830143Y-84737008D01*
X144830143Y-84737008D02*
X144782524Y-84832246D01*
X144782524Y-84832246D02*
X144734905Y-84879866D01*
X144734905Y-84879866D02*
X144639667Y-84927485D01*
X144639667Y-84927485D02*
X144401572Y-84927485D01*
X144401572Y-84927485D02*
X144306334Y-84879866D01*
X144306334Y-84879866D02*
X144258715Y-84832246D01*
D12*
%TO.C,SW1*%
X128855000Y-86149000D02*
X128855000Y-86939000D01*
X129455000Y-87949000D02*
X135155000Y-87949000D01*
X130705000Y-85099000D02*
X132405000Y-85099000D01*
X130905000Y-87949000D02*
X130905000Y-89239000D01*
X130905000Y-89239000D02*
X131105000Y-89449000D01*
X131105000Y-89449000D02*
X132005000Y-89449000D01*
X132205000Y-89239000D02*
X132005000Y-89449000D01*
X132205000Y-89239000D02*
X132205000Y-87949000D01*
X133705000Y-85099000D02*
X133905000Y-85099000D01*
X135755000Y-86939000D02*
X135755000Y-86149000D01*
%TO.C,U1*%
X132492500Y-74989000D02*
X130292500Y-74989000D01*
X132492500Y-74989000D02*
X134692500Y-74989000D01*
X132492500Y-80459000D02*
X130292500Y-80459000D01*
X132492500Y-80459000D02*
X134692500Y-80459000D01*
X136732500Y-80239000D02*
X136402500Y-79999000D01*
X136732500Y-79759000D01*
X136732500Y-80239000D01*
G36*
X136732500Y-80239000D02*
G01*
X136402500Y-79999000D01*
X136732500Y-79759000D01*
X136732500Y-80239000D01*
G37*
%TO.C,jst_out1*%
X58246000Y-79348000D02*
X58246000Y-84228000D01*
X60216000Y-78178000D02*
X62716000Y-78178000D01*
X60216000Y-85398000D02*
X62716000Y-85398000D01*
X62716000Y-78178000D02*
X62716000Y-79228000D01*
X62716000Y-79228000D02*
X63706000Y-79228000D01*
X62716000Y-85398000D02*
X62716000Y-84348000D01*
%TO.C,solder_out1*%
X68208000Y-75383000D02*
X69538000Y-75383000D01*
X68208000Y-76713000D02*
X68208000Y-75383000D01*
X68208000Y-77983000D02*
X68208000Y-88203000D01*
X68208000Y-77983000D02*
X70868000Y-77983000D01*
X68208000Y-88203000D02*
X70868000Y-88203000D01*
X70868000Y-77983000D02*
X70868000Y-88203000D01*
%TO.C,jst_in1*%
X201894000Y-78279600D02*
X201894000Y-79329600D01*
X201894000Y-84449600D02*
X200904000Y-84449600D01*
X201894000Y-85499600D02*
X201894000Y-84449600D01*
X204394000Y-78279600D02*
X201894000Y-78279600D01*
X204394000Y-85499600D02*
X201894000Y-85499600D01*
X206364000Y-84329600D02*
X206364000Y-79449600D01*
%TO.C,solder_in1*%
X192668000Y-75383000D02*
X193998000Y-75383000D01*
X192668000Y-76713000D02*
X192668000Y-75383000D01*
X192668000Y-77983000D02*
X192668000Y-88203000D01*
X192668000Y-77983000D02*
X195328000Y-77983000D01*
X192668000Y-88203000D02*
X195328000Y-88203000D01*
X195328000Y-77983000D02*
X195328000Y-88203000D01*
%TD*%
M02*
